GeoramaSemiCondensed-Black.ufo
<glyph name="exclam" format="2">
  <advance width="238.0"/>
  <unicode hex="0021"/>
  <outline>
    <contour>
      <point x="33.0" y="259.0" type="line"/>
      <point x="204.79999999999998" y="259.0" type="line"/>
      <point x="221.6" y="740.0" type="line"/>
      <point x="18.6" y="740.0" type="line"/>
    </contour>
    <contour>
      <point x="12.0" y="106.2" type="curve" smooth="yes"/>
      <point x="12.0" y="28.8"/>
      <point x="43.4" y="-10.2"/>
      <point x="119.0" y="-10.2" type="curve" smooth="yes"/>
      <point x="194.6" y="-10.2"/>
      <point x="226.0" y="28.8"/>
      <point x="226.0" y="106.2" type="curve" smooth="yes"/>
      <point x="226.0" y="184.6"/>
      <point x="194.6" y="223.6"/>
      <point x="119.0" y="223.6" type="curve" smooth="yes"/>
      <point x="43.4" y="223.6"/>
      <point x="12.0" y="184.6"/>
    </contour>
  </outline>
</glyph>
<glyph name="numbersign" format="2">
  <advance width="546.0"/>
  <unicode hex="0023"/>
  <outline>
    <contour>
      <point x="49.800000000000004" y="394.79999999999995" type="line"/>
      <point x="96.19999999999999" y="394.79999999999995" type="line"/>
      <point x="87.19999999999999" y="297.4" type="line"/>
      <point x="36.599999999999994" y="297.4" type="line"/>
      <point x="36.599999999999994" y="137.8" type="line"/>
      <point x="73.20000000000002" y="137.8" type="line"/>
      <point x="61.800000000000004" y="0.0" type="line"/>
      <point x="223.79999999999998" y="0.0" type="line"/>
      <point x="235.20000000000002" y="137.8" type="line"/>
      <point x="275.0" y="137.8" type="line"/>
      <point x="263.59999999999997" y="0.0" type="line"/>
      <point x="425.59999999999997" y="0.0" type="line"/>
      <point x="437.0" y="137.8" type="line"/>
      <point x="496.4" y="137.8" type="line"/>
      <point x="496.4" y="297.4" type="line"/>
      <point x="451.0" y="297.4" type="line"/>
      <point x="460.0" y="394.79999999999995" type="line"/>
      <point x="509.6" y="394.79999999999995" type="line"/>
      <point x="509.6" y="555.6" type="line"/>
      <point x="473.79999999999995" y="555.6" type="line"/>
      <point x="485.8" y="700.0" type="line"/>
      <point x="323.8" y="700.0" type="line"/>
      <point x="311.79999999999995" y="555.6" type="line"/>
      <point x="272.0" y="555.6" type="line"/>
      <point x="284.0" y="700.0" type="line"/>
      <point x="121.99999999999999" y="700.0" type="line"/>
      <point x="110.0" y="555.6" type="line"/>
      <point x="49.800000000000004" y="555.6" type="line"/>
    </contour>
    <contour>
      <point x="258.2" y="394.79999999999995" type="line"/>
      <point x="298.0" y="394.79999999999995" type="line"/>
      <point x="289.0" y="297.4" type="line"/>
      <point x="249.2" y="297.4" type="line"/>
    </contour>
  </outline>
</glyph>
<glyph name="dollar" format="2">
  <advance width="546.0"/>
  <unicode hex="0024"/>
  <outline>
    <contour>
      <point x="238.8" y="-10.0" type="curve" smooth="yes"/>
      <point x="386.8" y="-12.2"/>
      <point x="523.0" y="40.6"/>
      <point x="523.0" y="211.8" type="curve" smooth="yes"/>
      <point x="523.0" y="339.2"/>
      <point x="445.40000000000003" y="392.59999999999997"/>
      <point x="352.4" y="426.2" type="curve" smooth="yes"/>
      <point x="277.4" y="450.6"/>
      <point x="238.4" y="464.2"/>
      <point x="238.4" y="499.2" type="curve" smooth="yes"/>
      <point x="238.4" y="523.5999999999999"/>
      <point x="256.0" y="531.6"/>
      <point x="305.8" y="531.6" type="curve" smooth="yes"/>
      <point x="359.6" y="531.6"/>
      <point x="418.2" y="522.4"/>
      <point x="463.6" y="506.0" type="curve"/>
      <point x="500.00000000000006" y="673.2" type="line"/>
      <point x="451.0" y="693.8"/>
      <point x="369.6" y="710.0"/>
      <point x="285.40000000000003" y="710.0" type="curve" smooth="yes"/>
      <point x="131.8" y="710.0"/>
      <point x="34.8" y="633.2"/>
      <point x="34.8" y="493.0" type="curve" smooth="yes"/>
      <point x="34.8" y="379.0"/>
      <point x="97.00000000000001" y="319.20000000000005"/>
      <point x="172.2" y="283.59999999999997" type="curve" smooth="yes"/>
      <point x="262.6" y="247.20000000000002"/>
      <point x="321.00000000000006" y="235.0"/>
      <point x="321.00000000000006" y="200.0" type="curve" smooth="yes"/>
      <point x="321.00000000000006" y="175.2"/>
      <point x="299.00000000000006" y="162.39999999999998"/>
      <point x="250.8" y="162.39999999999998" type="curve" smooth="yes"/>
      <point x="196.79999999999998" y="162.39999999999998"/>
      <point x="131.6" y="175.4"/>
      <point x="59.6" y="200.79999999999998" type="curve"/>
      <point x="23.200000000000003" y="35.8" type="line"/>
      <point x="80.6" y="10.200000000000001"/>
      <point x="163.4" y="-9.0"/>
    </contour>
    <contour>
      <point x="189.2" y="-105.0" type="line"/>
      <point x="358.2" y="-105.0" type="line"/>
      <point x="358.2" y="21.6" type="line"/>
      <point x="189.2" y="11.0" type="line"/>
    </contour>
    <contour>
      <point x="189.2" y="676.6" type="line"/>
      <point x="358.2" y="689.6" type="line"/>
      <point x="358.2" y="803.4" type="line"/>
      <point x="189.2" y="803.4" type="line"/>
    </contour>
  </outline>
</glyph>
<glyph name="ampersand" format="2">
  <advance width="640.8000000000001"/>
  <unicode hex="0026"/>
  <outline>
    <contour>
      <point x="420.4" y="0.0" type="line"/>
      <point x="641.5999999999999" y="0.0" type="line"/>
      <point x="323.0" y="436.6" type="line" smooth="yes"/>
      <point x="296.2" y="470.8"/>
      <point x="285.6" y="491.59999999999997"/>
      <point x="285.6" y="508.20000000000005" type="curve" smooth="yes"/>
      <point x="285.6" y="528.8"/>
      <point x="295.0" y="538.2"/>
      <point x="314.0" y="538.2" type="curve" smooth="yes"/>
      <point x="332.8" y="538.2"/>
      <point x="340.8" y="526.6"/>
      <point x="340.8" y="503.6" type="curve" smooth="yes"/>
      <point x="340.8" y="488.4"/>
      <point x="339.2" y="478.6"/>
      <point x="328.6" y="469.40000000000003" type="curve"/>
      <point x="399.0" y="370.6" type="line"/>
      <point x="474.40000000000003" y="399.2"/>
      <point x="514.4" y="454.4"/>
      <point x="514.4" y="539.5999999999999" type="curve" smooth="yes"/>
      <point x="514.4" y="655.1999999999999"/>
      <point x="440.0" y="710.0"/>
      <point x="309.79999999999995" y="710.0" type="curve" smooth="yes"/>
      <point x="154.8" y="710.0"/>
      <point x="84.39999999999999" y="634.2"/>
      <point x="84.39999999999999" y="514.6" type="curve" smooth="yes"/>
      <point x="84.39999999999999" y="455.2"/>
      <point x="108.39999999999999" y="399.8"/>
      <point x="148.79999999999998" y="347.6" type="curve" smooth="yes"/>
    </contour>
    <contour>
      <point x="247.8" y="-10.0" type="curve" smooth="yes"/>
      <point x="325.59999999999997" y="-10.0"/>
      <point x="379.0" y="13.4"/>
      <point x="418.59999999999997" y="53.599999999999994" type="curve"/>
      <point x="332.4" y="169.2" type="line"/>
      <point x="322.8" y="157.8"/>
      <point x="308.0" y="148.4"/>
      <point x="276.0" y="148.4" type="curve" smooth="yes"/>
      <point x="232.2" y="148.4"/>
      <point x="200.0" y="176.2"/>
      <point x="200.0" y="214.60000000000002" type="curve" smooth="yes"/>
      <point x="200.0" y="243.79999999999998"/>
      <point x="212.4" y="259.6"/>
      <point x="234.60000000000002" y="272.40000000000003" type="curve"/>
      <point x="147.79999999999998" y="397.2" type="line"/>
      <point x="52.0" y="350.4"/>
      <point x="14.4" y="280.20000000000005"/>
      <point x="14.4" y="194.20000000000002" type="curve" smooth="yes"/>
      <point x="14.4" y="67.8"/>
      <point x="104.2" y="-10.0"/>
    </contour>
    <contour>
      <point x="526.4000000000001" y="129.0" type="line"/>
      <point x="566.2" y="182.2"/>
      <point x="587.8000000000001" y="238.79999999999998"/>
      <point x="587.8000000000001" y="300.79999999999995" type="curve" smooth="yes"/>
      <point x="587.8000000000001" y="321.8"/>
      <point x="586.8" y="339.59999999999997"/>
      <point x="585.0" y="358.0" type="curve"/>
      <point x="429.6" y="358.0" type="line"/>
      <point x="430.4" y="348.0"/>
      <point x="431.0" y="336.4"/>
      <point x="430.2" y="323.59999999999997" type="curve" smooth="yes"/>
      <point x="428.59999999999997" y="307.59999999999997"/>
      <point x="424.0" y="296.59999999999997"/>
      <point x="413.8" y="284.59999999999997" type="curve"/>
    </contour>
  </outline>
</glyph>
<glyph name="quotesingle" format="2">
  <advance width="219.6"/>
  <unicode hex="0027"/>
  <outline>
    <contour>
      <point x="25.6" y="427.0" type="line"/>
      <point x="191.6" y="427.0" type="line"/>
      <point x="200.79999999999998" y="700.0" type="line"/>
      <point x="18.8" y="700.0" type="line"/>
    </contour>
  </outline>
</glyph>
<glyph name="parenleft" format="2">
  <advance width="291.2"/>
  <unicode hex="0028"/>
  <outline>
    <contour>
      <point x="18.799999999999997" y="265.0" type="curve" smooth="yes"/>
      <point x="18.799999999999997" y="-10.0"/>
      <point x="90.6" y="-197.0"/>
      <point x="277.2" y="-220.0" type="curve"/>
      <point x="277.2" y="-60.0" type="line"/>
      <point x="205.4" y="-25.8"/>
      <point x="179.20000000000002" y="33.4"/>
      <point x="179.20000000000002" y="265.0" type="curve" smooth="yes"/>
      <point x="179.20000000000002" y="496.6"/>
      <point x="205.4" y="555.8000000000001"/>
      <point x="277.2" y="590.0" type="curve"/>
      <point x="277.2" y="750.0" type="line"/>
      <point x="90.6" y="727.0"/>
      <point x="18.799999999999997" y="540.0"/>
    </contour>
  </outline>
</glyph>
<glyph name="parenright" format="2">
  <advance width="291.2"/>
  <unicode hex="0029"/>
  <outline>
    <contour>
      <point x="14.0" y="-60.0" type="curve"/>
      <point x="14.0" y="-220.0" type="line"/>
      <point x="200.6" y="-197.0"/>
      <point x="272.4" y="-10.0"/>
      <point x="272.4" y="265.0" type="curve" smooth="yes"/>
      <point x="272.4" y="540.0"/>
      <point x="200.6" y="727.0"/>
      <point x="14.0" y="750.0" type="curve"/>
      <point x="14.0" y="590.0" type="line"/>
      <point x="85.8" y="555.8000000000001"/>
      <point x="112.0" y="496.6"/>
      <point x="112.0" y="265.0" type="curve" smooth="yes"/>
      <point x="112.0" y="33.4"/>
      <point x="85.8" y="-25.8"/>
    </contour>
  </outline>
</glyph>
<glyph name="asterisk" format="2">
  <advance width="372.0"/>
  <unicode hex="002A"/>
  <outline>
    <contour>
      <point x="119.6" y="398.8" type="line"/>
      <point x="186.0" y="469.2" type="line"/>
      <point x="252.39999999999998" y="398.79999999999995" type="line"/>
      <point x="324.2" y="448.8" type="line"/>
      <point x="278.2" y="533.8" type="line"/>
      <point x="364.4" y="576.2" type="line"/>
      <point x="337.20000000000005" y="659.4" type="line"/>
      <point x="242.4" y="642.5999999999999" type="line"/>
      <point x="230.60000000000002" y="738.0" type="line"/>
      <point x="141.4" y="738.0" type="line"/>
      <point x="129.6" y="642.5999999999999" type="line"/>
      <point x="34.800000000000004" y="659.4" type="line"/>
      <point x="7.6" y="576.2" type="line"/>
      <point x="93.80000000000001" y="533.8" type="line"/>
      <point x="47.800000000000004" y="448.8" type="line"/>
    </contour>
  </outline>
</glyph>
<glyph name="plus" format="2">
  <advance width="492.4"/>
  <unicode hex="002B"/>
  <outline>
    <contour>
      <point x="157.6" y="147.8" type="line"/>
      <point x="334.6" y="147.8" type="line"/>
      <point x="334.6" y="244.0" type="line"/>
      <point x="446.8" y="244.0" type="line"/>
      <point x="446.8" y="413.0" type="line"/>
      <point x="334.6" y="413.0" type="line"/>
      <point x="334.6" y="509.0" type="line"/>
      <point x="157.6" y="509.0" type="line"/>
      <point x="157.6" y="413.0" type="line"/>
      <point x="45.599999999999994" y="413.0" type="line"/>
      <point x="45.599999999999994" y="244.0" type="line"/>
      <point x="157.6" y="244.0" type="line"/>
    </contour>
  </outline>
</glyph>
<glyph name="comma" format="2">
  <advance width="238.0"/>
  <unicode hex="002C"/>
  <outline>
    <contour>
      <point x="24.2" y="111.0" type="line"/>
      <point x="29.4" y="73.8"/>
      <point x="29.599999999999998" y="42.0"/>
      <point x="29.599999999999998" y="27.200000000000003" type="curve" smooth="yes"/>
      <point x="29.599999999999998" y="-25.4"/>
      <point x="12.2" y="-86.8"/>
      <point x="-19.4" y="-148.2" type="curve"/>
      <point x="131.79999999999998" y="-181.6" type="line"/>
      <point x="189.8" y="-103.8"/>
      <point x="217.20000000000002" y="-45.6"/>
      <point x="217.20000000000002" y="29.8" type="curve" smooth="yes"/>
      <point x="217.20000000000002" y="65.0"/>
      <point x="211.6" y="91.0"/>
      <point x="206.0" y="112.0" type="curve"/>
    </contour>
  </outline>
</glyph>
<glyph name="hyphen" format="2">
  <advance width="349.59999999999997"/>
  <unicode hex="002D"/>
  <outline>
    <contour>
      <point x="36.4" y="234.0" type="line"/>
      <point x="313.2" y="234.0" type="line"/>
      <point x="313.2" y="414.8" type="line"/>
      <point x="36.4" y="414.8" type="line"/>
    </contour>
  </outline>
</glyph>
<glyph name="period" format="2">
  <advance width="241.2"/>
  <unicode hex="002E"/>
  <outline>
    <contour>
      <point x="13.600000000000001" y="108.6" type="curve" smooth="yes"/>
      <point x="13.600000000000001" y="31.2"/>
      <point x="45.0" y="-7.8"/>
      <point x="120.60000000000001" y="-7.8" type="curve" smooth="yes"/>
      <point x="196.2" y="-7.8"/>
      <point x="227.60000000000002" y="31.2"/>
      <point x="227.60000000000002" y="108.6" type="curve" smooth="yes"/>
      <point x="227.60000000000002" y="187.0"/>
      <point x="196.2" y="226.0"/>
      <point x="120.60000000000001" y="226.0" type="curve" smooth="yes"/>
      <point x="45.0" y="226.0"/>
      <point x="13.600000000000001" y="187.0"/>
    </contour>
  </outline>
</glyph>
<glyph name="slash" format="2">
  <advance width="441.0"/>
  <unicode hex="002F"/>
  <outline>
    <contour>
      <point x="-6.0" y="-210.0" type="line"/>
      <point x="158.2" y="-210.0" type="line"/>
      <point x="447.0" y="740.0" type="line"/>
      <point x="282.0" y="740.0" type="line"/>
    </contour>
  </outline>
</glyph>
<glyph name="zero" format="2">
  <advance width="546.0"/>
  <unicode hex="0030"/>
  <outline>
    <contour>
      <point x="20.200000000000003" y="350.0" type="curve" smooth="yes"/>
      <point x="20.200000000000003" y="81.0"/>
      <point x="104.4" y="-10.0"/>
      <point x="273.0" y="-10.0" type="curve" smooth="yes"/>
      <point x="439.2" y="-10.0"/>
      <point x="525.8000000000001" y="84.2"/>
      <point x="525.8000000000001" y="350.0" type="curve" smooth="yes"/>
      <point x="525.8000000000001" y="616.6"/>
      <point x="451.2" y="710.0"/>
      <point x="273.0" y="710.0" type="curve" smooth="yes"/>
      <point x="102.0" y="710.0"/>
      <point x="20.200000000000003" y="623.0"/>
    </contour>
    <contour>
      <point x="224.8" y="339.6" type="curve" smooth="yes"/>
      <point x="224.8" y="532.6"/>
      <point x="243.2" y="540.4"/>
      <point x="273.0" y="540.4" type="curve" smooth="yes"/>
      <point x="302.8" y="540.4"/>
      <point x="321.20000000000005" y="533.4"/>
      <point x="321.20000000000005" y="339.6" type="curve" smooth="yes"/>
      <point x="321.20000000000005" y="172.20000000000002"/>
      <point x="305.20000000000005" y="159.6"/>
      <point x="273.0" y="159.6" type="curve" smooth="yes"/>
      <point x="240.79999999999998" y="159.6"/>
      <point x="224.8" y="171.4"/>
    </contour>
  </outline>
</glyph>
<glyph name="one" format="2">
  <advance width="546.0"/>
  <unicode hex="0031"/>
  <outline>
    <contour>
      <point x="82.4" y="0.0" type="line"/>
      <point x="501.20000000000005" y="0.0" type="line"/>
      <point x="501.20000000000005" y="170.0" type="line"/>
      <point x="401.20000000000005" y="170.0" type="line"/>
      <point x="401.20000000000005" y="700.0" type="line"/>
      <point x="299.6" y="700.0" type="line"/>
      <point x="63.6" y="629.1999999999999" type="line"/>
      <point x="99.4" y="440.2" type="line"/>
      <point x="198.8" y="466.6" type="line"/>
      <point x="198.8" y="170.0" type="line"/>
      <point x="82.4" y="170.0" type="line"/>
    </contour>
  </outline>
</glyph>
<glyph name="two" format="2">
  <advance width="546.2"/>
  <unicode hex="0032"/>
  <outline>
    <contour>
      <point x="51.1" y="147.6" type="curve"/>
      <point x="51.3" y="0.0" type="line"/>
      <point x="501.3" y="0.0" type="line"/>
      <point x="501.3" y="170.0" type="line"/>
      <point x="317.2" y="170.0" type="line"/>
      <point x="435.9" y="302.0"/>
      <point x="474.6" y="371.4"/>
      <point x="474.6" y="493.4" type="curve" smooth="yes"/>
      <point x="474.6" y="629.8"/>
      <point x="395.0" y="710.0"/>
      <point x="255.1" y="710.0" type="curve" smooth="yes"/>
      <point x="173.8" y="710.0"/>
      <point x="93.9" y="686.3"/>
      <point x="30.7" y="643.9" type="curve"/>
      <point x="96.1" y="458.3" type="line"/>
      <point x="136.4" y="479.5"/>
      <point x="170.1" y="489.0"/>
      <point x="203.9" y="489.0" type="curve" smooth="yes"/>
      <point x="245.0" y="489.0"/>
      <point x="268.2" y="465.4"/>
      <point x="268.2" y="424.4" type="curve" smooth="yes"/>
      <point x="268.2" y="363.1"/>
      <point x="185.6" y="257.7"/>
    </contour>
  </outline>
</glyph>
<glyph name="three" format="2">
  <advance width="546.0"/>
  <unicode hex="0033"/>
  <outline>
    <contour>
      <point x="24.5" y="39.0" type="line"/>
      <point x="95.5" y="3.0"/>
      <point x="154.5" y="-10.0"/>
      <point x="240.0" y="-10.0" type="curve" smooth="yes"/>
      <point x="409.5" y="-10.0"/>
      <point x="501.0" y="70.0"/>
      <point x="501.0" y="206.5" type="curve" smooth="yes"/>
      <point x="501.0" y="280.5"/>
      <point x="465.0" y="340.0"/>
      <point x="398.0" y="372.5" type="curve"/>
      <point x="456.0" y="410.0"/>
      <point x="490.5" y="469.0"/>
      <point x="490.5" y="531.5" type="curve" smooth="yes"/>
      <point x="490.5" y="642.5"/>
      <point x="408.5" y="710.0"/>
      <point x="248.5" y="710.0" type="curve" smooth="yes"/>
      <point x="161.0" y="710.0"/>
      <point x="78.0" y="690.5"/>
      <point x="25.0" y="654.5" type="curve"/>
      <point x="79.0" y="494.0" type="line"/>
      <point x="112.0" y="506.0"/>
      <point x="160.5" y="514.5"/>
      <point x="202.5" y="514.5" type="curve" smooth="yes"/>
      <point x="265.0" y="514.5"/>
      <point x="291.5" y="499.5"/>
      <point x="291.5" y="471.5" type="curve" smooth="yes"/>
      <point x="291.5" y="444.0"/>
      <point x="268.0" y="428.5"/>
      <point x="210.0" y="428.5" type="curve" smooth="yes"/>
      <point x="137.0" y="428.5" type="line"/>
      <point x="137.0" y="272.0" type="line"/>
      <point x="217.5" y="272.0" type="line" smooth="yes"/>
      <point x="274.5" y="272.0"/>
      <point x="299.0" y="254.5"/>
      <point x="299.0" y="222.5" type="curve" smooth="yes"/>
      <point x="299.0" y="191.0"/>
      <point x="275.0" y="175.0"/>
      <point x="215.5" y="175.0" type="curve" smooth="yes"/>
      <point x="170.5" y="175.0"/>
      <point x="124.5" y="183.0"/>
      <point x="84.0" y="200.0" type="curve"/>
    </contour>
  </outline>
</glyph>
<glyph name="four" format="2">
  <advance width="546.0"/>
  <unicode hex="0034"/>
  <outline>
    <contour>
      <point x="18.5" y="78.5" type="line"/>
      <point x="251.0" y="78.5" type="line"/>
      <point x="251.0" y="0.0" type="line"/>
      <point x="458.0" y="0.0" type="line"/>
      <point x="458.0" y="78.5" type="line"/>
      <point x="525.0" y="78.5" type="line"/>
      <point x="525.0" y="242.0" type="line"/>
      <point x="458.0" y="242.0" type="line"/>
      <point x="458.0" y="700.0" type="line"/>
      <point x="250.0" y="700.0" type="line"/>
      <point x="18.5" y="244.0" type="line"/>
    </contour>
    <contour>
      <point x="151.0" y="242.0" type="line"/>
      <point x="259.0" y="464.5" type="line"/>
      <point x="259.0" y="242.0" type="line"/>
    </contour>
  </outline>
</glyph>
<glyph name="five" format="2">
  <advance width="546.0"/>
  <unicode hex="0035"/>
  <outline>
    <contour>
      <point x="34.4" y="31.599999999999998" type="line"/>
      <point x="96.4" y="2.5999999999999996"/>
      <point x="158.0" y="-10.0"/>
      <point x="236.2" y="-10.0" type="curve" smooth="yes"/>
      <point x="400.59999999999997" y="-10.0"/>
      <point x="514.8000000000001" y="74.0"/>
      <point x="514.8000000000001" y="238.0" type="curve" smooth="yes"/>
      <point x="514.8000000000001" y="374.59999999999997"/>
      <point x="435.4" y="430.0"/>
      <point x="304.2" y="435.6" type="curve" smooth="yes"/>
      <point x="262.0" y="437.2" type="line"/>
      <point x="270.0" y="524.4" type="line"/>
      <point x="490.19999999999993" y="524.4" type="line"/>
      <point x="490.19999999999993" y="700.0" type="line"/>
      <point x="116.2" y="700.0" type="line"/>
      <point x="71.0" y="293.8" type="line"/>
      <point x="79.6" y="282.0" type="line"/>
      <point x="200.40000000000003" y="282.0" type="line" smooth="yes"/>
      <point x="288.40000000000003" y="282.0"/>
      <point x="312.40000000000003" y="265.2"/>
      <point x="312.40000000000003" y="229.0" type="curve" smooth="yes"/>
      <point x="312.40000000000003" y="198.60000000000002"/>
      <point x="288.4" y="176.2"/>
      <point x="213.79999999999998" y="176.2" type="curve" smooth="yes"/>
      <point x="157.6" y="176.2"/>
      <point x="106.0" y="185.6"/>
      <point x="71.2" y="198.4" type="curve"/>
    </contour>
  </outline>
</glyph>
<glyph name="six" format="2">
  <advance width="546.0"/>
  <unicode hex="0036"/>
  <outline>
    <contour>
      <point x="278.5" y="-10.0" type="curve" smooth="yes"/>
      <point x="446.99999999999994" y="-10.0"/>
      <point x="530.0" y="73.0"/>
      <point x="530.0" y="245.50000000000003" type="curve" smooth="yes"/>
      <point x="530.0" y="384.0"/>
      <point x="466.0" y="463.0"/>
      <point x="347.99999999999994" y="463.0" type="curve" smooth="yes"/>
      <point x="292.0" y="463.0"/>
      <point x="251.0" y="452.99999999999994"/>
      <point x="212.0" y="427.0" type="curve"/>
      <point x="207.0" y="281.00000000000006" type="line"/>
      <point x="234.5" y="299.00000000000006"/>
      <point x="255.0" y="308.00000000000006"/>
      <point x="276.50000000000006" y="308.00000000000006" type="curve" smooth="yes"/>
      <point x="311.0" y="308.00000000000006"/>
      <point x="331.5" y="284.5"/>
      <point x="331.5" y="237.0" type="curve" smooth="yes"/>
      <point x="331.5" y="176.99999999999997"/>
      <point x="314.0" y="156.5"/>
      <point x="286.5" y="156.5" type="curve" smooth="yes"/>
      <point x="248.0" y="156.5"/>
      <point x="229.49999999999997" y="176.0"/>
      <point x="229.49999999999997" y="359.0" type="curve" smooth="yes"/>
      <point x="229.49999999999997" y="470.0"/>
      <point x="242.0" y="529.0"/>
      <point x="357.0" y="529.0" type="curve" smooth="yes"/>
      <point x="395.5" y="529.0"/>
      <point x="431.5" y="520.0"/>
      <point x="468.00000000000006" y="505.0" type="curve"/>
      <point x="520.0" y="670.0000000000001" type="line"/>
      <point x="479.5" y="692.4999999999999"/>
      <point x="399.5" y="710.0"/>
      <point x="323.5" y="710.0" type="curve" smooth="yes"/>
      <point x="127.0" y="710.0"/>
      <point x="23.5" y="574.5"/>
      <point x="23.5" y="325.50000000000006" type="curve" smooth="yes"/>
      <point x="23.5" y="97.50000000000001"/>
      <point x="106.5" y="-10.0"/>
    </contour>
  </outline>
</glyph>
<glyph name="seven" format="2">
  <advance width="546.0"/>
  <unicode hex="0037"/>
  <outline>
    <contour>
      <point x="115.8" y="0.0" type="curve"/>
      <point x="331.20000000000005" y="0.0" type="line"/>
      <point x="332.79999999999995" y="115.0"/>
      <point x="355.4" y="196.0"/>
      <point x="414.20000000000005" y="336.40000000000003" type="curve" smooth="yes"/>
      <point x="509.8" y="562.8" type="line"/>
      <point x="509.8" y="700.0" type="line"/>
      <point x="42.0" y="700.0" type="line"/>
      <point x="42.0" y="526.0" type="line"/>
      <point x="288.59999999999997" y="526.0" type="line"/>
      <point x="198.8" y="352.8" type="line" smooth="yes"/>
      <point x="138.6" y="236.4"/>
      <point x="115.8" y="132.4"/>
    </contour>
  </outline>
</glyph>
<glyph name="eight" format="2">
  <advance width="546.2"/>
  <unicode hex="0038"/>
  <outline>
    <contour>
      <point x="271.7" y="419.0" type="curve"/>
      <point x="386.0" y="355.6" type="line"/>
      <point x="466.1" y="404.5"/>
      <point x="503.8" y="465.1"/>
      <point x="503.8" y="529.9" type="curve" smooth="yes"/>
      <point x="503.8" y="644.2"/>
      <point x="420.1" y="710.0"/>
      <point x="276.8" y="710.0" type="curve" smooth="yes"/>
      <point x="123.2" y="710.0"/>
      <point x="37.4" y="638.7"/>
      <point x="37.4" y="507.8" type="curve" smooth="yes"/>
      <point x="37.4" y="272.7"/>
      <point x="324.2" y="295.0"/>
      <point x="324.2" y="184.3" type="curve" smooth="yes"/>
      <point x="324.2" y="162.0"/>
      <point x="310.7" y="150.8"/>
      <point x="280.9" y="150.8" type="curve" smooth="yes"/>
      <point x="239.2" y="150.8"/>
      <point x="215.6" y="168.9"/>
      <point x="215.6" y="202.5" type="curve" smooth="yes"/>
      <point x="215.6" y="239.2"/>
      <point x="228.8" y="255.2"/>
      <point x="260.0" y="282.1" type="curve"/>
      <point x="143.4" y="361.6" type="line"/>
      <point x="58.4" y="326.1"/>
      <point x="19.4" y="263.3"/>
      <point x="19.4" y="188.9" type="curve" smooth="yes"/>
      <point x="19.4" y="62.0"/>
      <point x="109.5" y="-10.0"/>
      <point x="273.4" y="-10.0" type="curve" smooth="yes"/>
      <point x="443.7" y="-10.0"/>
      <point x="527.0" y="59.4"/>
      <point x="527.0" y="195.7" type="curve" smooth="yes"/>
      <point x="527.0" y="435.9"/>
      <point x="227.4" y="405.3"/>
      <point x="227.4" y="511.2" type="curve" smooth="yes"/>
      <point x="227.4" y="530.4"/>
      <point x="239.5" y="546.4"/>
      <point x="272.2" y="546.4" type="curve" smooth="yes"/>
      <point x="307.5" y="546.4"/>
      <point x="322.0" y="531.5"/>
      <point x="322.0" y="497.9" type="curve" smooth="yes"/>
      <point x="322.0" y="461.2"/>
      <point x="307.6" y="443.0"/>
    </contour>
  </outline>
</glyph>
<glyph name="nine" format="2">
  <advance width="546.0"/>
  <unicode hex="0039"/>
  <outline>
    <contour>
      <point x="229.99999999999997" y="-10.0" type="curve" smooth="yes"/>
      <point x="426.5" y="-10.0"/>
      <point x="529.5" y="123.99999999999999"/>
      <point x="529.5" y="371.5" type="curve" smooth="yes"/>
      <point x="529.5" y="601.0"/>
      <point x="448.0" y="710.0"/>
      <point x="275.5" y="710.0" type="curve" smooth="yes"/>
      <point x="107.0" y="710.0"/>
      <point x="23.000000000000004" y="626.0"/>
      <point x="23.000000000000004" y="453.49999999999994" type="curve" smooth="yes"/>
      <point x="23.000000000000004" y="314.5"/>
      <point x="89.49999999999999" y="236.99999999999997"/>
      <point x="206.49999999999997" y="236.99999999999997" type="curve" smooth="yes"/>
      <point x="259.0" y="236.99999999999997"/>
      <point x="305.0" y="248.5"/>
      <point x="341.0" y="273.0" type="curve"/>
      <point x="346.0" y="419.0" type="line"/>
      <point x="323.0" y="403.00000000000006"/>
      <point x="300.0" y="392.49999999999994"/>
      <point x="272.5" y="392.49999999999994" type="curve" smooth="yes"/>
      <point x="243.0" y="392.49999999999994"/>
      <point x="222.0" y="415.5"/>
      <point x="222.0" y="463.0" type="curve" smooth="yes"/>
      <point x="222.0" y="520.0"/>
      <point x="237.0" y="543.5"/>
      <point x="267.5" y="543.5" type="curve" smooth="yes"/>
      <point x="312.0" y="543.5"/>
      <point x="323.99999999999994" y="511.0"/>
      <point x="323.99999999999994" y="341.49999999999994" type="curve" smooth="yes"/>
      <point x="323.99999999999994" y="230.5"/>
      <point x="310.5" y="169.5"/>
      <point x="195.50000000000003" y="169.5" type="curve" smooth="yes"/>
      <point x="157.0" y="169.5"/>
      <point x="121.0" y="178.5"/>
      <point x="85.00000000000001" y="193.5" type="curve"/>
      <point x="33.0" y="30.0" type="line"/>
      <point x="73.5" y="7.499999999999999"/>
      <point x="153.99999999999997" y="-10.0"/>
    </contour>
  </outline>
</glyph>
<glyph name="less" format="2">
  <advance width="492.4"/>
  <unicode hex="003C"/>
  <outline>
    <contour>
      <point x="463.59999999999997" y="90.6" type="line"/>
      <point x="463.59999999999997" y="246.79999999999998" type="line"/>
      <point x="209.2" y="313.2" type="line"/>
      <point x="463.59999999999997" y="380.2" type="line"/>
      <point x="463.59999999999997" y="536.0" type="line"/>
      <point x="28.8" y="396.6" type="line"/>
      <point x="28.8" y="229.20000000000002" type="line"/>
    </contour>
  </outline>
</glyph>
<glyph name="equal" format="2">
  <advance width="476.4"/>
  <unicode hex="003D"/>
  <outline>
    <contour>
      <point x="430.8" y="283.8" type="line"/>
      <point x="45.599999999999994" y="283.8" type="line"/>
      <point x="45.599999999999994" y="114.8" type="line"/>
      <point x="430.8" y="114.8" type="line"/>
    </contour>
    <contour>
      <point x="430.8" y="512.6" type="line"/>
      <point x="45.599999999999994" y="512.6" type="line"/>
      <point x="45.599999999999994" y="343.6" type="line"/>
      <point x="430.8" y="343.6" type="line"/>
    </contour>
  </outline>
</glyph>
<glyph name="greater" format="2">
  <advance width="492.4"/>
  <unicode hex="003E"/>
  <outline>
    <contour>
      <point x="463.59999999999997" y="229.2" type="line"/>
      <point x="463.59999999999997" y="396.6" type="line"/>
      <point x="28.8" y="536.0" type="line"/>
      <point x="28.8" y="380.2" type="line"/>
      <point x="283.2" y="313.2" type="line"/>
      <point x="28.8" y="246.8" type="line"/>
      <point x="28.8" y="90.6" type="line"/>
    </contour>
  </outline>
</glyph>
<glyph name="question" format="2">
  <advance width="440.40000000000003"/>
  <unicode hex="003F"/>
  <outline>
    <contour>
      <point x="119.6" y="259.0" type="line"/>
      <point x="292.2" y="259.0" type="line"/>
      <point x="292.6" y="326.2" type="line"/>
      <point x="393.4" y="365.0"/>
      <point x="430.2" y="446.4"/>
      <point x="430.2" y="542.4" type="curve" smooth="yes"/>
      <point x="430.2" y="679.0"/>
      <point x="340.59999999999997" y="749.2"/>
      <point x="199.6" y="749.2" type="curve" smooth="yes"/>
      <point x="131.0" y="749.2"/>
      <point x="56.4" y="725.8"/>
      <point x="9.2" y="692.8000000000001" type="curve"/>
      <point x="73.0" y="521.0" type="line"/>
      <point x="112.4" y="544.5999999999999"/>
      <point x="139.2" y="550.4"/>
      <point x="166.2" y="550.4" type="curve" smooth="yes"/>
      <point x="204.4" y="550.4"/>
      <point x="222.2" y="533.0"/>
      <point x="222.2" y="509.4" type="curve" smooth="yes"/>
      <point x="222.2" y="482.59999999999997"/>
      <point x="211.0" y="448.79999999999995"/>
      <point x="115.0" y="415.0" type="curve"/>
    </contour>
    <contour>
      <point x="99.0" y="106.2" type="curve" smooth="yes"/>
      <point x="99.0" y="28.8"/>
      <point x="129.60000000000002" y="-10.2"/>
      <point x="206.0" y="-10.2" type="curve" smooth="yes"/>
      <point x="280.8" y="-10.2"/>
      <point x="313.0" y="28.8"/>
      <point x="313.0" y="106.2" type="curve" smooth="yes"/>
      <point x="313.0" y="184.6"/>
      <point x="280.8" y="223.6"/>
      <point x="206.0" y="223.6" type="curve" smooth="yes"/>
      <point x="129.6" y="223.6"/>
      <point x="99.0" y="184.6"/>
    </contour>
  </outline>
</glyph>
<glyph name="at" format="2">
  <advance width="873.0"/>
  <unicode hex="0040"/>
  <outline>
    <contour>
      <point x="432.0" y="-124.8" type="curve" smooth="yes"/>
      <point x="490.4" y="-124.8"/>
      <point x="576.4" y="-111.60000000000001"/>
      <point x="626.4000000000001" y="-90.39999999999999" type="curve"/>
      <point x="603.4" y="-12.8" type="line"/>
      <point x="550.1999999999999" y="-27.799999999999997"/>
      <point x="490.40000000000003" y="-36.0"/>
      <point x="435.40000000000003" y="-36.0" type="curve" smooth="yes"/>
      <point x="264.40000000000003" y="-36.0"/>
      <point x="125.2" y="37.8"/>
      <point x="125.2" y="261.0" type="curve" smooth="yes"/>
      <point x="125.2" y="474.8"/>
      <point x="244.0" y="626.0"/>
      <point x="457.4" y="626.0" type="curve" smooth="yes"/>
      <point x="667.0" y="626.0"/>
      <point x="756.6" y="524.2"/>
      <point x="756.6" y="330.0" type="curve" smooth="yes"/>
      <point x="756.6" y="222.0"/>
      <point x="712.5999999999999" y="153.6"/>
      <point x="674.1999999999999" y="154.6" type="curve" smooth="yes"/>
      <point x="642.1999999999999" y="154.6"/>
      <point x="623.4" y="176.79999999999998"/>
      <point x="629.0" y="240.79999999999998" type="curve" smooth="yes"/>
      <point x="653.4" y="512.5999999999999" type="line"/>
      <point x="591.4" y="538.4"/>
      <point x="531.8" y="551.6"/>
      <point x="457.8" y="551.6" type="curve" smooth="yes"/>
      <point x="295.6" y="551.6"/>
      <point x="215.0" y="424.2"/>
      <point x="215.0" y="249.4" type="curve" smooth="yes"/>
      <point x="215.0" y="102.8"/>
      <point x="277.2" y="46.2"/>
      <point x="354.4" y="46.2" type="curve" smooth="yes"/>
      <point x="411.6" y="46.2"/>
      <point x="456.59999999999997" y="72.6"/>
      <point x="495.80000000000007" y="131.8" type="curve"/>
      <point x="515.0" y="80.8"/>
      <point x="555.8" y="36.400000000000006"/>
      <point x="639.0" y="36.400000000000006" type="curve" smooth="yes"/>
      <point x="773.2" y="34.400000000000006"/>
      <point x="851.6" y="166.2"/>
      <point x="851.6" y="344.6" type="curve" smooth="yes"/>
      <point x="851.6" y="590.6"/>
      <point x="689.4" y="710.0"/>
      <point x="473.99999999999994" y="710.0" type="curve" smooth="yes"/>
      <point x="182.2" y="710.0"/>
      <point x="23.0" y="530.0"/>
      <point x="23.0" y="271.8" type="curve" smooth="yes"/>
      <point x="23.0" y="-1.6000000000000014"/>
      <point x="191.6" y="-124.8"/>
    </contour>
    <contour>
      <point x="424.4" y="209.4" type="curve" smooth="yes"/>
      <point x="410.0" y="209.4"/>
      <point x="397.0" y="222.4"/>
      <point x="397.0" y="246.4" type="curve" smooth="yes"/>
      <point x="397.0" y="334.40000000000003"/>
      <point x="423.6" y="429.2"/>
      <point x="455.99999999999994" y="429.2" type="curve" smooth="yes"/>
      <point x="466.6" y="429.2"/>
      <point x="475.6" y="425.8"/>
      <point x="484.20000000000005" y="421.79999999999995" type="curve"/>
      <point x="464.6" y="231.2" type="line" smooth="yes"/>
      <point x="454.79999999999995" y="220.0"/>
      <point x="442.4" y="209.4"/>
    </contour>
  </outline>
</glyph>
<glyph name="A" format="2">
  <advance width="577.2"/>
  <unicode hex="0041"/>
  <anchor x="574.6" y="0.0" name="ogonek"/>
  <anchor x="284.40000000000003" y="0.0" name="bottom"/>
  <anchor x="287.8" y="700.0" name="top"/>
  <outline>
    <contour>
      <point x="2.6" y="0.0" type="line"/>
      <point x="212.4" y="0.0" type="line"/>
      <point x="225.79999999999998" y="91.0" type="line"/>
      <point x="343.0" y="91.0" type="line"/>
      <point x="358.0" y="0.0" type="line"/>
      <point x="574.6" y="0.0" type="line"/>
      <point x="422.0" y="700.0" type="line"/>
      <point x="151.2" y="700.0" type="line"/>
    </contour>
    <contour>
      <point x="254.0" y="281.0" type="line"/>
      <point x="284.8" y="554.4" type="line"/>
      <point x="314.8" y="281.0" type="line"/>
    </contour>
  </outline>
</glyph>
<glyph name="B" format="2">
  <advance width="556.8"/>
  <unicode hex="0042"/>
  <anchor x="278.2" y="700.0" name="top"/>
  <anchor x="278.2" y="0.0" name="bottom"/>
  <outline>
    <contour>
      <point x="32.599999999999994" y="5.0" type="line"/>
      <point x="178.8" y="-8.0"/>
      <point x="182.2" y="-10.0"/>
      <point x="279.59999999999997" y="-10.0" type="curve" smooth="yes"/>
      <point x="476.40000000000003" y="-10.0"/>
      <point x="549.6" y="54.0"/>
      <point x="549.6" y="212.2" type="curve" smooth="yes"/>
      <point x="549.6" y="291.79999999999995"/>
      <point x="509.80000000000007" y="357.8"/>
      <point x="442.4" y="390.4" type="curve"/>
      <point x="442.4" y="392.4" type="line"/>
      <point x="495.00000000000006" y="425.20000000000005"/>
      <point x="519.1999999999999" y="474.0"/>
      <point x="519.1999999999999" y="538.8000000000001" type="curve" smooth="yes"/>
      <point x="519.1999999999999" y="656.4"/>
      <point x="447.79999999999995" y="710.0"/>
      <point x="279.6" y="710.0" type="curve" smooth="yes"/>
      <point x="216.00000000000003" y="710.0"/>
      <point x="134.0" y="705.0"/>
      <point x="32.599999999999994" y="695.0" type="curve"/>
    </contour>
    <contour>
      <point x="237.4" y="426.2" type="line"/>
      <point x="237.4" y="529.1999999999999" type="line"/>
      <point x="255.79999999999998" y="532.2"/>
      <point x="262.2" y="533.2"/>
      <point x="279.40000000000003" y="533.2" type="curve" smooth="yes"/>
      <point x="319.4" y="533.2"/>
      <point x="332.4" y="515.6"/>
      <point x="332.4" y="476.2" type="curve" smooth="yes"/>
      <point x="332.4" y="440.40000000000003"/>
      <point x="320.0" y="426.2"/>
      <point x="293.2" y="426.2" type="curve" smooth="yes"/>
    </contour>
    <contour>
      <point x="237.4" y="169.20000000000002" type="curve"/>
      <point x="237.4" y="274.8" type="line"/>
      <point x="289.6" y="274.8" type="line" smooth="yes"/>
      <point x="330.4" y="274.8"/>
      <point x="343.40000000000003" y="259.8"/>
      <point x="343.40000000000003" y="220.2" type="curve" smooth="yes"/>
      <point x="343.40000000000003" y="181.6"/>
      <point x="329.4" y="166.0"/>
      <point x="277.40000000000003" y="166.0" type="curve" smooth="yes"/>
      <point x="266.4" y="166.0"/>
      <point x="249.20000000000002" y="167.20000000000002"/>
    </contour>
  </outline>
</glyph>
<glyph name="C" format="2">
  <advance width="507.40000000000003"/>
  <unicode hex="0043"/>
  <anchor x="285.4" y="700.0" name="top"/>
  <anchor x="288.59999999999997" y="0.0" name="bottom"/>
  <outline>
    <contour>
      <point x="14.4" y="345.4" type="curve" smooth="yes"/>
      <point x="14.4" y="88.39999999999999"/>
      <point x="100.6" y="-10.0"/>
      <point x="294.4" y="-10.0" type="curve" smooth="yes"/>
      <point x="381.4" y="-10.0"/>
      <point x="438.40000000000003" y="2.2"/>
      <point x="491.0" y="22.799999999999997" type="curve"/>
      <point x="455.8" y="196.6" type="line"/>
      <point x="417.40000000000003" y="185.4"/>
      <point x="370.2" y="177.0"/>
      <point x="331.8" y="177.0" type="curve" smooth="yes"/>
      <point x="247.4" y="177.0"/>
      <point x="221.8" y="214.2"/>
      <point x="221.8" y="343.59999999999997" type="curve" smooth="yes"/>
      <point x="221.8" y="481.40000000000003"/>
      <point x="247.8" y="522.8"/>
      <point x="330.6" y="522.8" type="curve" smooth="yes"/>
      <point x="367.8" y="522.8"/>
      <point x="404.0" y="516.6"/>
      <point x="449.6" y="504.4" type="curve"/>
      <point x="490.0" y="678.6" type="line"/>
      <point x="441.00000000000006" y="699.0"/>
      <point x="383.6" y="710.0"/>
      <point x="306.0" y="710.0" type="curve" smooth="yes"/>
      <point x="105.60000000000001" y="710.0"/>
      <point x="14.4" y="606.0"/>
    </contour>
  </outline>
</glyph>
<glyph name="D" format="2">
  <advance width="575.8"/>
  <unicode hex="0044"/>
  <anchor x="285.4" y="700.0" name="top"/>
  <outline>
    <contour>
      <point x="268.0" y="-10.0" type="curve" smooth="yes"/>
      <point x="471.40000000000003" y="-10.0"/>
      <point x="561.4000000000001" y="97.39999999999999"/>
      <point x="561.4000000000001" y="352.0" type="curve" smooth="yes"/>
      <point x="561.4000000000001" y="603.4000000000001"/>
      <point x="485.2" y="710.0"/>
      <point x="265.0" y="710.0" type="curve" smooth="yes"/>
      <point x="177.2" y="710.0"/>
      <point x="111.39999999999999" y="707.0"/>
      <point x="32.599999999999994" y="698.4000000000001" type="curve"/>
      <point x="32.599999999999994" y="0.0" type="line"/>
      <point x="99.80000000000001" y="-6.4"/>
      <point x="173.0" y="-10.0"/>
    </contour>
    <contour>
      <point x="291.20000000000005" y="165.0" type="curve" smooth="yes"/>
      <point x="265.2" y="165.0"/>
      <point x="255.2" y="166.39999999999998"/>
      <point x="236.60000000000002" y="167.60000000000002" type="curve"/>
      <point x="236.60000000000002" y="530.4" type="line"/>
      <point x="249.0" y="532.6"/>
      <point x="267.0" y="533.5999999999999"/>
      <point x="289.0" y="533.5999999999999" type="curve" smooth="yes"/>
      <point x="332.8" y="533.5999999999999"/>
      <point x="350.80000000000007" y="501.0"/>
      <point x="350.80000000000007" y="349.40000000000003" type="curve" smooth="yes"/>
      <point x="350.80000000000007" y="208.4"/>
      <point x="331.0" y="165.0"/>
    </contour>
  </outline>
</glyph>
<glyph name="E" format="2">
  <advance width="496.6"/>
  <unicode hex="0045"/>
  <anchor x="478.40000000000003" y="0.0" name="ogonek"/>
  <anchor x="254.79999999999998" y="0.0" name="bottom"/>
  <anchor x="257.6" y="700.0" name="top"/>
  <outline>
    <contour>
      <point x="32.599999999999994" y="0.0" type="line"/>
      <point x="478.40000000000003" y="0.0" type="line"/>
      <point x="478.40000000000003" y="183.4" type="line"/>
      <point x="235.4" y="183.4" type="line"/>
      <point x="235.4" y="263.40000000000003" type="line"/>
      <point x="439.0" y="263.40000000000003" type="line"/>
      <point x="439.0" y="433.8" type="line"/>
      <point x="235.4" y="433.8" type="line"/>
      <point x="235.4" y="512.6" type="line"/>
      <point x="463.8" y="512.6" type="line"/>
      <point x="463.8" y="700.0" type="line"/>
      <point x="32.599999999999994" y="700.0" type="line"/>
    </contour>
  </outline>
</glyph>
<glyph name="F" format="2">
  <advance width="475.6"/>
  <unicode hex="0046"/>
  <outline>
    <contour>
      <point x="32.599999999999994" y="0.0" type="line"/>
      <point x="238.20000000000002" y="0.0" type="line"/>
      <point x="238.20000000000002" y="201.6" type="line"/>
      <point x="428.8" y="201.6" type="line"/>
      <point x="428.8" y="390.0" type="line"/>
      <point x="236.60000000000002" y="390.0" type="line"/>
      <point x="236.60000000000002" y="509.6" type="line"/>
      <point x="461.0" y="509.6" type="line"/>
      <point x="461.0" y="700.0" type="line"/>
      <point x="32.599999999999994" y="700.0" type="line"/>
    </contour>
  </outline>
</glyph>
<glyph name="G" format="2">
  <advance width="551.6"/>
  <unicode hex="0047"/>
  <anchor x="289.0" y="700.0" name="top"/>
  <anchor x="286.2" y="0.0" name="bottom"/>
  <outline>
    <contour>
      <point x="14.4" y="347.0" type="curve" smooth="yes"/>
      <point x="14.4" y="101.39999999999999"/>
      <point x="97.8" y="-10.0"/>
      <point x="278.2" y="-10.0" type="curve" smooth="yes"/>
      <point x="376.2" y="-10.0"/>
      <point x="454.59999999999997" y="8.799999999999999"/>
      <point x="527.0" y="50.0" type="curve"/>
      <point x="527.0" y="418.8" type="line"/>
      <point x="285.2" y="418.8" type="line"/>
      <point x="285.2" y="244.0" type="line"/>
      <point x="342.2" y="244.0" type="line"/>
      <point x="342.2" y="173.6" type="line"/>
      <point x="331.59999999999997" y="168.79999999999998"/>
      <point x="313.8" y="165.8"/>
      <point x="295.0" y="165.8" type="curve" smooth="yes"/>
      <point x="242.4" y="165.8"/>
      <point x="220.20000000000002" y="204.4"/>
      <point x="220.20000000000002" y="338.0" type="curve" smooth="yes"/>
      <point x="220.20000000000002" y="471.40000000000003"/>
      <point x="250.6" y="524.4"/>
      <point x="329.0" y="524.4" type="curve" smooth="yes"/>
      <point x="369.2" y="524.4"/>
      <point x="424.6" y="515.4"/>
      <point x="467.79999999999995" y="503.6" type="curve"/>
      <point x="504.4" y="679.4" type="line"/>
      <point x="453.2" y="697.8"/>
      <point x="379.20000000000005" y="710.0"/>
      <point x="308.4" y="710.0" type="curve" smooth="yes"/>
      <point x="106.2" y="710.0"/>
      <point x="14.4" y="594.5999999999999"/>
    </contour>
  </outline>
</glyph>
<glyph name="H" format="2">
  <advance width="577.6"/>
  <unicode hex="0048"/>
  <anchor x="289.2" y="700.0" name="top"/>
  <outline>
    <contour>
      <point x="32.599999999999994" y="0.0" type="line"/>
      <point x="236.60000000000002" y="0.0" type="line"/>
      <point x="236.60000000000002" y="224.60000000000002" type="line"/>
      <point x="341.0" y="224.60000000000002" type="line"/>
      <point x="341.0" y="0.0" type="line"/>
      <point x="545.0" y="0.0" type="line"/>
      <point x="545.0" y="700.0" type="line"/>
      <point x="341.0" y="700.0" type="line"/>
      <point x="341.0" y="420.6" type="line"/>
      <point x="236.60000000000002" y="420.6" type="line"/>
      <point x="236.60000000000002" y="700.0" type="line"/>
      <point x="32.599999999999994" y="700.0" type="line"/>
    </contour>
  </outline>
</glyph>
<glyph name="I" format="2">
  <advance width="269.20000000000005"/>
  <unicode hex="0049"/>
  <anchor x="236.60000000000002" y="0.0" name="ogonek"/>
  <anchor x="135.0" y="0.0" name="bottom"/>
  <anchor x="135.0" y="700.0" name="top"/>
  <outline>
    <contour>
      <point x="32.599999999999994" y="0.0" type="line"/>
      <point x="236.60000000000002" y="0.0" type="line"/>
      <point x="236.60000000000002" y="700.0" type="line"/>
      <point x="32.599999999999994" y="700.0" type="line"/>
    </contour>
  </outline>
</glyph>
<glyph name="J" format="2">
  <advance width="431.79999999999995"/>
  <unicode hex="004A"/>
  <anchor x="228.8" y="700.0" name="top"/>
  <outline>
    <contour>
      <point x="2.4000000000000004" y="27.400000000000002" type="line"/>
      <point x="60.2" y="5.399999999999999"/>
      <point x="125.4" y="-10.0"/>
      <point x="200.0" y="-10.0" type="curve" smooth="yes"/>
      <point x="334.4" y="-10.0"/>
      <point x="402.20000000000005" y="65.8"/>
      <point x="402.20000000000005" y="217.20000000000002" type="curve" smooth="yes"/>
      <point x="402.20000000000005" y="700.0" type="line"/>
      <point x="51.400000000000006" y="700.0" type="line"/>
      <point x="51.400000000000006" y="507.79999999999995" type="line"/>
      <point x="198.20000000000002" y="507.79999999999995" type="line"/>
      <point x="198.20000000000002" y="282.2" type="line" smooth="yes"/>
      <point x="198.20000000000002" y="194.8"/>
      <point x="178.6" y="175.6"/>
      <point x="130.6" y="175.6" type="curve" smooth="yes"/>
      <point x="108.2" y="175.6"/>
      <point x="74.80000000000001" y="182.79999999999998"/>
      <point x="38.2" y="192.0" type="curve"/>
    </contour>
  </outline>
</glyph>
<glyph name="K" format="2">
  <advance width="629.5"/>
  <unicode hex="004B"/>
  <anchor x="314.5" y="700.0" name="top"/>
  <anchor x="316.5" y="0.0" name="bottom"/>
  <outline>
    <contour>
      <point x="571.5" y="-10.0" type="curve" smooth="yes"/>
      <point x="580.5" y="-10.0"/>
      <point x="589.5" y="-10.0"/>
      <point x="600.5" y="-8.0" type="curve"/>
      <point x="600.5" y="212.5" type="line"/>
      <point x="596.5" y="212.5"/>
      <point x="592.0" y="212.5"/>
      <point x="588.5" y="212.5" type="curve" smooth="yes"/>
      <point x="561.0" y="213.0"/>
      <point x="530.5" y="227.5"/>
      <point x="457.0" y="285.5" type="curve" smooth="yes"/>
      <point x="218.0" y="475.0" type="line"/>
      <point x="218.0" y="700.0" type="line"/>
      <point x="42.0" y="700.0" type="line"/>
      <point x="42.0" y="0.0" type="line"/>
      <point x="218.0" y="0.0" type="line"/>
      <point x="218.0" y="193.5" type="line"/>
      <point x="397.0" y="56.0" type="line" smooth="yes"/>
      <point x="452.5" y="13.5"/>
      <point x="503.0" y="-10.0"/>
    </contour>
    <contour>
      <point x="339.5" y="269.5" type="line"/>
      <point x="468.5" y="382.5"/>
      <point x="578.5" y="504.0"/>
      <point x="622.0" y="662.0" type="curve"/>
      <point x="457.5" y="701.0" type="line"/>
      <point x="420.0" y="578.5"/>
      <point x="305.0" y="460.5"/>
      <point x="240.5" y="412.0" type="curve"/>
    </contour>
  </outline>
</glyph>
<glyph name="L" format="2">
  <advance width="469.20000000000005"/>
  <unicode hex="004C"/>
  <anchor x="235.0" y="350.0" name="center"/>
  <anchor x="135.0" y="700.0" name="top"/>
  <anchor x="291.2" y="700.0" name="topright"/>
  <anchor x="243.8" y="0.0" name="bottom"/>
  <outline>
    <contour>
      <point x="32.599999999999994" y="0.0" type="line"/>
      <point x="454.2" y="0.0" type="line"/>
      <point x="454.2" y="190.39999999999998" type="line"/>
      <point x="237.4" y="190.39999999999998" type="line"/>
      <point x="237.4" y="700.0" type="line"/>
      <point x="32.599999999999994" y="700.0" type="line"/>
    </contour>
  </outline>
</glyph>
<glyph name="M" format="2">
  <advance width="680.4"/>
  <unicode hex="004D"/>
  <outline>
    <contour>
      <point x="32.8" y="0.0" type="line"/>
      <point x="217.4" y="0.0" type="line"/>
      <point x="217.4" y="373.3" type="line"/>
      <point x="288.6" y="122.0" type="line"/>
      <point x="388.2" y="122.0" type="line"/>
      <point x="463.0" y="376.7" type="line"/>
      <point x="463.0" y="0.0" type="line"/>
      <point x="647.6" y="0.0" type="line"/>
      <point x="647.6" y="700.0" type="line"/>
      <point x="440.5" y="700.0" type="line"/>
      <point x="343.9" y="397.3" type="line"/>
      <point x="248.4" y="700.0" type="line"/>
      <point x="32.8" y="700.0" type="line"/>
    </contour>
  </outline>
</glyph>
<glyph name="N" format="2">
  <advance width="574.5"/>
  <unicode hex="004E"/>
  <anchor x="287.5" y="700.0" name="top"/>
  <anchor x="287.5" y="0.0" name="bottom"/>
  <outline>
    <contour>
      <point x="32.5" y="0.0" type="line"/>
      <point x="212.5" y="0.0" type="line"/>
      <point x="212.5" y="303.5" type="line"/>
      <point x="340.5" y="0.0" type="line"/>
      <point x="542.0" y="0.0" type="line"/>
      <point x="542.0" y="700.0" type="line"/>
      <point x="362.5" y="700.0" type="line"/>
      <point x="362.5" y="374.5" type="line"/>
      <point x="235.0" y="700.0" type="line"/>
      <point x="32.5" y="700.0" type="line"/>
    </contour>
  </outline>
</glyph>
<glyph name="O" format="2">
  <advance width="565.5"/>
  <unicode hex="004F"/>
  <anchor x="386.0" y="9.0" name="ogonek"/>
  <anchor x="283.5" y="700.0" name="top"/>
  <anchor x="447.0" y="697.5" name="topright"/>
  <anchor x="283.0" y="0.0" name="bottom"/>
  <outline>
    <contour>
      <point x="283.5" y="166.5" type="curve" smooth="yes"/>
      <point x="238.0" y="166.5"/>
      <point x="223.5" y="199.0"/>
      <point x="223.5" y="349.5" type="curve" smooth="yes"/>
      <point x="223.5" y="499.0"/>
      <point x="238.0" y="533.5"/>
      <point x="283.5" y="533.5" type="curve" smooth="yes"/>
      <point x="331.0" y="533.5"/>
      <point x="343.0" y="499.0"/>
      <point x="343.0" y="351.0" type="curve" smooth="yes"/>
      <point x="343.0" y="203.0"/>
      <point x="330.0" y="166.5"/>
    </contour>
    <contour>
      <point x="283.0" y="-10.0" type="curve" smooth="yes"/>
      <point x="466.0" y="-10.0"/>
      <point x="551.0" y="84.5"/>
      <point x="551.0" y="352.5" type="curve" smooth="yes"/>
      <point x="551.0" y="615.5"/>
      <point x="470.5" y="710.0"/>
      <point x="283.5" y="710.0" type="curve" smooth="yes"/>
      <point x="96.5" y="710.0"/>
      <point x="14.5" y="614.0"/>
      <point x="14.5" y="349.0" type="curve" smooth="yes"/>
      <point x="14.5" y="83.0"/>
      <point x="100.0" y="-10.0"/>
    </contour>
  </outline>
</glyph>
<glyph name="P" format="2">
  <advance width="575.0"/>
  <unicode hex="0050"/>
  <outline>
    <contour>
      <point x="32.599999999999994" y="0.0" type="line"/>
      <point x="237.4" y="0.0" type="line"/>
      <point x="237.4" y="159.0" type="line"/>
      <point x="292.0" y="155.0"/>
      <point x="282.0" y="155.0"/>
      <point x="333.2" y="155.0" type="curve" smooth="yes"/>
      <point x="500.2" y="155.0"/>
      <point x="562.4" y="246.2"/>
      <point x="562.4" y="438.0" type="curve" smooth="yes"/>
      <point x="562.4" y="625.1999999999999"/>
      <point x="499.40000000000003" y="710.0"/>
      <point x="283.40000000000003" y="710.0" type="curve" smooth="yes"/>
      <point x="250.8" y="710.0"/>
      <point x="163.20000000000002" y="708.6"/>
      <point x="32.599999999999994" y="701.6" type="curve"/>
    </contour>
    <contour>
      <point x="238.20000000000002" y="531.4" type="line"/>
      <point x="269.40000000000003" y="534.6"/>
      <point x="279.8" y="534.6"/>
      <point x="298.4" y="534.6" type="curve" smooth="yes"/>
      <point x="343.40000000000003" y="534.6"/>
      <point x="356.20000000000005" y="506.6"/>
      <point x="356.20000000000005" y="447.40000000000003" type="curve" smooth="yes"/>
      <point x="356.20000000000005" y="359.0"/>
      <point x="347.2" y="328.59999999999997"/>
      <point x="278.6" y="328.59999999999997" type="curve" smooth="yes"/>
      <point x="265.2" y="328.59999999999997"/>
      <point x="256.8" y="328.8"/>
      <point x="238.20000000000002" y="331.2" type="curve"/>
    </contour>
  </outline>
</glyph>
<glyph name="Q" format="2">
  <advance width="565.8"/>
  <unicode hex="0051"/>
  <outline>
    <contour>
      <point x="440.2" y="55.4" type="curve"/>
      <point x="279.0" y="11.7" type="line"/>
      <point x="307.6" y="-111.0"/>
      <point x="352.4" y="-170.1"/>
      <point x="449.5" y="-170.1" type="curve" smooth="yes"/>
      <point x="479.9" y="-170.1"/>
      <point x="510.1" y="-164.1"/>
      <point x="535.4" y="-155.3" type="curve"/>
      <point x="514.5" y="28.299999999999997" type="line"/>
      <point x="506.2" y="24.8"/>
      <point x="496.0" y="22.4"/>
      <point x="484.5" y="22.4" type="curve" smooth="yes"/>
      <point x="464.2" y="22.4"/>
      <point x="451.5" y="37.4"/>
    </contour>
    <component base="O"/>
  </outline>
</glyph>
<glyph name="R" format="2">
  <advance width="620.5"/>
  <unicode hex="0052"/>
  <anchor x="302.5" y="700.0" name="top"/>
  <anchor x="306.5" y="0.0" name="bottom"/>
  <outline>
    <contour>
      <point x="550.5" y="-10.0" type="curve" smooth="yes"/>
      <point x="579.0" y="-10.0"/>
      <point x="594.5" y="-8.5"/>
      <point x="606.0" y="-6.0" type="curve"/>
      <point x="607.0" y="195.0" type="line"/>
      <point x="602.5" y="195.0"/>
      <point x="597.5" y="195.0"/>
      <point x="593.5" y="195.0" type="curve" smooth="yes"/>
      <point x="541.5" y="195.0"/>
      <point x="484.5" y="242.0"/>
      <point x="446.0" y="267.5" type="curve"/>
      <point x="533.5" y="293.5"/>
      <point x="569.5" y="379.0"/>
      <point x="569.5" y="479.0" type="curve" smooth="yes"/>
      <point x="569.5" y="636.0"/>
      <point x="477.0" y="709.0"/>
      <point x="301.0" y="709.0" type="curve" smooth="yes"/>
      <point x="197.5" y="709.0"/>
      <point x="125.5" y="705.0"/>
      <point x="42.0" y="698.5" type="curve"/>
      <point x="42.0" y="0.0" type="line"/>
      <point x="216.0" y="0.0" type="line"/>
      <point x="216.0" y="205.5" type="line"/>
      <point x="241.0" y="205.0"/>
      <point x="261.5" y="204.5"/>
      <point x="282.0" y="204.5" type="curve" smooth="yes"/>
      <point x="287.5" y="204.5"/>
      <point x="292.0" y="204.5"/>
      <point x="298.0" y="204.0" type="curve"/>
      <point x="378.0" y="29.5"/>
      <point x="465.5" y="-10.0"/>
    </contour>
    <contour>
      <point x="299.0" y="338.5" type="curve" smooth="yes"/>
      <point x="269.5" y="338.5"/>
      <point x="245.5" y="340.0"/>
      <point x="216.0" y="341.5" type="curve"/>
      <point x="216.0" y="537.0" type="line"/>
      <point x="249.0" y="540.5"/>
      <point x="266.5" y="541.5"/>
      <point x="295.0" y="541.5" type="curve" smooth="yes"/>
      <point x="368.5" y="541.5"/>
      <point x="393.5" y="515.5"/>
      <point x="393.5" y="450.0" type="curve" smooth="yes"/>
      <point x="393.5" y="372.5"/>
      <point x="369.0" y="338.5"/>
    </contour>
  </outline>
</glyph>
<glyph name="S" format="2">
  <advance width="532.0"/>
  <unicode hex="0053"/>
  <anchor x="268.0" y="700.0" name="top"/>
  <anchor x="258.2" y="0.0" name="bottom"/>
  <outline>
    <contour>
      <point x="501.7" y="673.2" type="line"/>
      <point x="462.2" y="690.5"/>
      <point x="368.1" y="710.0"/>
      <point x="284.5" y="710.0" type="curve" smooth="yes"/>
      <point x="81.5" y="710.0"/>
      <point x="13.1" y="598.8"/>
      <point x="13.1" y="485.7" type="curve" smooth="yes"/>
      <point x="13.1" y="386.5"/>
      <point x="46.5" y="327.6"/>
      <point x="149.6" y="287.6" type="curve" smooth="yes"/>
      <point x="271.8" y="244.5"/>
      <point x="314.4" y="233.6"/>
      <point x="314.4" y="206.9" type="curve" smooth="yes"/>
      <point x="314.4" y="182.3"/>
      <point x="296.3" y="162.6"/>
      <point x="240.1" y="162.6" type="curve" smooth="yes"/>
      <point x="190.6" y="162.6"/>
      <point x="119.3" y="173.2"/>
      <point x="39.1" y="201.0" type="curve"/>
      <point x="0.6999999999999993" y="35.1" type="line"/>
      <point x="86.9" y="-0.6000000000000005"/>
      <point x="173.7" y="-10.0"/>
      <point x="237.7" y="-10.0" type="curve" smooth="yes"/>
      <point x="432.5" y="-10.0"/>
      <point x="523.3" y="85.6"/>
      <point x="523.3" y="219.0" type="curve" smooth="yes"/>
      <point x="523.3" y="327.8"/>
      <point x="482.1" y="380.9"/>
      <point x="357.9" y="419.0" type="curve" smooth="yes"/>
      <point x="246.6" y="452.5"/>
      <point x="225.0" y="463.4"/>
      <point x="225.0" y="487.3" type="curve" smooth="yes"/>
      <point x="225.0" y="517.3"/>
      <point x="249.8" y="531.3"/>
      <point x="295.7" y="531.3" type="curve" smooth="yes"/>
      <point x="347.1" y="531.3"/>
      <point x="414.6" y="523.3"/>
      <point x="463.8" y="505.0" type="curve"/>
    </contour>
  </outline>
</glyph>
<glyph name="T" format="2">
  <advance width="533.6"/>
  <unicode hex="0054"/>
  <anchor x="266.8" y="700.0" name="top"/>
  <anchor x="266.8" y="0.0" name="bottom"/>
  <outline>
    <contour>
      <point x="518.6" y="506.4" type="line"/>
      <point x="518.6" y="700.0" type="line"/>
      <point x="15.0" y="700.0" type="line"/>
      <point x="15.0" y="506.4" type="line"/>
      <point x="165.2" y="506.4" type="line"/>
      <point x="165.2" y="0.0" type="line"/>
      <point x="369.2" y="0.0" type="line"/>
      <point x="369.2" y="506.4" type="line"/>
    </contour>
  </outline>
</glyph>
<glyph name="U" format="2">
  <advance width="569.6"/>
  <unicode hex="0055"/>
  <anchor x="378.8" y="1.6" name="ogonek"/>
  <anchor x="285.2" y="700.0" name="top"/>
  <anchor x="540.0" y="700.0" name="topright"/>
  <anchor x="285.2" y="0.0" name="bottom"/>
  <outline>
    <contour>
      <point x="29.599999999999998" y="221.6" type="line"/>
      <point x="29.599999999999998" y="57.2"/>
      <point x="114.39999999999999" y="-10.0"/>
      <point x="283.59999999999997" y="-10.0" type="curve" smooth="yes"/>
      <point x="458.4" y="-10.0"/>
      <point x="540.0" y="57.2"/>
      <point x="540.0" y="221.6" type="curve" smooth="yes"/>
      <point x="540.0" y="700.0" type="line"/>
      <point x="336.0" y="700.0" type="line"/>
      <point x="336.0" y="208.0" type="line" smooth="yes"/>
      <point x="336.0" y="182.0"/>
      <point x="322.4" y="166.2"/>
      <point x="284.2" y="166.2" type="curve" smooth="yes"/>
      <point x="248.2" y="166.2"/>
      <point x="232.0" y="180.20000000000002"/>
      <point x="232.0" y="208.0" type="curve" smooth="yes"/>
      <point x="232.0" y="700.0" type="line"/>
      <point x="29.599999999999998" y="700.0" type="line"/>
    </contour>
  </outline>
</glyph>
<glyph name="V" format="2">
  <advance width="571.6"/>
  <unicode hex="0056"/>
  <outline>
    <contour>
      <point x="159.2" y="0.0" type="line"/>
      <point x="418.0" y="0.0" type="line"/>
      <point x="574.6" y="700.0" type="line"/>
      <point x="350.2" y="700.2" type="line"/>
      <point x="289.0" y="172.5" type="line"/>
      <point x="223.0" y="700.2" type="line"/>
      <point x="-3.0" y="700.0" type="line"/>
    </contour>
  </outline>
</glyph>
<glyph name="W" format="2">
  <advance width="717.5"/>
  <unicode hex="0057"/>
  <anchor x="359.0" y="700.0" name="top"/>
  <anchor x="359.0" y="0.0" name="bottom"/>
  <outline>
    <contour>
      <point x="611.4" y="0.0" type="line"/>
      <point x="719.7" y="700.1" type="line"/>
      <point x="497.4" y="700.1" type="line"/>
      <point x="490.7" y="191.1" type="line"/>
      <point x="442.7" y="647.7" type="line"/>
      <point x="277.0" y="647.7" type="line"/>
      <point x="225.6" y="191.3" type="line"/>
      <point x="218.9" y="700.1" type="line"/>
      <point x="-2.2" y="700.1" type="line"/>
      <point x="103.6" y="0.0" type="line"/>
      <point x="316.0" y="0.0" type="line"/>
      <point x="357.9" y="355.5" type="line"/>
      <point x="394.3" y="0.0" type="line"/>
    </contour>
  </outline>
</glyph>
<glyph name="X" format="2">
  <advance width="575.4"/>
  <unicode hex="0058"/>
  <outline>
    <contour>
      <point x="-4.6" y="-0.20000000000000018" type="line"/>
      <point x="245.6" y="-0.19999999999999996" type="line"/>
      <point x="291.3" y="236.9" type="line"/>
      <point x="336.0" y="-0.19999999999999996" type="line"/>
      <point x="580.3" y="-0.20000000000000018" type="line"/>
      <point x="441.0" y="357.8" type="line"/>
      <point x="570.8" y="700.2" type="line"/>
      <point x="333.3" y="700.2" type="line"/>
      <point x="289.4" y="473.0" type="line"/>
      <point x="248.4" y="700.2" type="line"/>
      <point x="8.1" y="700.2" type="line"/>
      <point x="136.9" y="354.6" type="line"/>
    </contour>
  </outline>
</glyph>
<glyph name="Y" format="2">
  <advance width="572.4"/>
  <unicode hex="0059"/>
  <anchor x="286.2" y="700.0" name="top"/>
  <anchor x="286.20000000000005" y="0.0" name="bottom"/>
  <outline>
    <contour>
      <point x="183.8" y="0.0" type="line"/>
      <point x="387.79999999999995" y="0.0" type="line"/>
      <point x="387.79999999999995" y="211.6" type="line"/>
      <point x="575.6" y="700.0" type="line"/>
      <point x="343.59999999999997" y="700.0" type="line"/>
      <point x="286.59999999999997" y="344.59999999999997" type="line"/>
      <point x="229.60000000000002" y="700.0" type="line"/>
      <point x="-3.2" y="700.0" type="line"/>
      <point x="183.8" y="211.6" type="line"/>
    </contour>
  </outline>
</glyph>
<glyph name="Z" format="2">
  <advance width="527.0"/>
  <unicode hex="005A"/>
  <anchor x="263.0" y="350.0" name="center"/>
  <anchor x="263.0" y="0.0" name="bottom"/>
  <anchor x="267.8" y="700.0" name="top"/>
  <outline>
    <contour>
      <point x="15.4" y="0.0" type="line"/>
      <point x="509.2" y="0.0" type="line"/>
      <point x="509.2" y="179.6" type="line"/>
      <point x="256.8" y="179.6" type="line"/>
      <point x="256.8" y="180.79999999999998" type="line"/>
      <point x="501.19999999999993" y="518.0" type="line"/>
      <point x="501.19999999999993" y="700.0" type="line"/>
      <point x="28.799999999999997" y="700.0" type="line"/>
      <point x="28.799999999999997" y="520.4" type="line"/>
      <point x="264.0" y="520.4" type="line"/>
      <point x="264.0" y="519.1999999999999" type="line"/>
      <point x="15.4" y="182.0" type="line"/>
    </contour>
  </outline>
</glyph>
<glyph name="bracketleft" format="2">
  <advance width="291.2"/>
  <unicode hex="005B"/>
  <outline>
    <contour>
      <point x="171.20000000000002" y="-60.0" type="line"/>
      <point x="171.20000000000002" y="590.0" type="line"/>
      <point x="277.2" y="590.0" type="line"/>
      <point x="277.2" y="740.0" type="line"/>
      <point x="18.799999999999997" y="740.0" type="line"/>
      <point x="18.799999999999997" y="-210.0" type="line"/>
      <point x="277.2" y="-210.0" type="line"/>
      <point x="277.2" y="-60.0" type="line"/>
    </contour>
  </outline>
</glyph>
<glyph name="backslash" format="2">
  <advance width="441.0"/>
  <unicode hex="005C"/>
  <outline>
    <contour>
      <point x="159.0" y="740.0" type="line"/>
      <point x="-6.0" y="740.0" type="line"/>
      <point x="282.8" y="-210.0" type="line"/>
      <point x="447.0" y="-210.0" type="line"/>
    </contour>
  </outline>
</glyph>
<glyph name="bracketright" format="2">
  <advance width="291.2"/>
  <unicode hex="005D"/>
  <outline>
    <contour>
      <point x="14.0" y="-60.0" type="line"/>
      <point x="14.0" y="-210.0" type="line"/>
      <point x="272.4" y="-210.0" type="line"/>
      <point x="272.4" y="740.0" type="line"/>
      <point x="14.0" y="740.0" type="line"/>
      <point x="14.0" y="590.0" type="line"/>
      <point x="119.99999999999999" y="590.0" type="line"/>
      <point x="119.99999999999999" y="-60.0" type="line"/>
    </contour>
  </outline>
</glyph>
<glyph name="asciicircum" format="2">
  <advance width="492.4"/>
  <unicode hex="005E"/>
  <outline>
    <contour>
      <point x="49.2" y="234.0" type="line"/>
      <point x="196.2" y="234.0" type="line"/>
      <point x="246.2" y="494.20000000000005" type="line"/>
      <point x="297.2" y="234.0" type="line"/>
      <point x="443.20000000000005" y="234.0" type="line"/>
      <point x="341.4" y="700.0" type="line"/>
      <point x="151.0" y="700.0" type="line"/>
    </contour>
  </outline>
</glyph>
<glyph name="underscore" format="2">
  <advance width="708.8"/>
  <unicode hex="005F"/>
  <outline>
    <contour>
      <point x="20.0" y="-209.2" type="line"/>
      <point x="688.8" y="-209.2" type="line"/>
      <point x="688.8" y="-41.2" type="line"/>
      <point x="20.0" y="-41.2" type="line"/>
    </contour>
  </outline>
</glyph>
<glyph name="a" format="2">
  <advance width="528.5"/>
  <unicode hex="0061"/>
  <anchor x="521.0" y="15.0" name="ogonek"/>
  <anchor x="268.0" y="0.0" name="bottom"/>
  <anchor x="257.5" y="550.0" name="top"/>
  <outline>
    <contour>
      <point x="18.0" y="167.0" type="curve" smooth="yes"/>
      <point x="18.0" y="78.5"/>
      <point x="55.5" y="-10.0"/>
      <point x="154.0" y="-10.0" type="curve" smooth="yes"/>
      <point x="229.5" y="-10.0"/>
      <point x="273.5" y="15.0"/>
      <point x="312.5" y="52.0" type="curve"/>
      <point x="331.5" y="9.0"/>
      <point x="362.5" y="-10.0"/>
      <point x="420.0" y="-10.0" type="curve" smooth="yes"/>
      <point x="467.0" y="-10.0"/>
      <point x="496.5" y="2.0"/>
      <point x="521.0" y="15.0" type="curve"/>
      <point x="510.5" y="175.0" type="line"/>
      <point x="507.0" y="174.0"/>
      <point x="500.5" y="173.0"/>
      <point x="495.5" y="173.0" type="curve" smooth="yes"/>
      <point x="483.5" y="173.0"/>
      <point x="473.0" y="181.0"/>
      <point x="473.0" y="216.5" type="curve" smooth="yes"/>
      <point x="473.0" y="335.5" type="line" smooth="yes"/>
      <point x="473.0" y="479.5"/>
      <point x="402.5" y="560.0"/>
      <point x="233.0" y="560.0" type="curve" smooth="yes"/>
      <point x="177.0" y="560.0"/>
      <point x="95.5" y="544.0"/>
      <point x="38.5" y="522.0" type="curve"/>
      <point x="75.0" y="354.0" type="line"/>
      <point x="145.5" y="375.5"/>
      <point x="184.5" y="380.0"/>
      <point x="217.5" y="380.0" type="curve" smooth="yes"/>
      <point x="265.5" y="380.0"/>
      <point x="301.5" y="364.0"/>
      <point x="301.5" y="332.5" type="curve" smooth="yes"/>
      <point x="301.5" y="348.5" type="line"/>
      <point x="112.0" y="331.5"/>
      <point x="18.0" y="302.5"/>
    </contour>
    <contour>
      <point x="189.0" y="185.0" type="curve" smooth="yes"/>
      <point x="189.0" y="237.5"/>
      <point x="228.0" y="241.5"/>
      <point x="301.5" y="241.5" type="curve"/>
      <point x="301.5" y="148.0" type="line"/>
      <point x="277.5" y="131.0"/>
      <point x="247.0" y="125.0"/>
      <point x="225.5" y="125.0" type="curve" smooth="yes"/>
      <point x="205.0" y="125.0"/>
      <point x="189.0" y="137.0"/>
    </contour>
  </outline>
</glyph>
<glyph name="b" format="2">
  <advance width="517.8"/>
  <unicode hex="0062"/>
  <outline>
    <contour>
      <point x="26.0" y="19.799999999999997" type="line"/>
      <point x="98.4" y="1.8"/>
      <point x="180.8" y="-10.0"/>
      <point x="244.0" y="-10.0" type="curve" smooth="yes"/>
      <point x="431.6" y="-10.0"/>
      <point x="504.0" y="72.19999999999999"/>
      <point x="504.0" y="291.0" type="curve" smooth="yes"/>
      <point x="504.0" y="474.4"/>
      <point x="449.4" y="560.0"/>
      <point x="336.4" y="560.0" type="curve" smooth="yes"/>
      <point x="300.4" y="560.0"/>
      <point x="259.2" y="547.0"/>
      <point x="226.0" y="525.8" type="curve"/>
      <point x="226.0" y="740.0" type="line"/>
      <point x="26.0" y="740.0" type="line"/>
    </contour>
    <contour>
      <point x="226.0" y="148.4" type="curve"/>
      <point x="226.0" y="371.4" type="line"/>
      <point x="240.20000000000002" y="378.2"/>
      <point x="252.39999999999998" y="381.6"/>
      <point x="263.4" y="381.6" type="curve" smooth="yes"/>
      <point x="286.0" y="381.6"/>
      <point x="294.4" y="361.6"/>
      <point x="294.4" y="271.40000000000003" type="curve" smooth="yes"/>
      <point x="294.4" y="165.6"/>
      <point x="284.0" y="143.0"/>
      <point x="257.40000000000003" y="143.0" type="curve" smooth="yes"/>
      <point x="247.2" y="143.0"/>
      <point x="236.4" y="144.8"/>
    </contour>
  </outline>
</glyph>
<glyph name="c" format="2">
  <advance width="447.8"/>
  <unicode hex="0063"/>
  <anchor x="265.6" y="550.0" name="top"/>
  <anchor x="270.59999999999997" y="0.0" name="bottom"/>
  <outline>
    <contour>
      <point x="13.8" y="270.8" type="curve" smooth="yes"/>
      <point x="13.8" y="82.80000000000001"/>
      <point x="92.0" y="-10.0"/>
      <point x="256.59999999999997" y="-10.0" type="curve" smooth="yes"/>
      <point x="320.4" y="-10.0"/>
      <point x="394.40000000000003" y="2.0"/>
      <point x="439.6" y="17.799999999999997" type="curve"/>
      <point x="404.0" y="194.4" type="line"/>
      <point x="366.2" y="186.39999999999998"/>
      <point x="338.0" y="182.0"/>
      <point x="305.59999999999997" y="182.0" type="curve" smooth="yes"/>
      <point x="251.79999999999998" y="182.0"/>
      <point x="223.4" y="214.6"/>
      <point x="223.4" y="278.79999999999995" type="curve" smooth="yes"/>
      <point x="223.4" y="338.8"/>
      <point x="249.2" y="366.2"/>
      <point x="305.2" y="366.2" type="curve" smooth="yes"/>
      <point x="336.8" y="366.2"/>
      <point x="368.4" y="363.0"/>
      <point x="400.2" y="355.6" type="curve"/>
      <point x="431.0" y="540.4" type="line"/>
      <point x="393.4" y="552.2"/>
      <point x="330.79999999999995" y="560.0"/>
      <point x="271.4" y="560.0" type="curve" smooth="yes"/>
      <point x="101.2" y="560.0"/>
      <point x="13.8" y="460.6"/>
    </contour>
  </outline>
</glyph>
<glyph name="d" format="2">
  <advance width="518.8"/>
  <unicode hex="0064"/>
  <anchor x="258.8" y="275.0" name="center"/>
  <anchor x="252.0" y="740.0" name="top"/>
  <anchor x="524.8" y="740.0" name="topright"/>
  <anchor x="258.8" y="0.0" name="bottom"/>
  <outline>
    <contour>
      <point x="314.6" y="-0.8" type="line"/>
      <point x="492.8" y="-0.8" type="line"/>
      <point x="492.8" y="740.0" type="line"/>
      <point x="292.0" y="740.0" type="line"/>
      <point x="292.0" y="555.4" type="line"/>
      <point x="276.4" y="558.2"/>
      <point x="256.0" y="560.0"/>
      <point x="239.39999999999998" y="560.0" type="curve" smooth="yes"/>
      <point x="89.4" y="560.0"/>
      <point x="13.8" y="458.59999999999997"/>
      <point x="13.8" y="266.2" type="curve" smooth="yes"/>
      <point x="13.8" y="84.60000000000001"/>
      <point x="70.2" y="-10.0"/>
      <point x="176.60000000000002" y="-10.0" type="curve" smooth="yes"/>
      <point x="219.8" y="-10.0"/>
      <point x="261.8" y="3.0"/>
      <point x="295.8" y="25.799999999999997" type="curve"/>
    </contour>
    <contour>
      <point x="291.8" y="173.79999999999998" type="line"/>
      <point x="280.0" y="169.4"/>
      <point x="266.2" y="166.0"/>
      <point x="256.0" y="166.0" type="curve" smooth="yes"/>
      <point x="232.6" y="166.0"/>
      <point x="224.2" y="190.0"/>
      <point x="224.2" y="292.2" type="curve" smooth="yes"/>
      <point x="224.2" y="384.40000000000003"/>
      <point x="234.60000000000002" y="404.6"/>
      <point x="260.4" y="404.6" type="curve" smooth="yes"/>
      <point x="271.59999999999997" y="404.6"/>
      <point x="281.4" y="402.8"/>
      <point x="291.8" y="396.8" type="curve"/>
    </contour>
  </outline>
</glyph>
<glyph name="e" format="2">
  <advance width="497.40000000000003"/>
  <unicode hex="0065"/>
  <anchor x="426.8" y="11.400000000000002" name="ogonek"/>
  <anchor x="250.4" y="0.0" name="bottom"/>
  <anchor x="256.8" y="550.0" name="top"/>
  <outline>
    <contour>
      <point x="258.8" y="-10.0" type="curve" smooth="yes"/>
      <point x="343.79999999999995" y="-10.0"/>
      <point x="408.2" y="1.3999999999999995"/>
      <point x="478.2" y="27.6" type="curve"/>
      <point x="453.2" y="183.4" type="line"/>
      <point x="399.59999999999997" y="171.20000000000002"/>
      <point x="347.79999999999995" y="161.79999999999998"/>
      <point x="304.4" y="161.79999999999998" type="curve" smooth="yes"/>
      <point x="236.2" y="161.79999999999998"/>
      <point x="220.0" y="178.6"/>
      <point x="219.6" y="200.20000000000002" type="curve" smooth="yes"/>
      <point x="219.6" y="202.8"/>
      <point x="219.6" y="204.4"/>
      <point x="219.60000000000002" y="207.0" type="curve"/>
      <point x="297.2" y="210.4"/>
      <point x="414.4" y="222.60000000000002"/>
      <point x="478.2" y="229.2" type="curve"/>
      <point x="479.40000000000003" y="249.8"/>
      <point x="480.2" y="281.0"/>
      <point x="480.2" y="296.4" type="curve" smooth="yes"/>
      <point x="480.2" y="483.2"/>
      <point x="413.8" y="560.0"/>
      <point x="262.0" y="560.0" type="curve" smooth="yes"/>
      <point x="106.0" y="560.0"/>
      <point x="13.8" y="477.2"/>
      <point x="13.8" y="267.2" type="curve" smooth="yes"/>
      <point x="13.8" y="71.39999999999999"/>
      <point x="101.20000000000002" y="-10.0"/>
    </contour>
    <contour>
      <point x="219.8" y="322.4" type="curve"/>
      <point x="223.0" y="395.8"/>
      <point x="232.0" y="410.40000000000003"/>
      <point x="251.8" y="410.40000000000003" type="curve" smooth="yes"/>
      <point x="272.2" y="410.40000000000003"/>
      <point x="281.4" y="396.4"/>
      <point x="283.0" y="325.0" type="curve"/>
      <point x="262.6" y="323.8"/>
      <point x="237.0" y="322.8"/>
    </contour>
  </outline>
</glyph>
<glyph name="f" format="2">
  <advance width="353.0"/>
  <unicode hex="0066"/>
  <outline>
    <contour>
      <point x="62.0" y="0.0" type="line"/>
      <point x="258.0" y="0.0" type="line"/>
      <point x="258.0" y="364.2" type="line"/>
      <point x="334.2" y="364.2" type="line"/>
      <point x="334.2" y="520.0" type="line"/>
      <point x="258.8" y="520.0" type="line"/>
      <point x="258.8" y="532.4" type="line" smooth="yes"/>
      <point x="258.8" y="568.6"/>
      <point x="274.40000000000003" y="581.8"/>
      <point x="303.4" y="581.8" type="curve" smooth="yes"/>
      <point x="319.2" y="581.8"/>
      <point x="339.2" y="578.5999999999999"/>
      <point x="360.59999999999997" y="572.0" type="curve"/>
      <point x="388.6" y="720.1999999999999" type="line"/>
      <point x="343.0" y="741.1999999999999"/>
      <point x="299.4" y="750.0"/>
      <point x="250.4" y="750.0" type="curve" smooth="yes"/>
      <point x="127.60000000000001" y="750.0"/>
      <point x="62.0" y="672.4000000000001"/>
      <point x="62.0" y="535.1999999999999" type="curve" smooth="yes"/>
      <point x="62.0" y="520.0" type="line"/>
      <point x="6.800000000000001" y="510.40000000000003" type="line"/>
      <point x="6.800000000000001" y="364.2" type="line"/>
      <point x="62.0" y="364.2" type="line"/>
    </contour>
  </outline>
</glyph>
<glyph name="g" format="2">
  <advance width="513.6"/>
  <unicode hex="0067"/>
  <anchor x="233.20000000000002" y="550.0" name="top"/>
  <anchor x="247.2" y="-212.0" name="bottom"/>
  <outline>
    <contour>
      <point x="222.4" y="-220.0" type="curve" smooth="yes"/>
      <point x="401.0" y="-220.0"/>
      <point x="494.79999999999995" y="-144.4"/>
      <point x="494.79999999999995" y="-14.0" type="curve" smooth="yes"/>
      <point x="494.79999999999995" y="83.4"/>
      <point x="436.0" y="141.4"/>
      <point x="335.79999999999995" y="141.4" type="curve" smooth="yes"/>
      <point x="198.4" y="141.4" type="line" smooth="yes"/>
      <point x="175.6" y="141.4"/>
      <point x="163.60000000000002" y="149.0"/>
      <point x="163.60000000000002" y="165.0" type="curve" smooth="yes"/>
      <point x="163.60000000000002" y="180.8"/>
      <point x="169.0" y="189.4"/>
      <point x="186.6" y="200.8" type="curve"/>
      <point x="90.39999999999999" y="223.0" type="line"/>
      <point x="51.0" y="199.0"/>
      <point x="21.6" y="161.2"/>
      <point x="21.6" y="102.60000000000001" type="curve" smooth="yes"/>
      <point x="21.6" y="23.0"/>
      <point x="88.19999999999999" y="-22.200000000000003"/>
      <point x="191.8" y="-22.200000000000003" type="curve" smooth="yes"/>
      <point x="274.59999999999997" y="-22.200000000000003" type="line" smooth="yes"/>
      <point x="306.79999999999995" y="-22.200000000000003"/>
      <point x="310.8" y="-25.400000000000002"/>
      <point x="310.8" y="-38.2" type="curve" smooth="yes"/>
      <point x="310.8" y="-53.800000000000004"/>
      <point x="284.4" y="-62.199999999999996"/>
      <point x="233.20000000000002" y="-62.199999999999996" type="curve" smooth="yes"/>
      <point x="166.6" y="-62.199999999999996"/>
      <point x="148.6" y="-56.4"/>
      <point x="148.6" y="-35.2" type="curve" smooth="yes"/>
      <point x="148.6" y="-22.4"/>
      <point x="153.20000000000002" y="-17.4"/>
      <point x="166.8" y="-11.0" type="curve"/>
      <point x="74.8" y="27.4" type="line"/>
      <point x="32.0" y="8.0"/>
      <point x="2.6" y="-28.799999999999997"/>
      <point x="2.6" y="-85.2" type="curve" smooth="yes"/>
      <point x="2.6" y="-175.0"/>
      <point x="78.8" y="-220.0"/>
    </contour>
    <contour>
      <point x="234.0" y="166.2" type="curve" smooth="yes"/>
      <point x="377.40000000000003" y="166.2"/>
      <point x="450.59999999999997" y="232.79999999999998"/>
      <point x="450.59999999999997" y="363.2" type="curve" smooth="yes"/>
      <point x="450.59999999999997" y="493.59999999999997"/>
      <point x="377.40000000000003" y="560.2"/>
      <point x="234.0" y="560.2" type="curve" smooth="yes"/>
      <point x="90.6" y="560.2"/>
      <point x="17.400000000000002" y="493.59999999999997"/>
      <point x="17.400000000000002" y="363.2" type="curve" smooth="yes"/>
      <point x="17.400000000000002" y="232.79999999999998"/>
      <point x="90.6" y="166.2"/>
    </contour>
    <contour>
      <point x="234.0" y="297.0" type="curve" smooth="yes"/>
      <point x="213.0" y="297.0"/>
      <point x="204.39999999999998" y="308.40000000000003"/>
      <point x="204.39999999999998" y="363.2" type="curve" smooth="yes"/>
      <point x="204.39999999999998" y="418.0"/>
      <point x="213.0" y="429.4"/>
      <point x="234.0" y="429.4" type="curve" smooth="yes"/>
      <point x="255.0" y="429.4"/>
      <point x="263.59999999999997" y="418.0"/>
      <point x="263.59999999999997" y="363.2" type="curve" smooth="yes"/>
      <point x="263.59999999999997" y="308.40000000000003"/>
      <point x="255.0" y="297.0"/>
    </contour>
    <contour>
      <point x="424.0" y="394.59999999999997" type="line"/>
      <point x="432.0" y="409.4"/>
      <point x="443.4" y="418.0"/>
      <point x="457.20000000000005" y="418.0" type="curve" smooth="yes"/>
      <point x="469.6" y="418.0"/>
      <point x="480.2" y="416.0"/>
      <point x="490.2" y="413.6" type="curve"/>
      <point x="517.2" y="576.4" type="line"/>
      <point x="500.8" y="584.1999999999999"/>
      <point x="479.0" y="589.2"/>
      <point x="456.6" y="589.2" type="curve" smooth="yes"/>
      <point x="408.0" y="589.2"/>
      <point x="373.8" y="566.6"/>
      <point x="352.0" y="516.8" type="curve"/>
    </contour>
  </outline>
</glyph>
<glyph name="h" format="2">
  <advance width="511.2"/>
  <unicode hex="0068"/>
  <anchor x="253.6" y="395.0" name="center"/>
  <anchor x="255.6" y="0.0" name="bottom"/>
  <anchor x="260.2" y="740.0" name="top"/>
  <outline>
    <contour>
      <point x="26.0" y="0.0" type="line"/>
      <point x="226.0" y="0.0" type="line"/>
      <point x="226.0" y="369.4" type="line"/>
      <point x="239.0" y="376.0"/>
      <point x="249.20000000000002" y="379.40000000000003"/>
      <point x="260.6" y="379.40000000000003" type="curve" smooth="yes"/>
      <point x="273.4" y="379.40000000000003"/>
      <point x="286.0" y="372.59999999999997"/>
      <point x="286.0" y="345.59999999999997" type="curve" smooth="yes"/>
      <point x="286.0" y="0.0" type="line"/>
      <point x="486.79999999999995" y="0.0" type="line"/>
      <point x="486.79999999999995" y="407.2" type="line" smooth="yes"/>
      <point x="486.79999999999995" y="509.79999999999995"/>
      <point x="437.6" y="560.0"/>
      <point x="350.0" y="560.0" type="curve" smooth="yes"/>
      <point x="309.6" y="560.0"/>
      <point x="267.2" y="545.8"/>
      <point x="226.0" y="511.4" type="curve"/>
      <point x="226.0" y="740.0" type="line"/>
      <point x="26.0" y="740.0" type="line"/>
    </contour>
  </outline>
</glyph>
<glyph name="i" format="2">
  <advance width="252.0"/>
  <unicode hex="0069"/>
  <anchor x="226.0" y="0.0" name="ogonek"/>
  <anchor x="126.4" y="0.0" name="bottom"/>
  <outline>
    <contour>
      <point x="126.4" y="569.2" type="curve" smooth="yes"/>
      <point x="203.6" y="569.2"/>
      <point x="240.8" y="606.4"/>
      <point x="240.8" y="679.2" type="curve" smooth="yes"/>
      <point x="240.8" y="753.6"/>
      <point x="202.0" y="790.0"/>
      <point x="126.4" y="790.0" type="curve" smooth="yes"/>
      <point x="50.0" y="790.0"/>
      <point x="11.199999999999998" y="753.6"/>
      <point x="11.199999999999998" y="679.2" type="curve" smooth="yes"/>
      <point x="11.199999999999998" y="605.6"/>
      <point x="50.0" y="569.2"/>
    </contour>
    <contour>
      <point x="26.0" y="0.0" type="line"/>
      <point x="226.0" y="0.0" type="line"/>
      <point x="226.0" y="550.0" type="line"/>
      <point x="26.0" y="550.0" type="line"/>
    </contour>
  </outline>
</glyph>
<glyph name="l" format="2">
  <advance width="295.6"/>
  <unicode hex="006C"/>
  <anchor x="148.0" y="395.0" name="center"/>
  <anchor x="126.4" y="740.0" name="top"/>
  <anchor x="258.0" y="740.0" name="topright"/>
  <anchor x="160.8" y="0.0" name="bottom"/>
  <outline>
    <contour>
      <point x="226.0" y="740.0" type="line"/>
      <point x="26.0" y="740.0" type="line"/>
      <point x="26.0" y="190.4" type="line" smooth="yes"/>
      <point x="26.0" y="47.0"/>
      <point x="77.6" y="-10.0"/>
      <point x="189.8" y="-10.0" type="curve" smooth="yes"/>
      <point x="234.4" y="-10.0"/>
      <point x="272.2" y="4.0"/>
      <point x="297.2" y="17.8" type="curve"/>
      <point x="282.40000000000003" y="179.2" type="line"/>
      <point x="271.0" y="176.6"/>
      <point x="261.0" y="174.8"/>
      <point x="253.6" y="174.8" type="curve" smooth="yes"/>
      <point x="236.6" y="174.8"/>
      <point x="226.0" y="182.2"/>
      <point x="226.0" y="214.8" type="curve" smooth="yes"/>
    </contour>
  </outline>
</glyph>
<glyph name="m" format="2">
  <advance width="758.8"/>
  <unicode hex="006D"/>
  <outline>
    <contour>
      <point x="26.0" y="0.0" type="line"/>
      <point x="226.8" y="0.0" type="line"/>
      <point x="226.8" y="369.40000000000003" type="line"/>
      <point x="236.4" y="374.8"/>
      <point x="245.6" y="378.40000000000003"/>
      <point x="255.39999999999998" y="378.40000000000003" type="curve" smooth="yes"/>
      <point x="268.4" y="378.40000000000003"/>
      <point x="279.8" y="370.20000000000005"/>
      <point x="279.8" y="345.59999999999997" type="curve" smooth="yes"/>
      <point x="279.8" y="0.0" type="line"/>
      <point x="480.6" y="0.0" type="line"/>
      <point x="480.6" y="358.79999999999995" type="line" smooth="yes"/>
      <point x="480.6" y="362.0"/>
      <point x="480.59999999999997" y="366.20000000000005"/>
      <point x="480.4" y="369.4" type="curve"/>
      <point x="491.79999999999995" y="375.2"/>
      <point x="500.6" y="378.6"/>
      <point x="510.0" y="378.6" type="curve" smooth="yes"/>
      <point x="522.8" y="378.6"/>
      <point x="533.6" y="370.59999999999997"/>
      <point x="533.6" y="345.59999999999997" type="curve" smooth="yes"/>
      <point x="533.6" y="0.0" type="line"/>
      <point x="734.4" y="0.0" type="line"/>
      <point x="734.4" y="411.2" type="line" smooth="yes"/>
      <point x="734.4" y="505.59999999999997"/>
      <point x="688.4" y="560.0"/>
      <point x="604.0" y="560.0" type="curve" smooth="yes"/>
      <point x="558.2" y="560.0"/>
      <point x="515.4" y="549.0"/>
      <point x="454.8" y="505.4" type="curve"/>
      <point x="434.0" y="541.5999999999999"/>
      <point x="400.4" y="560.0"/>
      <point x="347.2" y="560.0" type="curve" smooth="yes"/>
      <point x="304.2" y="560.0"/>
      <point x="258.8" y="548.2"/>
      <point x="207.0" y="508.40000000000003" type="curve"/>
      <point x="207.0" y="550.0" type="line"/>
      <point x="26.0" y="550.0" type="line"/>
    </contour>
  </outline>
</glyph>
<glyph name="n" format="2">
  <advance width="512.0"/>
  <unicode hex="006E"/>
  <anchor x="254.39999999999998" y="550.0" name="top"/>
  <anchor x="254.39999999999998" y="0.0" name="bottom"/>
  <outline>
    <contour>
      <point x="26.0" y="0.0" type="line"/>
      <point x="226.8" y="0.0" type="line"/>
      <point x="226.8" y="369.4" type="line"/>
      <point x="239.0" y="375.2"/>
      <point x="250.0" y="379.40000000000003"/>
      <point x="261.40000000000003" y="379.40000000000003" type="curve" smooth="yes"/>
      <point x="274.2" y="379.40000000000003"/>
      <point x="286.79999999999995" y="372.59999999999997"/>
      <point x="286.79999999999995" y="345.59999999999997" type="curve" smooth="yes"/>
      <point x="286.79999999999995" y="0.0" type="line"/>
      <point x="487.59999999999997" y="0.0" type="line"/>
      <point x="487.59999999999997" y="411.2" type="line" smooth="yes"/>
      <point x="487.59999999999997" y="502.59999999999997"/>
      <point x="444.0" y="560.0"/>
      <point x="350.8" y="560.0" type="curve" smooth="yes"/>
      <point x="303.8" y="560.0"/>
      <point x="260.40000000000003" y="548.0"/>
      <point x="207.0" y="508.4" type="curve"/>
      <point x="207.0" y="550.0" type="line"/>
      <point x="26.0" y="550.0" type="line"/>
    </contour>
  </outline>
</glyph>
<glyph name="o" format="2">
  <advance width="512.8"/>
  <unicode hex="006F"/>
  <anchor x="360.59999999999997" y="8.2" name="ogonek"/>
  <anchor x="256.4" y="550.0" name="top"/>
  <anchor x="400.8" y="540.0" name="topright"/>
  <anchor x="256.59999999999997" y="0.0" name="bottom"/>
  <outline>
    <contour>
      <point x="13.8" y="276.2" type="curve" smooth="yes"/>
      <point x="13.8" y="112.8"/>
      <point x="64.8" y="-10.0"/>
      <point x="256.59999999999997" y="-10.0" type="curve" smooth="yes"/>
      <point x="448.0" y="-10.0"/>
      <point x="499.0" y="112.8"/>
      <point x="499.0" y="276.2" type="curve" smooth="yes"/>
      <point x="499.0" y="437.0"/>
      <point x="451.6" y="560.0"/>
      <point x="256.59999999999997" y="560.0" type="curve" smooth="yes"/>
      <point x="61.2" y="560.0"/>
      <point x="13.8" y="437.0"/>
    </contour>
    <contour>
      <point x="222.0" y="276.0" type="curve" smooth="yes"/>
      <point x="222.0" y="376.2"/>
      <point x="229.20000000000002" y="391.8"/>
      <point x="256.4" y="391.8" type="curve" smooth="yes"/>
      <point x="283.0" y="391.8"/>
      <point x="290.79999999999995" y="376.2"/>
      <point x="290.79999999999995" y="276.0" type="curve" smooth="yes"/>
      <point x="290.79999999999995" y="174.79999999999998"/>
      <point x="281.8" y="159.0"/>
      <point x="256.4" y="159.0" type="curve" smooth="yes"/>
      <point x="230.20000000000002" y="159.0"/>
      <point x="222.0" y="174.79999999999998"/>
    </contour>
  </outline>
</glyph>
<glyph name="p" format="2">
  <advance width="518.6"/>
  <unicode hex="0070"/>
  <outline>
    <contour>
      <point x="26.0" y="-210.0" type="line"/>
      <point x="227.0" y="-210.0" type="line"/>
      <point x="227.0" y="-5.4" type="line"/>
      <point x="244.0" y="-8.2"/>
      <point x="264.40000000000003" y="-10.0"/>
      <point x="279.2" y="-10.0" type="curve" smooth="yes"/>
      <point x="429.2" y="-10.0"/>
      <point x="504.8" y="92.19999999999999"/>
      <point x="504.8" y="284.6" type="curve" smooth="yes"/>
      <point x="504.8" y="466.4"/>
      <point x="448.59999999999997" y="560.0"/>
      <point x="342.0" y="560.0" type="curve" smooth="yes"/>
      <point x="297.0" y="560.0"/>
      <point x="258.2" y="548.1999999999999"/>
      <point x="216.6" y="521.4" type="curve"/>
      <point x="207.0" y="550.0" type="line"/>
      <point x="26.0" y="550.0" type="line"/>
    </contour>
    <contour>
      <point x="258.2" y="146.20000000000002" type="curve" smooth="yes"/>
      <point x="247.2" y="146.20000000000002"/>
      <point x="236.4" y="148.8"/>
      <point x="226.8" y="154.0" type="curve"/>
      <point x="226.8" y="377.0" type="line"/>
      <point x="239.4" y="382.2"/>
      <point x="252.39999999999998" y="384.8"/>
      <point x="262.59999999999997" y="384.8" type="curve" smooth="yes"/>
      <point x="286.0" y="384.8"/>
      <point x="294.4" y="363.2"/>
      <point x="294.4" y="258.6" type="curve" smooth="yes"/>
      <point x="294.4" y="167.20000000000002"/>
      <point x="284.0" y="146.20000000000002"/>
    </contour>
  </outline>
</glyph>
<glyph name="q" format="2">
  <advance width="519.4"/>
  <unicode hex="0071"/>
  <outline>
    <contour>
      <point x="493.4" y="533.4" type="line"/>
      <point x="427.4" y="549.8000000000001"/>
      <point x="344.2" y="560.0"/>
      <point x="275.4" y="560.0" type="curve" smooth="yes"/>
      <point x="95.8" y="560.0"/>
      <point x="13.8" y="472.2"/>
      <point x="13.8" y="281.4" type="curve" smooth="yes"/>
      <point x="13.8" y="79.6"/>
      <point x="67.60000000000001" y="-10.0"/>
      <point x="183.0" y="-10.0" type="curve" smooth="yes"/>
      <point x="220.60000000000002" y="-10.0"/>
      <point x="261.8" y="3.0000000000000004"/>
      <point x="293.4" y="23.400000000000002" type="curve"/>
      <point x="293.4" y="-210.0" type="line"/>
      <point x="493.4" y="-210.0" type="line"/>
    </contour>
    <contour>
      <point x="292.6" y="400.0" type="curve"/>
      <point x="292.6" y="177.0" type="line"/>
      <point x="280.0" y="171.0"/>
      <point x="267.0" y="166.8"/>
      <point x="256.0" y="166.8" type="curve" smooth="yes"/>
      <point x="233.39999999999998" y="166.8"/>
      <point x="225.0" y="186.79999999999998"/>
      <point x="225.0" y="277.0" type="curve" smooth="yes"/>
      <point x="225.0" y="382.8"/>
      <point x="235.4" y="405.40000000000003"/>
      <point x="262.0" y="405.40000000000003" type="curve" smooth="yes"/>
      <point x="271.6" y="405.40000000000003"/>
      <point x="283.0" y="403.59999999999997"/>
    </contour>
  </outline>
</glyph>
<glyph name="r" format="2">
  <advance width="373.40000000000003"/>
  <unicode hex="0072"/>
  <anchor x="191.0" y="550.0" name="top"/>
  <anchor x="125.6" y="0.0" name="bottom"/>
  <outline>
    <contour>
      <point x="206.2" y="550.0" type="line"/>
      <point x="26.0" y="550.0" type="line"/>
      <point x="26.0" y="0.0" type="line"/>
      <point x="225.2" y="0.0" type="line"/>
      <point x="225.2" y="345.40000000000003" type="line"/>
      <point x="249.4" y="357.0"/>
      <point x="267.20000000000005" y="359.8"/>
      <point x="287.0" y="359.8" type="curve" smooth="yes"/>
      <point x="299.40000000000003" y="359.8"/>
      <point x="319.0" y="358.59999999999997"/>
      <point x="338.0" y="353.59999999999997" type="curve"/>
      <point x="370.8" y="550.1999999999999" type="line"/>
      <point x="348.20000000000005" y="558.2"/>
      <point x="331.59999999999997" y="560.0"/>
      <point x="318.2" y="560.0" type="curve" smooth="yes"/>
      <point x="270.4" y="560.0"/>
      <point x="248.0" y="543.0"/>
      <point x="206.2" y="497.0" type="curve"/>
    </contour>
  </outline>
</glyph>
<glyph name="s" format="2">
  <advance width="430.5"/>
  <unicode hex="0073"/>
  <anchor x="216.0" y="550.0" name="top"/>
  <anchor x="219.0" y="0.0" name="bottom"/>
  <outline>
    <contour>
      <point x="15.5" y="20.5" type="line"/>
      <point x="73.5" y="-1.0"/>
      <point x="128.5" y="-10.0"/>
      <point x="196.0" y="-10.0" type="curve" smooth="yes"/>
      <point x="329.0" y="-10.0"/>
      <point x="422.5" y="46.0"/>
      <point x="422.5" y="183.0" type="curve" smooth="yes"/>
      <point x="422.5" y="306.0"/>
      <point x="353.5" y="341.5"/>
      <point x="278.0" y="355.0" type="curve" smooth="yes"/>
      <point x="223.5" y="364.5"/>
      <point x="193.5" y="364.0"/>
      <point x="193.5" y="380.0" type="curve" smooth="yes"/>
      <point x="193.5" y="392.5"/>
      <point x="209.0" y="393.5"/>
      <point x="232.5" y="393.5" type="curve" smooth="yes"/>
      <point x="286.5" y="393.5"/>
      <point x="330.5" y="385.0"/>
      <point x="374.5" y="371.0" type="curve"/>
      <point x="399.5" y="530.5" type="line"/>
      <point x="356.0" y="548.0"/>
      <point x="292.5" y="560.0"/>
      <point x="230.0" y="560.0" type="curve" smooth="yes"/>
      <point x="87.5" y="560.0"/>
      <point x="12.5" y="495.5"/>
      <point x="12.5" y="363.0" type="curve" smooth="yes"/>
      <point x="12.5" y="274.0"/>
      <point x="49.5" y="221.0"/>
      <point x="124.5" y="202.0" type="curve" smooth="yes"/>
      <point x="180.5" y="188.0"/>
      <point x="233.5" y="191.0"/>
      <point x="233.5" y="168.5" type="curve" smooth="yes"/>
      <point x="233.5" y="160.0"/>
      <point x="222.0" y="152.5"/>
      <point x="194.0" y="152.5" type="curve" smooth="yes"/>
      <point x="149.0" y="152.5"/>
      <point x="75.5" y="163.0"/>
      <point x="34.5" y="176.5" type="curve"/>
    </contour>
  </outline>
</glyph>
<glyph name="t" format="2">
  <advance width="359.6"/>
  <unicode hex="0074"/>
  <anchor x="174.4" y="275.0" name="center"/>
  <anchor x="168.20000000000002" y="656.2" name="top"/>
  <anchor x="283.2" y="770.0" name="topright"/>
  <anchor x="199.39999999999998" y="0.0" name="bottom"/>
  <outline>
    <contour>
      <point x="212.0" y="-10.0" type="curve" smooth="yes"/>
      <point x="255.40000000000003" y="-10.0"/>
      <point x="306.6" y="-5.0"/>
      <point x="358.20000000000005" y="16.4" type="curve"/>
      <point x="330.59999999999997" y="175.0" type="line"/>
      <point x="312.59999999999997" y="171.4"/>
      <point x="298.2" y="169.2"/>
      <point x="286.8" y="169.2" type="curve" smooth="yes"/>
      <point x="268.0" y="169.2"/>
      <point x="256.0" y="177.6"/>
      <point x="256.0" y="218.6" type="curve" smooth="yes"/>
      <point x="256.0" y="394.2" type="line"/>
      <point x="335.40000000000003" y="394.2" type="line"/>
      <point x="335.40000000000003" y="550.0" type="line"/>
      <point x="256.0" y="550.0" type="line"/>
      <point x="256.0" y="656.2" type="line"/>
      <point x="80.39999999999999" y="656.2" type="line"/>
      <point x="56.0" y="550.0" type="line"/>
      <point x="4.8" y="541.2" type="line"/>
      <point x="4.8" y="395.0" type="line"/>
      <point x="56.0" y="395.0" type="line"/>
      <point x="56.0" y="198.20000000000002" type="line" smooth="yes"/>
      <point x="56.0" y="52.800000000000004"/>
      <point x="111.6" y="-10.0"/>
    </contour>
  </outline>
</glyph>
<glyph name="u" format="2">
  <advance width="529.6"/>
  <unicode hex="0075"/>
  <anchor x="528.0" y="19.4" name="ogonek"/>
  <anchor x="257.4" y="550.0" name="top"/>
  <anchor x="485.2" y="550.0" name="topright"/>
  <anchor x="265.4" y="0.0" name="bottom"/>
  <outline>
    <contour>
      <point x="168.4" y="-10.0" type="curve" smooth="yes"/>
      <point x="221.8" y="-10.0"/>
      <point x="266.0" y="7.599999999999999"/>
      <point x="308.20000000000005" y="38.4" type="curve"/>
      <point x="331.8" y="9.8"/>
      <point x="362.2" y="-10.0"/>
      <point x="412.8" y="-10.0" type="curve" smooth="yes"/>
      <point x="462.6" y="-10.0"/>
      <point x="501.59999999999997" y="3.8000000000000003"/>
      <point x="528.0" y="19.4" type="curve"/>
      <point x="514.4" y="180.20000000000002" type="line"/>
      <point x="510.2" y="178.60000000000002"/>
      <point x="504.0" y="177.6"/>
      <point x="499.0" y="177.6" type="curve" smooth="yes"/>
      <point x="490.2" y="177.6"/>
      <point x="485.2" y="182.8"/>
      <point x="485.2" y="203.8" type="curve" smooth="yes"/>
      <point x="485.2" y="550.0" type="line"/>
      <point x="285.2" y="550.0" type="line"/>
      <point x="285.2" y="179.4" type="line"/>
      <point x="272.0" y="172.2"/>
      <point x="262.4" y="169.8"/>
      <point x="251.2" y="169.8" type="curve" smooth="yes"/>
      <point x="238.0" y="169.8"/>
      <point x="225.2" y="176.60000000000002"/>
      <point x="225.2" y="201.6" type="curve" smooth="yes"/>
      <point x="225.2" y="550.0" type="line"/>
      <point x="24.4" y="550.0" type="line"/>
      <point x="24.4" y="158.79999999999998" type="line" smooth="yes"/>
      <point x="24.4" y="36.6"/>
      <point x="85.2" y="-10.0"/>
    </contour>
  </outline>
</glyph>
<glyph name="v" format="2">
  <advance width="532.5"/>
  <unicode hex="0076"/>
  <outline>
    <contour>
      <point x="142.0" y="0.0" type="line"/>
      <point x="388.5" y="0.0" type="line"/>
      <point x="530.0" y="550.0" type="line"/>
      <point x="315.99999999999994" y="550.0" type="line"/>
      <point x="269.5" y="175.0" type="line"/>
      <point x="218.0" y="550.0" type="line"/>
      <point x="2.0" y="550.0" type="line"/>
    </contour>
  </outline>
</glyph>
<glyph name="w" format="2">
  <advance width="747.9"/>
  <unicode hex="0077"/>
  <anchor x="373.8" y="550.0" name="top"/>
  <anchor x="373.8" y="0.0" name="bottom"/>
  <outline>
    <contour>
      <point x="92.8" y="0.0" type="line"/>
      <point x="342.1" y="0.0" type="line"/>
      <point x="373.2" y="319.2" type="line"/>
      <point x="405.1" y="0.0" type="line"/>
      <point x="650.4" y="0.0" type="line"/>
      <point x="741.6" y="549.9" type="line"/>
      <point x="542.3" y="550.2" type="line"/>
      <point x="517.9" y="176.0" type="line"/>
      <point x="481.2" y="550.0" type="line"/>
      <point x="266.2" y="550.0" type="line"/>
      <point x="229.5" y="176.1" type="line"/>
      <point x="208.4" y="550.2" type="line"/>
      <point x="5.8" y="549.9" type="line"/>
    </contour>
  </outline>
</glyph>
<glyph name="x" format="2">
  <advance width="532.1"/>
  <unicode hex="0078"/>
  <outline>
    <contour>
      <point x="2.0999999999999996" y="0.19999999999999973" type="line"/>
      <point x="234.4" y="0.09999999999999998" type="line"/>
      <point x="269.5" y="181.9" type="line"/>
      <point x="305.4" y="0.09999999999999998" type="line"/>
      <point x="531.8" y="0.19999999999999973" type="line"/>
      <point x="415.8" y="281.3" type="line"/>
      <point x="525.2" y="550.2" type="line"/>
      <point x="303.8" y="550.3" type="line"/>
      <point x="268.8" y="362.4" type="line"/>
      <point x="235.8" y="550.0" type="line"/>
      <point x="12.0" y="550.0" type="line"/>
      <point x="119.9" y="278.9" type="line"/>
    </contour>
  </outline>
</glyph>
<glyph name="y" format="2">
  <advance width="538.5"/>
  <unicode hex="0079"/>
  <anchor x="259.50000000000006" y="550.0" name="top"/>
  <anchor x="473.5" y="0.0" name="bottom"/>
  <outline>
    <contour>
      <point x="125.0" y="-210.0" type="line"/>
      <point x="342.0" y="-210.0" type="line"/>
      <point x="536.5000000000001" y="550.0" type="line"/>
      <point x="320.5" y="550.0" type="line"/>
      <point x="271.0" y="166.0" type="line"/>
      <point x="224.00000000000003" y="550.0" type="line"/>
      <point x="2.0" y="550.0" type="line"/>
      <point x="161.5" y="0.0" type="line"/>
      <point x="182.0" y="0.0" type="line"/>
    </contour>
  </outline>
</glyph>
<glyph name="z" format="2">
  <advance width="461.2"/>
  <unicode hex="007A"/>
  <anchor x="233.0" y="550.0" name="top"/>
  <outline>
    <contour>
      <point x="17.6" y="0.0" type="line"/>
      <point x="442.4" y="0.0" type="line"/>
      <point x="442.4" y="167.6" type="line"/>
      <point x="249.2" y="167.6" type="line"/>
      <point x="433.6" y="402.0" type="line"/>
      <point x="433.6" y="550.0" type="line"/>
      <point x="28.8" y="550.0" type="line"/>
      <point x="28.8" y="384.0" type="line"/>
      <point x="204.0" y="384.0" type="line"/>
      <point x="17.6" y="150.4" type="line"/>
    </contour>
  </outline>
</glyph>
<glyph name="braceleft" format="2">
  <advance width="291.2"/>
  <unicode hex="007B"/>
  <outline>
    <contour>
      <point x="33.400000000000006" y="-33.800000000000004" type="curve" smooth="yes"/>
      <point x="33.400000000000006" y="-163.79999999999998"/>
      <point x="107.0" y="-210.8"/>
      <point x="185.6" y="-210.8" type="curve" smooth="yes"/>
      <point x="277.2" y="-210.8" type="line"/>
      <point x="277.2" y="-60.8" type="line"/>
      <point x="237.6" y="-60.8" type="line" smooth="yes"/>
      <point x="211.6" y="-60.8"/>
      <point x="199.79999999999998" y="-41.800000000000004"/>
      <point x="199.79999999999998" y="-8.799999999999999" type="curve" smooth="yes"/>
      <point x="199.79999999999998" y="34.2"/>
      <point x="226.0" y="78.2"/>
      <point x="226.0" y="130.2" type="curve" smooth="yes"/>
      <point x="226.0" y="178.20000000000002"/>
      <point x="212.0" y="226.6"/>
      <point x="157.0" y="265.0" type="curve"/>
      <point x="212.0" y="301.40000000000003"/>
      <point x="226.0" y="351.0"/>
      <point x="226.0" y="399.0" type="curve" smooth="yes"/>
      <point x="226.0" y="451.0"/>
      <point x="199.79999999999998" y="495.0"/>
      <point x="199.79999999999998" y="538.0" type="curve" smooth="yes"/>
      <point x="199.79999999999998" y="571.0"/>
      <point x="211.6" y="590.0"/>
      <point x="237.6" y="590.0" type="curve" smooth="yes"/>
      <point x="277.2" y="590.0" type="line"/>
      <point x="277.2" y="740.0" type="line"/>
      <point x="185.6" y="740.0" type="line" smooth="yes"/>
      <point x="107.0" y="740.0"/>
      <point x="33.400000000000006" y="693.0"/>
      <point x="33.400000000000006" y="563.0" type="curve" smooth="yes"/>
      <point x="33.400000000000006" y="476.0"/>
      <point x="67.6" y="432.0"/>
      <point x="67.6" y="390.0" type="curve" smooth="yes"/>
      <point x="67.6" y="358.0"/>
      <point x="61.2" y="343.0"/>
      <point x="35.2" y="343.0" type="curve" smooth="yes"/>
      <point x="18.799999999999997" y="343.0" type="line"/>
      <point x="18.799999999999997" y="186.2" type="line"/>
      <point x="35.2" y="186.2" type="line" smooth="yes"/>
      <point x="61.2" y="186.2"/>
      <point x="67.6" y="171.20000000000002"/>
      <point x="67.6" y="139.2" type="curve" smooth="yes"/>
      <point x="67.6" y="97.2"/>
      <point x="33.400000000000006" y="53.2"/>
    </contour>
  </outline>
</glyph>
<glyph name="bar" format="2">
  <advance width="208.0"/>
  <unicode hex="007C"/>
  <outline>
    <contour>
      <point x="187.0" y="790.8" type="line"/>
      <point x="21.0" y="790.8" type="line"/>
      <point x="21.0" y="-210.0" type="line"/>
      <point x="187.0" y="-210.0" type="line"/>
    </contour>
  </outline>
</glyph>
<glyph name="braceright" format="2">
  <advance width="291.2"/>
  <unicode hex="007D"/>
  <outline>
    <contour>
      <point x="14.0" y="-60.8" type="line"/>
      <point x="14.0" y="-210.8" type="line"/>
      <point x="105.6" y="-210.8" type="line" smooth="yes"/>
      <point x="184.2" y="-210.8"/>
      <point x="257.8" y="-163.79999999999998"/>
      <point x="257.8" y="-33.800000000000004" type="curve" smooth="yes"/>
      <point x="257.8" y="53.2"/>
      <point x="223.6" y="97.2"/>
      <point x="223.6" y="139.2" type="curve" smooth="yes"/>
      <point x="223.6" y="171.20000000000002"/>
      <point x="230.0" y="186.2"/>
      <point x="256.0" y="186.2" type="curve" smooth="yes"/>
      <point x="272.4" y="186.2" type="line"/>
      <point x="272.4" y="343.0" type="line"/>
      <point x="256.0" y="343.0" type="line" smooth="yes"/>
      <point x="230.0" y="343.0"/>
      <point x="223.6" y="358.0"/>
      <point x="223.6" y="390.0" type="curve" smooth="yes"/>
      <point x="223.6" y="432.0"/>
      <point x="257.8" y="476.0"/>
      <point x="257.8" y="563.0" type="curve" smooth="yes"/>
      <point x="257.8" y="693.0"/>
      <point x="184.2" y="740.0"/>
      <point x="105.6" y="740.0" type="curve" smooth="yes"/>
      <point x="14.0" y="740.0" type="line"/>
      <point x="14.0" y="590.0" type="line"/>
      <point x="40.0" y="590.0" type="line" smooth="yes"/>
      <point x="66.0" y="590.0"/>
      <point x="77.8" y="571.0"/>
      <point x="77.8" y="538.0" type="curve" smooth="yes"/>
      <point x="77.8" y="495.0"/>
      <point x="51.6" y="451.0"/>
      <point x="51.6" y="399.0" type="curve" smooth="yes"/>
      <point x="51.6" y="351.0"/>
      <point x="65.6" y="301.40000000000003"/>
      <point x="120.6" y="265.0" type="curve"/>
      <point x="65.6" y="226.6"/>
      <point x="51.6" y="178.20000000000002"/>
      <point x="51.6" y="130.2" type="curve" smooth="yes"/>
      <point x="51.6" y="78.2"/>
      <point x="77.8" y="34.2"/>
      <point x="77.8" y="-8.799999999999999" type="curve" smooth="yes"/>
      <point x="77.8" y="-41.800000000000004"/>
      <point x="66.0" y="-60.8"/>
      <point x="40.0" y="-60.8" type="curve" smooth="yes"/>
    </contour>
  </outline>
</glyph>
<glyph name="asciitilde" format="2">
  <advance width="492.4"/>
  <unicode hex="007E"/>
  <outline>
    <contour>
      <point x="438.8" y="232.8" type="curve"/>
      <point x="438.8" y="398.8" type="line"/>
      <point x="411.6" y="373.8"/>
      <point x="381.8" y="364.8"/>
      <point x="348.40000000000003" y="364.8" type="curve" smooth="yes"/>
      <point x="261.8" y="364.8"/>
      <point x="228.0" y="432.8"/>
      <point x="150.8" y="432.8" type="curve" smooth="yes"/>
      <point x="98.8" y="432.8"/>
      <point x="60.4" y="405.79999999999995"/>
      <point x="53.8" y="398.8" type="curve"/>
      <point x="53.8" y="232.79999999999998" type="line"/>
      <point x="65.8" y="243.0"/>
      <point x="102.2" y="266.0"/>
      <point x="148.6" y="266.0" type="curve" smooth="yes"/>
      <point x="228.0" y="266.0"/>
      <point x="264.2" y="197.8"/>
      <point x="348.59999999999997" y="197.8" type="curve" smooth="yes"/>
      <point x="381.2" y="197.8"/>
      <point x="412.6" y="208.60000000000002"/>
    </contour>
  </outline>
</glyph>
<glyph name="exclamdown" format="2">
  <advance width="238.0"/>
  <unicode hex="00A1"/>
  <outline>
    <contour>
      <point x="206.39999999999998" y="290.8" type="line"/>
      <point x="34.6" y="290.8" type="line"/>
      <point x="17.800000000000004" y="-190.2" type="line"/>
      <point x="220.79999999999998" y="-190.2" type="line"/>
    </contour>
    <contour>
      <point x="226.0" y="443.6" type="curve" smooth="yes"/>
      <point x="226.0" y="521.0"/>
      <point x="194.6" y="560.0"/>
      <point x="119.0" y="560.0" type="curve" smooth="yes"/>
      <point x="43.4" y="560.0"/>
      <point x="12.0" y="521.0"/>
      <point x="12.0" y="443.6" type="curve" smooth="yes"/>
      <point x="12.0" y="365.2"/>
      <point x="43.4" y="326.2"/>
      <point x="119.0" y="326.2" type="curve" smooth="yes"/>
      <point x="194.6" y="326.2"/>
      <point x="226.0" y="365.2"/>
    </contour>
  </outline>
</glyph>
<glyph name="cent" format="2">
  <advance width="546.0"/>
  <unicode hex="00A2"/>
  <outline>
    <contour>
      <point x="302.0" y="-10.8" type="curve" smooth="yes"/>
      <point x="365.4" y="-10.8"/>
      <point x="431.0" y="-0.3999999999999999"/>
      <point x="478.6" y="17.8" type="curve"/>
      <point x="443.20000000000005" y="194.4" type="line"/>
      <point x="407.4" y="185.6"/>
      <point x="380.59999999999997" y="182.0"/>
      <point x="353.4" y="182.0" type="curve" smooth="yes"/>
      <point x="306.20000000000005" y="182.0"/>
      <point x="279.0" y="211.0"/>
      <point x="279.0" y="272.0" type="curve" smooth="yes"/>
      <point x="279.0" y="340.40000000000003"/>
      <point x="302.0" y="366.2"/>
      <point x="352.0" y="366.2" type="curve" smooth="yes"/>
      <point x="383.4" y="366.2"/>
      <point x="411.8" y="361.4"/>
      <point x="439.6" y="355.59999999999997" type="curve"/>
      <point x="470.2" y="540.4" type="line"/>
      <point x="433.79999999999995" y="549.4000000000001"/>
      <point x="376.0" y="561.6"/>
      <point x="307.6" y="561.6" type="curve" smooth="yes"/>
      <point x="125.39999999999999" y="561.6"/>
      <point x="72.2" y="423.4"/>
      <point x="72.2" y="266.0" type="curve" smooth="yes"/>
      <point x="72.2" y="82.8"/>
      <point x="148.6" y="-10.8"/>
    </contour>
    <contour>
      <point x="209.20000000000002" y="-105.8" type="line"/>
      <point x="378.2" y="-105.8" type="line"/>
      <point x="378.2" y="12.799999999999999" type="line"/>
      <point x="209.20000000000002" y="21.2" type="line"/>
    </contour>
    <contour>
      <point x="209.20000000000002" y="526.2" type="line"/>
      <point x="378.2" y="539.8" type="line"/>
      <point x="378.2" y="654.2" type="line"/>
      <point x="209.20000000000002" y="654.2" type="line"/>
    </contour>
  </outline>
</glyph>
<glyph name="sterling" format="2">
  <advance width="546.0"/>
  <unicode hex="00A3"/>
  <outline>
    <contour>
      <point x="65.0" y="0.0" type="line"/>
      <point x="482.6" y="0.0" type="line"/>
      <point x="482.6" y="168.0" type="line"/>
      <point x="287.0" y="168.0" type="line"/>
      <point x="314.6" y="189.8"/>
      <point x="347.40000000000003" y="224.6"/>
      <point x="347.40000000000003" y="276.8" type="curve" smooth="yes"/>
      <point x="347.40000000000003" y="340.6"/>
      <point x="303.0" y="404.6"/>
      <point x="303.0" y="454.0" type="curve" smooth="yes"/>
      <point x="303.0" y="506.6"/>
      <point x="334.0" y="524.0"/>
      <point x="368.0" y="524.0" type="curve" smooth="yes"/>
      <point x="403.20000000000005" y="524.0"/>
      <point x="430.4" y="519.1999999999999"/>
      <point x="455.79999999999995" y="511.00000000000006" type="curve"/>
      <point x="484.4" y="674.2" type="line"/>
      <point x="438.6" y="698.0"/>
      <point x="387.20000000000005" y="710.0"/>
      <point x="328.0" y="710.0" type="curve" smooth="yes"/>
      <point x="175.4" y="710.0"/>
      <point x="95.60000000000001" y="633.8000000000001"/>
      <point x="95.60000000000001" y="518.8" type="curve" smooth="yes"/>
      <point x="95.60000000000001" y="405.8"/>
      <point x="158.0" y="361.8"/>
      <point x="158.0" y="259.40000000000003" type="curve" smooth="yes"/>
      <point x="158.0" y="219.20000000000002"/>
      <point x="130.4" y="168.8"/>
      <point x="65.0" y="128.0" type="curve"/>
    </contour>
    <contour>
      <point x="61.6" y="304.2" type="line"/>
      <point x="447.4" y="304.2" type="line"/>
      <point x="447.4" y="399.2" type="line"/>
      <point x="61.6" y="399.2" type="line"/>
    </contour>
  </outline>
</glyph>
<glyph name="currency" format="2">
  <advance width="460.0"/>
  <unicode hex="00A4"/>
  <outline>
    <contour>
      <point x="27.6" y="385.4" type="line"/>
      <point x="74.4" y="337.6" type="line"/>
      <point x="71.4" y="324.8"/>
      <point x="69.8" y="311.8"/>
      <point x="69.8" y="298.4" type="curve" smooth="yes"/>
      <point x="69.8" y="284.0"/>
      <point x="71.4" y="269.2"/>
      <point x="75.4" y="255.6" type="curve"/>
      <point x="27.6" y="207.8" type="line"/>
      <point x="141.2" y="94.2" type="line"/>
      <point x="198.6" y="151.4" type="line"/>
      <point x="208.4" y="149.4"/>
      <point x="220.0" y="149.4"/>
      <point x="231.8" y="149.4" type="curve" smooth="yes"/>
      <point x="242.4" y="149.4"/>
      <point x="251.8" y="149.6"/>
      <point x="261.2" y="150.8" type="curve"/>
      <point x="318.8" y="94.2" type="line"/>
      <point x="432.4" y="207.8" type="line"/>
      <point x="386.8" y="252.6" type="line"/>
      <point x="391.2" y="267.6"/>
      <point x="393.6" y="282.8"/>
      <point x="393.6" y="298.4" type="curve" smooth="yes"/>
      <point x="393.6" y="312.2"/>
      <point x="391.4" y="326.4"/>
      <point x="387.6" y="340.6" type="curve"/>
      <point x="432.4" y="385.4" type="line"/>
      <point x="318.8" y="499.0" type="line"/>
      <point x="264.4" y="444.6" type="line"/>
      <point x="254.2" y="446.0"/>
      <point x="243.2" y="447.0"/>
      <point x="231.8" y="447.0" type="curve" smooth="yes"/>
      <point x="218.4" y="447.0"/>
      <point x="206.8" y="445.2"/>
      <point x="195.4" y="444.0" type="curve"/>
      <point x="141.2" y="499.0" type="line"/>
    </contour>
    <contour>
      <point x="231.6" y="267.4" type="curve" smooth="yes"/>
      <point x="212.4" y="267.4"/>
      <point x="201.4" y="278.2"/>
      <point x="201.4" y="297.6" type="curve" smooth="yes"/>
      <point x="201.4" y="314.8"/>
      <point x="212.2" y="328.2"/>
      <point x="231.6" y="328.2" type="curve" smooth="yes"/>
      <point x="251.0" y="328.2"/>
      <point x="262.0" y="314.8"/>
      <point x="262.0" y="297.6" type="curve" smooth="yes"/>
      <point x="262.0" y="278.2"/>
      <point x="250.8" y="267.4"/>
    </contour>
  </outline>
</glyph>
<glyph name="yen" format="2">
  <advance width="577.0"/>
  <unicode hex="00A5"/>
  <outline>
    <contour>
      <point x="51.0" y="285.0" type="line"/>
      <point x="201.5" y="285.0" type="line"/>
      <point x="201.5" y="256.5" type="line"/>
      <point x="51.0" y="256.5" type="line"/>
      <point x="51.0" y="165.5" type="line"/>
      <point x="201.5" y="165.5" type="line"/>
      <point x="201.5" y="0.0" type="line"/>
      <point x="376.5" y="0.0" type="line"/>
      <point x="376.5" y="165.5" type="line"/>
      <point x="527.0" y="165.5" type="line"/>
      <point x="527.0" y="256.5" type="line"/>
      <point x="376.5" y="256.5" type="line"/>
      <point x="376.5" y="285.0" type="line"/>
      <point x="527.0" y="285.0" type="line"/>
      <point x="527.0" y="376.0" type="line"/>
      <point x="376.5" y="376.0" type="line"/>
      <point x="576.5" y="699.0" type="line"/>
      <point x="382.5" y="701.0" type="line"/>
      <point x="289.5" y="486.0" type="line"/>
      <point x="194.5" y="701.0" type="line"/>
      <point x="0.5" y="699.0" type="line"/>
      <point x="201.5" y="376.0" type="line"/>
      <point x="51.0" y="376.0" type="line"/>
    </contour>
  </outline>
</glyph>
<glyph name="brokenbar" format="2">
  <advance width="207.2"/>
  <unicode hex="00A6"/>
  <outline>
    <contour>
      <point x="186.2" y="391.0" type="line"/>
      <point x="186.2" y="790.8" type="line"/>
      <point x="21.0" y="790.8" type="line"/>
      <point x="21.0" y="391.0" type="line"/>
    </contour>
    <contour>
      <point x="21.0" y="190.8" type="line"/>
      <point x="21.0" y="-210.0" type="line"/>
      <point x="186.2" y="-210.0" type="line"/>
      <point x="186.2" y="190.8" type="line"/>
    </contour>
  </outline>
</glyph>
<glyph name="section" format="2">
  <advance width="539.6"/>
  <unicode hex="00A7"/>
  <outline>
    <contour>
      <point x="212.4" y="-220.8" type="curve" smooth="yes"/>
      <point x="392.6" y="-220.8"/>
      <point x="498.2" y="-99.8"/>
      <point x="498.2" y="72.0" type="curve" smooth="yes"/>
      <point x="498.2" y="142.0"/>
      <point x="476.8" y="236.0"/>
      <point x="425.4" y="332.4" type="curve" smooth="yes"/>
      <point x="380.4" y="425.0"/>
      <point x="360.4" y="469.79999999999995"/>
      <point x="360.4" y="499.59999999999997" type="curve" smooth="yes"/>
      <point x="360.4" y="528.1999999999999"/>
      <point x="377.2" y="546.1999999999999"/>
      <point x="406.8" y="546.1999999999999" type="curve" smooth="yes"/>
      <point x="419.2" y="546.1999999999999"/>
      <point x="430.0" y="544.1999999999999"/>
      <point x="443.40000000000003" y="537.4000000000001" type="curve"/>
      <point x="479.2" y="722.4" type="line"/>
      <point x="443.2" y="739.6"/>
      <point x="390.0" y="750.0"/>
      <point x="337.6" y="750.0" type="curve" smooth="yes"/>
      <point x="151.0" y="750.0"/>
      <point x="36.6" y="643.5999999999999"/>
      <point x="42.2" y="474.0" type="curve" smooth="yes"/>
      <point x="44.6" y="399.8"/>
      <point x="55.2" y="331.20000000000005"/>
      <point x="121.39999999999999" y="194.0" type="curve" smooth="yes"/>
      <point x="165.6" y="101.39999999999999"/>
      <point x="187.2" y="63.6"/>
      <point x="187.2" y="26.6" type="curve" smooth="yes"/>
      <point x="187.20000000000002" y="-4.3999999999999995"/>
      <point x="166.39999999999998" y="-18.4"/>
      <point x="133.39999999999998" y="-18.4" type="curve" smooth="yes"/>
      <point x="115.39999999999999" y="-18.4"/>
      <point x="96.39999999999999" y="-14.0"/>
      <point x="79.60000000000001" y="-2.5999999999999996" type="curve"/>
      <point x="45.2" y="-184.79999999999998" type="line"/>
      <point x="85.80000000000001" y="-206.6"/>
      <point x="148.4" y="-220.8"/>
    </contour>
    <contour>
      <point x="208.2" y="-102.39999999999999" type="curve" smooth="yes"/>
      <point x="188.8" y="-102.39999999999999"/>
      <point x="167.20000000000002" y="-97.6"/>
      <point x="145.0" y="-85.8" type="curve"/>
      <point x="189.39999999999998" y="-114.2" type="line"/>
      <point x="270.2" y="-111.8"/>
      <point x="328.2" y="-55.0"/>
      <point x="328.2" y="31.0" type="curve" smooth="yes"/>
      <point x="328.2" y="88.0"/>
      <point x="310.20000000000005" y="151.0"/>
      <point x="258.6" y="260.0" type="curve" smooth="yes"/>
      <point x="208.6" y="365.8"/>
      <point x="188.79999999999998" y="421.8"/>
      <point x="188.79999999999998" y="487.0" type="curve" smooth="yes"/>
      <point x="188.79999999999998" y="555.6"/>
      <point x="232.6" y="608.2"/>
      <point x="285.40000000000003" y="608.2" type="curve" smooth="yes"/>
      <point x="308.79999999999995" y="608.2"/>
      <point x="324.2" y="603.0"/>
      <point x="341.0" y="588.2" type="curve"/>
      <point x="314.8" y="628.2" type="line"/>
      <point x="267.2" y="619.4"/>
      <point x="218.2" y="576.0"/>
      <point x="218.20000000000002" y="508.8" type="curve" smooth="yes"/>
      <point x="218.20000000000002" y="454.20000000000005"/>
      <point x="233.0" y="396.8"/>
      <point x="285.8" y="283.4" type="curve" smooth="yes"/>
      <point x="345.0" y="157.6"/>
      <point x="359.0" y="101.39999999999999"/>
      <point x="359.0" y="52.800000000000004" type="curve" smooth="yes"/>
      <point x="359.0" y="-36.8"/>
      <point x="305.40000000000003" y="-102.39999999999999"/>
    </contour>
  </outline>
</glyph>
<glyph name="copyright" format="2">
  <advance width="765.6"/>
  <unicode hex="00A9"/>
  <outline>
    <contour>
      <point x="382.8" y="51.800000000000004" type="curve" smooth="yes"/>
      <point x="194.2" y="51.800000000000004"/>
      <point x="101.0" y="175.4"/>
      <point x="101.0" y="350.4" type="curve" smooth="yes"/>
      <point x="101.0" y="525.8"/>
      <point x="194.4" y="648.4"/>
      <point x="382.8" y="648.4" type="curve" smooth="yes"/>
      <point x="573.6" y="648.4"/>
      <point x="663.8" y="525.8"/>
      <point x="663.8" y="350.4" type="curve" smooth="yes"/>
      <point x="663.8" y="175.4"/>
      <point x="573.8000000000001" y="51.800000000000004"/>
    </contour>
    <contour>
      <point x="382.8" y="710.0" type="curve" smooth="yes"/>
      <point x="157.0" y="710.0"/>
      <point x="35.0" y="552.6"/>
      <point x="35.0" y="350.4" type="curve" smooth="yes"/>
      <point x="35.0" y="149.4"/>
      <point x="156.39999999999998" y="-10.0"/>
      <point x="382.8" y="-10.0" type="curve" smooth="yes"/>
      <point x="609.1999999999999" y="-10.0"/>
      <point x="730.6" y="149.4"/>
      <point x="730.6" y="350.4" type="curve" smooth="yes"/>
      <point x="730.6" y="552.6"/>
      <point x="608.5999999999999" y="710.0"/>
    </contour>
    <contour>
      <point x="227.6" y="353.20000000000005" type="curve" smooth="yes"/>
      <point x="227.6" y="197.6"/>
      <point x="288.6" y="128.79999999999998"/>
      <point x="389.0" y="128.79999999999998" type="curve" smooth="yes"/>
      <point x="427.2" y="128.79999999999998"/>
      <point x="464.40000000000003" y="133.4"/>
      <point x="501.6" y="151.20000000000002" type="curve"/>
      <point x="482.59999999999997" y="263.2" type="line"/>
      <point x="454.79999999999995" y="254.79999999999998"/>
      <point x="432.6" y="250.20000000000002"/>
      <point x="408.0" y="250.20000000000002" type="curve" smooth="yes"/>
      <point x="372.4" y="250.20000000000002"/>
      <point x="362.2" y="271.0"/>
      <point x="362.2" y="348.6" type="curve" smooth="yes"/>
      <point x="362.2" y="435.0"/>
      <point x="375.4" y="460.8"/>
      <point x="412.6" y="460.8" type="curve" smooth="yes"/>
      <point x="432.0" y="460.8"/>
      <point x="464.79999999999995" y="453.8"/>
      <point x="483.79999999999995" y="448.6" type="curve"/>
      <point x="505.99999999999994" y="558.4000000000001" type="line"/>
      <point x="476.2" y="575.1999999999999"/>
      <point x="430.6" y="582.6"/>
      <point x="389.4" y="582.6" type="curve" smooth="yes"/>
      <point x="294.0" y="582.6"/>
      <point x="227.6" y="525.0"/>
    </contour>
  </outline>
</glyph>
<glyph name="ordfeminine" format="2">
  <advance width="362.0"/>
  <unicode hex="00AA"/>
  <outline>
    <contour>
      <point x="32.599999999999994" y="221.0" type="line"/>
      <point x="336.79999999999995" y="221.0" type="line"/>
      <point x="336.79999999999995" y="320.59999999999997" type="line"/>
      <point x="32.599999999999994" y="320.59999999999997" type="line"/>
    </contour>
    <component base="a.superior" xOffset="8.0"/>
  </outline>
</glyph>
<glyph name="logicalnot" format="2">
  <advance width="492.4"/>
  <unicode hex="00AC"/>
  <outline>
    <contour>
      <point x="45.6" y="285.8" type="line"/>
      <point x="277.8" y="285.8" type="line"/>
      <point x="277.8" y="173.6" type="line"/>
      <point x="446.8" y="173.6" type="line"/>
      <point x="446.8" y="454.8" type="line"/>
      <point x="45.6" y="454.8" type="line"/>
    </contour>
  </outline>
</glyph>
<glyph name="registered" format="2">
  <advance width="731.5"/>
  <unicode hex="00AE"/>
  <outline>
    <contour>
      <point x="363.0" y="207.5" type="curve" smooth="yes"/>
      <point x="581.0" y="207.5"/>
      <point x="696.5" y="358.0"/>
      <point x="696.5" y="550.5" type="curve" smooth="yes"/>
      <point x="696.5" y="742.5"/>
      <point x="580.9999999999999" y="892.5000000000001"/>
      <point x="363.0" y="892.5000000000001" type="curve" smooth="yes"/>
      <point x="148.5" y="892.5000000000001"/>
      <point x="35.0" y="742.5"/>
      <point x="35.0" y="550.5" type="curve" smooth="yes"/>
      <point x="35.0" y="359.5"/>
      <point x="148.0" y="207.5"/>
    </contour>
    <contour>
      <point x="363.0" y="266.0" type="curve" smooth="yes"/>
      <point x="184.0" y="266.0"/>
      <point x="97.50000000000001" y="384.5"/>
      <point x="97.50000000000001" y="550.5" type="curve" smooth="yes"/>
      <point x="97.50000000000001" y="717.0"/>
      <point x="184.0" y="834.0"/>
      <point x="363.0" y="834.0" type="curve" smooth="yes"/>
      <point x="548.0" y="834.0"/>
      <point x="633.0" y="717.0"/>
      <point x="633.0" y="550.5" type="curve" smooth="yes"/>
      <point x="633.0" y="384.0"/>
      <point x="547.5" y="266.0"/>
    </contour>
    <contour>
      <point x="506.5" y="345.49999999999994" type="curve" smooth="yes"/>
      <point x="511.99999999999994" y="345.49999999999994"/>
      <point x="520.0" y="345.49999999999994"/>
      <point x="525.0" y="346.0" type="curve"/>
      <point x="525.0" y="468.0" type="line"/>
      <point x="523.4999999999999" y="467.99999999999994"/>
      <point x="521.0" y="467.99999999999994"/>
      <point x="519.0" y="467.99999999999994" type="curve" smooth="yes"/>
      <point x="490.49999999999994" y="468.5"/>
      <point x="472.5" y="492.5"/>
      <point x="462.5" y="509.49999999999994" type="curve"/>
      <point x="502.0" y="525.0"/>
      <point x="522.5" y="573.0"/>
      <point x="522.5" y="633.0" type="curve" smooth="yes"/>
      <point x="522.5" y="724.0"/>
      <point x="472.50000000000006" y="766.5"/>
      <point x="376.5" y="766.5" type="curve" smooth="yes"/>
      <point x="331.49999999999994" y="766.5"/>
      <point x="286.0" y="764.0"/>
      <point x="233.0" y="760.5000000000001" type="curve"/>
      <point x="233.0" y="351.0" type="line"/>
      <point x="347.5" y="351.0" type="line"/>
      <point x="347.5" y="471.0" type="line"/>
      <point x="349.5" y="471.0"/>
      <point x="352.0" y="471.0"/>
      <point x="354.0" y="471.0" type="curve" smooth="yes"/>
      <point x="357.0" y="471.0"/>
      <point x="358.5" y="471.0"/>
      <point x="361.0" y="471.0" type="curve"/>
      <point x="401.49999999999994" y="354.49999999999994"/>
      <point x="451.0" y="345.99999999999994"/>
    </contour>
    <contour>
      <point x="367.0" y="548.0" type="curve" smooth="yes"/>
      <point x="361.49999999999994" y="548.0"/>
      <point x="357.0" y="548.0"/>
      <point x="347.5" y="549.0" type="curve"/>
      <point x="347.5" y="663.0" type="line"/>
      <point x="361.0" y="665.0"/>
      <point x="367.0" y="665.0"/>
      <point x="375.0" y="665.0" type="curve" smooth="yes"/>
      <point x="399.0" y="665.0"/>
      <point x="404.0" y="649.5"/>
      <point x="404.0" y="614.0000000000001" type="curve" smooth="yes"/>
      <point x="404.0" y="565.0"/>
      <point x="398.00000000000006" y="548.0"/>
    </contour>
  </outline>
</glyph>
<glyph name="degree" format="2">
  <advance width="356.0"/>
  <unicode hex="00B0"/>
  <outline>
    <contour>
      <point x="178.0" y="360.0" type="curve" smooth="yes"/>
      <point x="285.0" y="360.0"/>
      <point x="332.4" y="439.0"/>
      <point x="332.4" y="535.0" type="curve" smooth="yes"/>
      <point x="332.4" y="624.0"/>
      <point x="291.6" y="710.0"/>
      <point x="178.0" y="710.0" type="curve" smooth="yes"/>
      <point x="64.4" y="710.0"/>
      <point x="23.6" y="624.0"/>
      <point x="23.6" y="535.0" type="curve" smooth="yes"/>
      <point x="23.6" y="439.0"/>
      <point x="71.0" y="360.0"/>
    </contour>
    <contour>
      <point x="178.0" y="490.2" type="curve" smooth="yes"/>
      <point x="159.4" y="490.2"/>
      <point x="147.8" y="507.0"/>
      <point x="147.8" y="534.0" type="curve" smooth="yes"/>
      <point x="147.8" y="559.0"/>
      <point x="158.2" y="575.8"/>
      <point x="178.0" y="575.8" type="curve" smooth="yes"/>
      <point x="197.8" y="575.8"/>
      <point x="208.2" y="559.0"/>
      <point x="208.2" y="534.0" type="curve" smooth="yes"/>
      <point x="208.2" y="507.0"/>
      <point x="196.6" y="490.2"/>
    </contour>
  </outline>
</glyph>
<glyph name="plusminus" format="2">
  <advance width="492.40000000000003"/>
  <unicode hex="00B1"/>
  <outline>
    <contour>
      <point x="45.599999999999994" y="-0.2" type="line"/>
      <point x="446.8" y="-0.2" type="line"/>
      <point x="446.8" y="168.8" type="line"/>
      <point x="334.6" y="168.8" type="line"/>
      <point x="334.6" y="254.6" type="line"/>
      <point x="446.8" y="254.6" type="line"/>
      <point x="446.8" y="423.6" type="line"/>
      <point x="334.6" y="423.6" type="line"/>
      <point x="334.6" y="519.6" type="line"/>
      <point x="157.60000000000002" y="519.6" type="line"/>
      <point x="157.60000000000002" y="423.6" type="line"/>
      <point x="45.599999999999994" y="423.6" type="line"/>
      <point x="45.599999999999994" y="254.6" type="line"/>
      <point x="157.60000000000002" y="254.6" type="line"/>
      <point x="157.60000000000002" y="168.8" type="line"/>
      <point x="45.599999999999994" y="168.8" type="line"/>
    </contour>
  </outline>
</glyph>
<glyph name="uni00B2" format="2">
  <advance width="334.2"/>
  <unicode hex="00B2"/>
  <outline>
    <contour>
      <point x="31.400000000000002" y="370.0" type="line"/>
      <point x="309.4" y="370.0" type="line"/>
      <point x="309.4" y="467.8" type="line"/>
      <point x="201.0" y="467.8" type="line"/>
      <point x="274.59999999999997" y="544.5999999999999"/>
      <point x="294.59999999999997" y="582.1999999999999"/>
      <point x="294.59999999999997" y="640.8000000000001" type="curve" smooth="yes"/>
      <point x="294.59999999999997" y="727.6"/>
      <point x="241.4" y="774.5999999999999"/>
      <point x="154.2" y="774.5999999999999" type="curve" smooth="yes"/>
      <point x="105.2" y="774.5999999999999"/>
      <point x="57.8" y="760.4"/>
      <point x="17.599999999999998" y="736.2" type="curve"/>
      <point x="59.4" y="627.4" type="line"/>
      <point x="86.6" y="640.2"/>
      <point x="102.39999999999999" y="645.2"/>
      <point x="122.4" y="645.2" type="curve" smooth="yes"/>
      <point x="144.0" y="645.2"/>
      <point x="158.20000000000002" y="629.2"/>
      <point x="158.20000000000002" y="609.6" type="curve" smooth="yes"/>
      <point x="158.20000000000002" y="575.0"/>
      <point x="109.6" y="519.2"/>
      <point x="31.400000000000002" y="458.4" type="curve"/>
    </contour>
  </outline>
</glyph>
<glyph name="uni00B3" format="2">
  <advance width="347.4"/>
  <unicode hex="00B3"/>
  <outline>
    <contour>
      <point x="20.6" y="393.40000000000003" type="line"/>
      <point x="68.39999999999999" y="371.8"/>
      <point x="107.0" y="365.4"/>
      <point x="156.2" y="365.4" type="curve" smooth="yes"/>
      <point x="256.59999999999997" y="365.4"/>
      <point x="320.79999999999995" y="408.59999999999997"/>
      <point x="320.79999999999995" y="489.0" type="curve" smooth="yes"/>
      <point x="320.79999999999995" y="531.8"/>
      <point x="299.0" y="565.0"/>
      <point x="257.6" y="585.0" type="curve"/>
      <point x="291.0" y="605.0"/>
      <point x="313.40000000000003" y="638.8"/>
      <point x="313.40000000000003" y="675.5999999999999" type="curve" smooth="yes"/>
      <point x="313.40000000000003" y="737.4"/>
      <point x="261.59999999999997" y="776.2"/>
      <point x="162.2" y="776.2" type="curve" smooth="yes"/>
      <point x="104.2" y="776.2"/>
      <point x="53.800000000000004" y="765.4"/>
      <point x="19.8" y="744.4" type="curve"/>
      <point x="54.4" y="649.1999999999999" type="line"/>
      <point x="62.400000000000006" y="654.0"/>
      <point x="86.8" y="661.1999999999999"/>
      <point x="127.60000000000001" y="661.1999999999999" type="curve" smooth="yes"/>
      <point x="160.39999999999998" y="661.1999999999999"/>
      <point x="184.0" y="652.4"/>
      <point x="184.0" y="637.2" type="curve" smooth="yes"/>
      <point x="184.0" y="624.1999999999999"/>
      <point x="173.0" y="616.0"/>
      <point x="149.0" y="616.0" type="curve" smooth="yes"/>
      <point x="90.8" y="616.0" type="line"/>
      <point x="90.8" y="525.4" type="line"/>
      <point x="144.79999999999998" y="525.4" type="line" smooth="yes"/>
      <point x="180.39999999999998" y="525.4"/>
      <point x="188.39999999999998" y="515.8000000000001"/>
      <point x="188.39999999999998" y="501.0" type="curve" smooth="yes"/>
      <point x="188.39999999999998" y="483.59999999999997"/>
      <point x="171.6" y="473.2"/>
      <point x="137.6" y="473.2" type="curve" smooth="yes"/>
      <point x="99.19999999999999" y="473.2"/>
      <point x="81.0" y="477.2"/>
      <point x="58.599999999999994" y="487.6" type="curve"/>
    </contour>
  </outline>
</glyph>
<glyph name="uni00B5" format="2">
  <advance width="531.2"/>
  <unicode hex="00B5"/>
  <outline>
    <contour>
      <point x="26.0" y="-210.0" type="line"/>
      <point x="218.8" y="-210.0" type="line"/>
      <point x="218.8" y="-5.200000000000001" type="line"/>
      <point x="225.20000000000002" y="-6.6000000000000005"/>
      <point x="233.2" y="-8.4"/>
      <point x="243.8" y="-8.4" type="curve" smooth="yes"/>
      <point x="272.20000000000005" y="-8.4"/>
      <point x="299.4" y="7.599999999999999"/>
      <point x="318.6" y="28.799999999999997" type="curve"/>
      <point x="341.40000000000003" y="5.8"/>
      <point x="357.4" y="-10.0"/>
      <point x="414.4" y="-10.0" type="curve" smooth="yes"/>
      <point x="464.2" y="-10.0"/>
      <point x="503.19999999999993" y="3.8000000000000003"/>
      <point x="529.6" y="19.4" type="curve"/>
      <point x="516.0" y="171.4" type="line"/>
      <point x="511.79999999999995" y="169.8"/>
      <point x="505.6" y="168.79999999999998"/>
      <point x="500.6" y="168.79999999999998" type="curve" smooth="yes"/>
      <point x="491.8" y="168.79999999999998"/>
      <point x="486.8" y="174.0"/>
      <point x="486.8" y="195.0" type="curve" smooth="yes"/>
      <point x="486.8" y="550.0" type="line"/>
      <point x="286.8" y="550.0" type="line"/>
      <point x="286.8" y="175.4" type="line"/>
      <point x="273.6" y="168.2"/>
      <point x="264.0" y="165.8"/>
      <point x="252.79999999999998" y="165.8" type="curve" smooth="yes"/>
      <point x="239.6" y="165.8"/>
      <point x="226.8" y="172.60000000000002"/>
      <point x="226.8" y="197.6" type="curve" smooth="yes"/>
      <point x="226.8" y="550.0" type="line"/>
      <point x="26.0" y="550.0" type="line"/>
    </contour>
  </outline>
</glyph>
<glyph name="paragraph" format="2">
  <advance width="642.0"/>
  <unicode hex="00B6"/>
  <outline>
    <contour>
      <point x="449.2" y="-210.0" type="line"/>
      <point x="604.0" y="-210.0" type="line"/>
      <point x="604.0" y="740.0" type="line"/>
      <point x="449.2" y="740.0" type="line"/>
    </contour>
    <contour>
      <point x="257.79999999999995" y="369.0" type="line"/>
      <point x="238.6" y="375.0"/>
      <point x="211.20000000000002" y="415.79999999999995"/>
      <point x="211.20000000000002" y="479.8" type="curve" smooth="yes"/>
      <point x="211.20000000000002" y="535.4"/>
      <point x="232.0" y="569.4"/>
      <point x="269.0" y="569.4" type="curve"/>
      <point x="269.0" y="-210.0" type="line"/>
      <point x="423.8" y="-210.0" type="line"/>
      <point x="423.8" y="740.0" type="line"/>
      <point x="322.6" y="740.0" type="line" smooth="yes"/>
      <point x="99.6" y="740.0"/>
      <point x="36.599999999999994" y="627.1999999999999"/>
      <point x="36.599999999999994" y="490.6" type="curve" smooth="yes"/>
      <point x="36.599999999999994" y="364.0"/>
      <point x="99.8" y="271.4"/>
      <point x="236.2" y="245.6" type="curve"/>
    </contour>
  </outline>
</glyph>
<glyph name="periodcentered" format="2">
  <advance width="238.0"/>
  <unicode hex="00B7"/>
  <outline>
    <contour>
      <point x="12.0" y="325.6" type="curve" smooth="yes"/>
      <point x="12.0" y="248.2"/>
      <point x="43.4" y="209.2"/>
      <point x="119.0" y="209.2" type="curve" smooth="yes"/>
      <point x="194.6" y="209.2"/>
      <point x="226.0" y="248.2"/>
      <point x="226.0" y="325.6" type="curve" smooth="yes"/>
      <point x="226.0" y="404.0"/>
      <point x="194.6" y="443.0"/>
      <point x="119.0" y="443.0" type="curve" smooth="yes"/>
      <point x="43.4" y="443.0"/>
      <point x="12.0" y="404.0"/>
    </contour>
  </outline>
</glyph>
<glyph name="uni00B9" format="2">
  <advance width="312.20000000000005"/>
  <unicode hex="00B9"/>
  <outline>
    <contour>
      <point x="35.6" y="370.0" type="line"/>
      <point x="299.0" y="370.0" type="line"/>
      <point x="299.0" y="468.8" type="line"/>
      <point x="239.20000000000002" y="468.8" type="line"/>
      <point x="239.20000000000002" y="768.0" type="line"/>
      <point x="171.6" y="768.0" type="line"/>
      <point x="17.200000000000003" y="727.0" type="line"/>
      <point x="42.4" y="614.8000000000001" type="line"/>
      <point x="103.2" y="628.4" type="line"/>
      <point x="103.2" y="468.8" type="line"/>
      <point x="35.6" y="468.8" type="line"/>
    </contour>
  </outline>
</glyph>
<glyph name="ordmasculine" format="2">
  <advance width="357.59999999999997"/>
  <unicode hex="00BA"/>
  <outline>
    <contour>
      <point x="29.200000000000003" y="221.0" type="line"/>
      <point x="333.40000000000003" y="221.0" type="line"/>
      <point x="333.40000000000003" y="320.59999999999997" type="line"/>
      <point x="29.200000000000003" y="320.59999999999997" type="line"/>
    </contour>
    <component base="o.superior" xOffset="8.0"/>
  </outline>
</glyph>
<glyph name="questiondown" format="2">
  <advance width="444.2"/>
  <unicode hex="00BF"/>
  <outline>
    <contour>
      <point x="339.2" y="282.0" type="line"/>
      <point x="166.6" y="282.0" type="line"/>
      <point x="166.2" y="214.8" type="line"/>
      <point x="65.4" y="176.0"/>
      <point x="28.599999999999998" y="94.6"/>
      <point x="28.599999999999998" y="-1.3999999999999995" type="curve" smooth="yes"/>
      <point x="28.599999999999998" y="-138.0"/>
      <point x="118.2" y="-208.2"/>
      <point x="259.20000000000005" y="-208.2" type="curve" smooth="yes"/>
      <point x="327.8" y="-208.2"/>
      <point x="402.40000000000003" y="-184.8"/>
      <point x="449.59999999999997" y="-151.79999999999998" type="curve"/>
      <point x="385.8" y="20.0" type="line"/>
      <point x="346.4" y="-3.5999999999999996"/>
      <point x="319.6" y="-9.4"/>
      <point x="292.6" y="-9.4" type="curve" smooth="yes"/>
      <point x="254.4" y="-9.4"/>
      <point x="236.6" y="8.0"/>
      <point x="236.6" y="31.6" type="curve" smooth="yes"/>
      <point x="236.6" y="58.4"/>
      <point x="247.8" y="92.19999999999999"/>
      <point x="343.8" y="126.0" type="curve"/>
    </contour>
    <contour>
      <point x="359.8" y="434.8" type="curve" smooth="yes"/>
      <point x="359.8" y="512.2"/>
      <point x="329.2" y="551.2"/>
      <point x="252.8" y="551.2" type="curve" smooth="yes"/>
      <point x="178.0" y="551.2"/>
      <point x="145.79999999999998" y="512.2"/>
      <point x="145.79999999999998" y="434.8" type="curve" smooth="yes"/>
      <point x="145.79999999999998" y="356.4"/>
      <point x="178.0" y="317.4"/>
      <point x="252.8" y="317.4" type="curve" smooth="yes"/>
      <point x="329.2" y="317.4"/>
      <point x="359.8" y="356.4"/>
    </contour>
  </outline>
</glyph>
<glyph name="AE" format="2">
  <advance width="843.2"/>
  <unicode hex="00C6"/>
  <anchor x="474.4" y="700.0" name="top"/>
  <outline>
    <contour>
      <point x="1.6" y="0.0" type="line"/>
      <point x="226.0" y="0.0" type="line"/>
      <point x="265.20000000000005" y="111.0" type="line"/>
      <point x="387.2" y="111.0" type="line"/>
      <point x="387.2" y="0.0" type="line"/>
      <point x="825.0" y="0.0" type="line"/>
      <point x="825.0" y="183.4" type="line"/>
      <point x="577.8" y="183.4" type="line"/>
      <point x="577.8" y="263.40000000000003" type="line"/>
      <point x="785.6" y="263.40000000000003" type="line"/>
      <point x="785.6" y="433.8" type="line"/>
      <point x="577.8" y="433.8" type="line"/>
      <point x="577.8" y="512.6" type="line"/>
      <point x="810.4" y="512.6" type="line"/>
      <point x="810.4" y="700.0" type="line"/>
      <point x="261.6" y="700.0" type="line"/>
    </contour>
    <contour>
      <point x="318.8" y="289.0" type="line"/>
      <point x="385.6" y="560.6" type="line"/>
      <point x="385.6" y="289.0" type="line"/>
    </contour>
  </outline>
</glyph>
<glyph name="multiply" format="2">
  <advance width="472.4"/>
  <unicode hex="00D7"/>
  <outline>
    <contour>
      <point x="149.60000000000002" y="139.6" type="line"/>
      <point x="236.20000000000002" y="219.6" type="line"/>
      <point x="322.8" y="139.6" type="line"/>
      <point x="439.0" y="262.0" type="line"/>
      <point x="359.2" y="336.4" type="line"/>
      <point x="439.0" y="411.0" type="line"/>
      <point x="322.8" y="533.4" type="line"/>
      <point x="236.20000000000002" y="453.2" type="line"/>
      <point x="149.6" y="533.4" type="line"/>
      <point x="33.4" y="411.0" type="line"/>
      <point x="113.0" y="336.4" type="line"/>
      <point x="33.4" y="262.0" type="line"/>
    </contour>
  </outline>
</glyph>
<glyph name="Oslash" format="2">
  <advance width="613.0"/>
  <unicode hex="00D8"/>
  <anchor x="307.5" y="700.0" name="top"/>
  <outline>
    <contour>
      <point x="102.0" y="-10.0" type="line"/>
      <point x="180.0" y="128.5" type="line"/>
      <point x="183.5" y="122.5" type="line"/>
      <point x="489.0" y="566.5" type="line"/>
      <point x="492.5" y="559.0" type="line"/>
      <point x="584.0" y="720.0" type="line"/>
      <point x="513.5" y="720.0" type="line"/>
      <point x="443.5" y="599.5" type="line"/>
      <point x="439.5" y="605.0" type="line"/>
      <point x="131.5" y="156.0" type="line"/>
      <point x="127.5" y="161.5" type="line"/>
      <point x="31.0" y="-10.0" type="line"/>
    </contour>
    <contour>
      <point x="307.5" y="150.5" type="curve" smooth="yes"/>
      <point x="246.5" y="150.5"/>
      <point x="195.0" y="179.0"/>
      <point x="195.0" y="349.0" type="curve" smooth="yes"/>
      <point x="195.0" y="521.5"/>
      <point x="247.5" y="549.5"/>
      <point x="307.5" y="549.5" type="curve" smooth="yes"/>
      <point x="368.5" y="549.5"/>
      <point x="420.5" y="524.0"/>
      <point x="420.5" y="351.0" type="curve" smooth="yes"/>
      <point x="420.5" y="178.0"/>
      <point x="367.5" y="150.5"/>
    </contour>
    <contour>
      <point x="306.5" y="-10.0" type="curve" smooth="yes"/>
      <point x="479.5" y="-10.0"/>
      <point x="592.0" y="74.5"/>
      <point x="592.0" y="353.0" type="curve" smooth="yes"/>
      <point x="592.0" y="627.5"/>
      <point x="478.0" y="710.0"/>
      <point x="307.5" y="710.0" type="curve" smooth="yes"/>
      <point x="136.0" y="710.0"/>
      <point x="23.0" y="625.0"/>
      <point x="23.0" y="348.0" type="curve" smooth="yes"/>
      <point x="23.0" y="76.0"/>
      <point x="135.0" y="-10.0"/>
    </contour>
  </outline>
</glyph>
<glyph name="Thorn" format="2">
  <advance width="578.8"/>
  <unicode hex="00DE"/>
  <outline>
    <contour>
      <point x="32.599999999999994" y="0.0" type="line"/>
      <point x="237.4" y="0.0" type="line"/>
      <point x="237.4" y="96.0" type="line"/>
      <point x="292.0" y="92.0"/>
      <point x="282.0" y="92.0"/>
      <point x="333.2" y="92.0" type="curve" smooth="yes"/>
      <point x="500.2" y="92.0"/>
      <point x="562.4" y="183.20000000000002"/>
      <point x="562.4" y="375.0" type="curve" smooth="yes"/>
      <point x="562.4" y="562.2"/>
      <point x="499.40000000000003" y="647.0"/>
      <point x="283.40000000000003" y="647.0" type="curve" smooth="yes"/>
      <point x="273.2" y="647.0"/>
      <point x="255.2" y="646.8000000000001"/>
      <point x="238.20000000000002" y="646.6" type="curve"/>
      <point x="238.20000000000002" y="700.0" type="line"/>
      <point x="32.599999999999994" y="700.0" type="line"/>
    </contour>
    <contour>
      <point x="278.6" y="273.6" type="curve" smooth="yes"/>
      <point x="266.8" y="273.6"/>
      <point x="259.2" y="273.8"/>
      <point x="238.20000000000002" y="276.20000000000005" type="curve"/>
      <point x="238.20000000000002" y="468.40000000000003" type="line"/>
      <point x="269.40000000000003" y="471.6"/>
      <point x="279.8" y="471.6"/>
      <point x="298.4" y="471.6" type="curve" smooth="yes"/>
      <point x="343.40000000000003" y="471.6"/>
      <point x="356.20000000000005" y="443.59999999999997"/>
      <point x="356.20000000000005" y="384.4" type="curve" smooth="yes"/>
      <point x="356.20000000000005" y="324.0"/>
      <point x="352.0" y="273.6"/>
    </contour>
  </outline>
</glyph>
<glyph name="germandbls" format="2">
  <advance width="680.9"/>
  <unicode hex="00DF"/>
  <outline>
    <contour>
      <point x="60.3" y="0.0" type="line"/>
      <point x="260.3" y="0.0" type="line"/>
      <point x="260.3" y="490.7" type="line" smooth="yes"/>
      <point x="260.3" y="548.2"/>
      <point x="297.4" y="583.2"/>
      <point x="365.4" y="583.2" type="curve" smooth="yes"/>
      <point x="421.1" y="583.2"/>
      <point x="437.5" y="574.2"/>
      <point x="437.5" y="550.0" type="curve" smooth="yes"/>
      <point x="437.5" y="529.6"/>
      <point x="423.7" y="524.7"/>
      <point x="386.1" y="506.2" type="curve" smooth="yes"/>
      <point x="326.7" y="483.5"/>
      <point x="296.0" y="437.2"/>
      <point x="296.0" y="363.5" type="curve" smooth="yes"/>
      <point x="296.0" y="254.6"/>
      <point x="337.8" y="206.7"/>
      <point x="432.0" y="193.6" type="curve" smooth="yes"/>
      <point x="484.3" y="186.4"/>
      <point x="492.4" y="188.7"/>
      <point x="492.4" y="173.8" type="curve" smooth="yes"/>
      <point x="492.4" y="157.8"/>
      <point x="474.2" y="152.0"/>
      <point x="448.9" y="152.0" type="curve" smooth="yes"/>
      <point x="402.5" y="152.0"/>
      <point x="344.3" y="161.0"/>
      <point x="298.3" y="172.6" type="curve"/>
      <point x="280.1" y="17.7" type="line"/>
      <point x="332.2" y="-1.9000000000000004"/>
      <point x="390.3" y="-9.8"/>
      <point x="451.1" y="-9.8" type="curve" smooth="yes"/>
      <point x="580.0" y="-9.8"/>
      <point x="678.6" y="48.0"/>
      <point x="678.6" y="186.4" type="curve" smooth="yes"/>
      <point x="678.6" y="288.1"/>
      <point x="637.0" y="338.2"/>
      <point x="541.7" y="352.3" type="curve" smooth="yes"/>
      <point x="489.9" y="358.1"/>
      <point x="481.4" y="364.8"/>
      <point x="481.4" y="375.5" type="curve" smooth="yes"/>
      <point x="481.4" y="388.5"/>
      <point x="489.2" y="388.8"/>
      <point x="518.7" y="398.7" type="curve" smooth="yes"/>
      <point x="603.6" y="427.7"/>
      <point x="641.3" y="469.3"/>
      <point x="641.3" y="552.0" type="curve" smooth="yes"/>
      <point x="641.3" y="684.3"/>
      <point x="540.6" y="750.0"/>
      <point x="355.5" y="750.0" type="curve" smooth="yes"/>
      <point x="164.7" y="750.0"/>
      <point x="60.2" y="676.2"/>
      <point x="60.3" y="529.6" type="curve" smooth="yes"/>
      <point x="60.3" y="519.7" type="line"/>
      <point x="7.0" y="509.9" type="line"/>
      <point x="7.0" y="363.9" type="line"/>
      <point x="60.3" y="363.9" type="line"/>
    </contour>
  </outline>
</glyph>
<glyph name="ae" format="2">
  <advance width="733.9"/>
  <unicode hex="00E6"/>
  <anchor x="368.8" y="550.0" name="top"/>
  <outline>
    <contour>
      <point x="160.1" y="-10.0" type="curve" smooth="yes"/>
      <point x="235.1" y="-10.0"/>
      <point x="281.3" y="16.0"/>
      <point x="329.3" y="53.4" type="curve"/>
      <point x="330.5" y="53.4" type="line"/>
      <point x="378.3" y="7.3"/>
      <point x="428.2" y="-10.0"/>
      <point x="515.2" y="-10.0" type="curve" smooth="yes"/>
      <point x="583.7" y="-10.0"/>
      <point x="646.2" y="1.5"/>
      <point x="716.4" y="27.1" type="curve"/>
      <point x="691.3" y="190.8" type="line"/>
      <point x="638.1" y="177.9"/>
      <point x="577.3" y="168.9"/>
      <point x="546.2" y="168.9" type="curve" smooth="yes"/>
      <point x="484.9" y="168.9"/>
      <point x="463.5" y="168.9"/>
      <point x="462.1" y="200.0" type="curve" smooth="yes"/>
      <point x="461.9" y="201.9"/>
      <point x="461.9" y="207.8"/>
      <point x="462.0" y="206.9" type="curve"/>
      <point x="549.0" y="211.9"/>
      <point x="659.8" y="223.1"/>
      <point x="714.5" y="229.0" type="curve"/>
      <point x="715.3" y="250.2"/>
      <point x="716.5" y="280.7"/>
      <point x="716.5" y="296.4" type="curve" smooth="yes"/>
      <point x="716.5" y="490.8"/>
      <point x="651.5" y="560.0"/>
      <point x="498.4" y="560.0" type="curve" smooth="yes"/>
      <point x="454.1" y="560.0"/>
      <point x="411.9" y="555.9"/>
      <point x="370.4" y="522.8" type="curve"/>
      <point x="369.2" y="522.8" type="line"/>
      <point x="319.6" y="550.5"/>
      <point x="279.6" y="560.0"/>
      <point x="217.3" y="560.0" type="curve" smooth="yes"/>
      <point x="161.9" y="560.0"/>
      <point x="84.5" y="545.7"/>
      <point x="29.0" y="526.0" type="curve"/>
      <point x="64.4" y="355.6" type="line"/>
      <point x="126.1" y="374.2"/>
      <point x="176.1" y="376.2"/>
      <point x="200.6" y="376.2" type="curve" smooth="yes"/>
      <point x="240.7" y="376.2"/>
      <point x="259.1" y="363.6"/>
      <point x="259.1" y="345.9" type="curve" smooth="yes"/>
      <point x="259.1" y="344.6" type="line"/>
      <point x="96.6" y="337.5"/>
      <point x="8.6" y="297.1"/>
      <point x="8.6" y="164.2" type="curve" smooth="yes"/>
      <point x="8.6" y="53.6"/>
      <point x="67.5" y="-10.0"/>
    </contour>
    <contour>
      <point x="230.1" y="135.4" type="curve" smooth="yes"/>
      <point x="218.2" y="135.4"/>
      <point x="206.4" y="147.5"/>
      <point x="206.4" y="179.0" type="curve" smooth="yes"/>
      <point x="206.4" y="225.8"/>
      <point x="243.0" y="231.9"/>
      <point x="260.0" y="232.6" type="curve"/>
      <point x="260.2" y="221.4"/>
      <point x="260.2" y="206.6"/>
      <point x="260.2" y="197.8" type="curve" smooth="yes"/>
      <point x="260.2" y="181.9"/>
      <point x="259.5" y="164.3"/>
      <point x="260.5" y="147.7" type="curve"/>
      <point x="258.2" y="146.2"/>
      <point x="242.9" y="135.4"/>
    </contour>
    <contour>
      <point x="460.5" y="321.6" type="curve"/>
      <point x="456.1" y="403.5"/>
      <point x="478.9" y="409.3"/>
      <point x="487.5" y="409.3" type="curve" smooth="yes"/>
      <point x="507.3" y="409.3"/>
      <point x="512.5" y="393.4"/>
      <point x="517.5" y="324.1" type="curve"/>
      <point x="500.5" y="324.0"/>
      <point x="478.0" y="321.8"/>
    </contour>
  </outline>
</glyph>
<glyph name="eth" format="2">
  <advance width="539.5"/>
  <unicode hex="00F0"/>
  <outline>
    <contour>
      <point x="361.0" y="379.5" type="curve"/>
      <point x="369.5" y="506.5" type="line"/>
      <point x="331.0" y="526.0"/>
      <point x="289.0" y="534.5"/>
      <point x="245.5" y="534.5" type="curve" smooth="yes"/>
      <point x="88.5" y="534.5"/>
      <point x="19.0" y="439.5"/>
      <point x="19.0" y="246.0" type="curve" smooth="yes"/>
      <point x="19.0" y="75.0"/>
      <point x="98.0" y="-10.0"/>
      <point x="255.5" y="-10.0" type="curve" smooth="yes"/>
      <point x="448.5" y="-10.0"/>
      <point x="519.5" y="87.0"/>
      <point x="519.5" y="357.5" type="curve" smooth="yes"/>
      <point x="519.5" y="613.5"/>
      <point x="402.5" y="750.0"/>
      <point x="194.0" y="750.0" type="curve" smooth="yes"/>
      <point x="132.5" y="750.0"/>
      <point x="76.0" y="736.0"/>
      <point x="27.5" y="718.5" type="curve"/>
      <point x="45.5" y="603.0" type="line"/>
      <point x="78.5" y="612.0"/>
      <point x="114.5" y="621.0"/>
      <point x="152.0" y="621.0" type="curve" smooth="yes"/>
      <point x="291.0" y="621.0"/>
      <point x="340.0" y="570.0"/>
      <point x="340.0" y="387.5" type="curve" smooth="yes"/>
      <point x="340.0" y="146.0"/>
      <point x="317.5" y="119.5"/>
      <point x="263.0" y="119.5" type="curve" smooth="yes"/>
      <point x="221.0" y="119.5"/>
      <point x="200.0" y="149.0"/>
      <point x="200.0" y="247.5" type="curve" smooth="yes"/>
      <point x="200.0" y="385.5"/>
      <point x="232.0" y="400.5"/>
      <point x="276.5" y="400.5" type="curve" smooth="yes"/>
      <point x="307.5" y="400.5"/>
      <point x="331.5" y="394.0"/>
    </contour>
    <contour>
      <point x="179.5" y="559.0" type="line"/>
      <point x="319.0" y="631.5" type="line"/>
      <point x="321.5" y="635.0" type="line"/>
      <point x="502.5" y="750.0" type="line"/>
      <point x="383.5" y="751.0" type="line"/>
      <point x="263.5" y="677.5" type="line"/>
      <point x="265.0" y="673.0" type="line"/>
      <point x="66.0" y="560.0" type="line"/>
    </contour>
  </outline>
</glyph>
<glyph name="divide" format="2">
  <advance width="492.4"/>
  <unicode hex="00F7"/>
  <outline>
    <contour>
      <point x="149.4" y="117.8" type="curve" smooth="yes"/>
      <point x="149.4" y="60.0"/>
      <point x="178.8" y="29.999999999999996"/>
      <point x="246.2" y="29.999999999999996" type="curve" smooth="yes"/>
      <point x="313.0" y="29.999999999999996"/>
      <point x="343.20000000000005" y="60.0"/>
      <point x="343.20000000000005" y="117.8" type="curve" smooth="yes"/>
      <point x="343.20000000000005" y="176.8"/>
      <point x="313.0" y="206.8"/>
      <point x="246.2" y="206.8" type="curve" smooth="yes"/>
      <point x="178.79999999999998" y="206.8"/>
      <point x="149.4" y="176.8"/>
    </contour>
    <contour>
      <point x="149.4" y="536.8000000000001" type="curve" smooth="yes"/>
      <point x="149.4" y="479.0"/>
      <point x="178.79999999999998" y="449.0"/>
      <point x="246.2" y="449.0" type="curve" smooth="yes"/>
      <point x="313.0" y="449.0"/>
      <point x="343.20000000000005" y="479.0"/>
      <point x="343.20000000000005" y="536.8000000000001" type="curve" smooth="yes"/>
      <point x="343.20000000000005" y="595.8000000000001"/>
      <point x="313.0" y="625.8000000000001"/>
      <point x="246.2" y="625.8000000000001" type="curve" smooth="yes"/>
      <point x="178.79999999999998" y="625.8000000000001"/>
      <point x="149.4" y="595.8000000000001"/>
    </contour>
    <contour>
      <point x="45.599999999999994" y="244.0" type="line"/>
      <point x="446.8" y="244.0" type="line"/>
      <point x="446.8" y="413.0" type="line"/>
      <point x="45.599999999999994" y="413.0" type="line"/>
    </contour>
  </outline>
</glyph>
<glyph name="oslash" format="2">
  <advance width="550.5"/>
  <unicode hex="00F8"/>
  <anchor x="274.0" y="550.0" name="top"/>
  <outline>
    <contour>
      <point x="274.0" y="-10.0" type="curve" smooth="yes"/>
      <point x="68.0" y="-10.0"/>
      <point x="19.0" y="127.0"/>
      <point x="19.0" y="276.5" type="curve" smooth="yes"/>
      <point x="19.0" y="423.0"/>
      <point x="64.5" y="560.0"/>
      <point x="274.0" y="560.0" type="curve" smooth="yes"/>
      <point x="484.0" y="560.0"/>
      <point x="530.5" y="423.0"/>
      <point x="530.5" y="276.5" type="curve" smooth="yes"/>
      <point x="530.5" y="127.0"/>
      <point x="480.5" y="-10.0"/>
    </contour>
    <contour>
      <point x="274.0" y="144.5" type="curve" smooth="yes"/>
      <point x="335.5" y="144.5"/>
      <point x="356.5" y="161.5"/>
      <point x="356.5" y="276.5" type="curve" smooth="yes"/>
      <point x="356.5" y="389.0"/>
      <point x="339.0" y="406.5"/>
      <point x="274.0" y="406.5" type="curve" smooth="yes"/>
      <point x="207.5" y="406.5"/>
      <point x="192.0" y="389.0"/>
      <point x="192.0" y="276.5" type="curve" smooth="yes"/>
      <point x="192.0" y="161.5"/>
      <point x="211.0" y="144.5"/>
    </contour>
    <contour>
      <point x="16.5" y="0.0" type="line"/>
      <point x="113.5" y="140.5" type="line"/>
      <point x="116.0" y="140.5" type="line"/>
      <point x="387.5" y="457.5" type="line"/>
      <point x="390.0" y="457.5" type="line"/>
      <point x="460.5" y="560.0" type="line"/>
      <point x="533.0" y="560.0" type="line"/>
      <point x="436.0" y="422.0" type="line"/>
      <point x="433.5" y="422.0" type="line"/>
      <point x="159.5" y="99.5" type="line"/>
      <point x="157.0" y="99.5" type="line"/>
      <point x="88.0" y="0.0" type="line"/>
    </contour>
  </outline>
</glyph>
<glyph name="thorn" format="2">
  <advance width="517.8"/>
  <unicode hex="00FE"/>
  <outline>
    <contour>
      <point x="26.0" y="-210.0" type="line"/>
      <point x="224.6" y="-210.0" type="line"/>
      <point x="224.6" y="-9.4" type="line"/>
      <point x="234.4" y="-9.8"/>
      <point x="243.6" y="-10.0"/>
      <point x="253.60000000000002" y="-10.0" type="curve" smooth="yes"/>
      <point x="434.0" y="-10.0"/>
      <point x="504.0" y="73.0"/>
      <point x="504.0" y="291.0" type="curve" smooth="yes"/>
      <point x="504.0" y="474.4"/>
      <point x="449.4" y="560.0"/>
      <point x="336.4" y="560.0" type="curve" smooth="yes"/>
      <point x="302.2" y="560.0"/>
      <point x="259.8" y="546.8"/>
      <point x="226.2" y="526.1999999999999" type="curve"/>
      <point x="226.2" y="740.0" type="line"/>
      <point x="26.0" y="740.0" type="line"/>
    </contour>
    <contour>
      <point x="257.40000000000003" y="143.0" type="curve" smooth="yes"/>
      <point x="248.0" y="143.0"/>
      <point x="237.20000000000002" y="144.8"/>
      <point x="226.8" y="148.4" type="curve"/>
      <point x="226.8" y="371.40000000000003" type="line"/>
      <point x="241.0" y="378.2"/>
      <point x="251.6" y="381.6"/>
      <point x="263.40000000000003" y="381.6" type="curve" smooth="yes"/>
      <point x="286.0" y="381.6"/>
      <point x="294.4" y="361.6"/>
      <point x="294.4" y="271.40000000000003" type="curve" smooth="yes"/>
      <point x="294.4" y="165.6"/>
      <point x="284.0" y="143.0"/>
    </contour>
  </outline>
</glyph>
<glyph name="Dcroat" format="2">
  <advance width="577.4"/>
  <unicode hex="0110"/>
  <outline>
    <contour>
      <point x="2.4000000000000004" y="266.6" type="line"/>
      <point x="291.8" y="266.6" type="line"/>
      <point x="291.8" y="434.0" type="line"/>
      <point x="2.4000000000000004" y="434.0" type="line"/>
    </contour>
    <component base="D" xOffset="1.5999999999999999"/>
  </outline>
</glyph>
<glyph name="dcroat" format="2">
  <advance width="526.4"/>
  <unicode hex="0111"/>
  <outline>
    <contour>
      <point x="184.79999999999998" y="601.0" type="line"/>
      <point x="537.0" y="601.0" type="line"/>
      <point x="537.0" y="705.0" type="line"/>
      <point x="184.79999999999998" y="705.0" type="line"/>
    </contour>
    <component base="d"/>
  </outline>
</glyph>
<glyph name="Hbar" format="2">
  <advance width="577.6"/>
  <unicode hex="0126"/>
  <outline>
    <contour>
      <point x="3.6000000000000005" y="502.40000000000003" type="line"/>
      <point x="33.599999999999994" y="502.40000000000003" type="line"/>
      <point x="33.599999999999994" y="0.0" type="line"/>
      <point x="237.60000000000002" y="0.0" type="line"/>
      <point x="237.60000000000002" y="224.60000000000002" type="line"/>
      <point x="342.0" y="224.60000000000002" type="line"/>
      <point x="342.0" y="0.0" type="line"/>
      <point x="544.0" y="0.0" type="line"/>
      <point x="544.0" y="502.40000000000003" type="line"/>
      <point x="574.0" y="502.40000000000003" type="line"/>
      <point x="574.0" y="648.0" type="line"/>
      <point x="544.0" y="648.0" type="line"/>
      <point x="544.0" y="700.0" type="line"/>
      <point x="342.0" y="700.0" type="line"/>
      <point x="342.0" y="648.0" type="line"/>
      <point x="237.60000000000002" y="648.0" type="line"/>
      <point x="237.60000000000002" y="700.0" type="line"/>
      <point x="33.599999999999994" y="700.0" type="line"/>
      <point x="33.599999999999994" y="648.0" type="line"/>
      <point x="3.6000000000000005" y="648.0" type="line"/>
    </contour>
    <contour>
      <point x="237.60000000000002" y="420.6" type="line"/>
      <point x="237.60000000000002" y="502.40000000000003" type="line"/>
      <point x="342.0" y="502.40000000000003" type="line"/>
      <point x="342.0" y="420.6" type="line"/>
    </contour>
  </outline>
</glyph>
<glyph name="hbar" format="2">
  <advance width="511.2"/>
  <unicode hex="0127"/>
  <outline>
    <contour>
      <point x="-7.6000000000000005" y="601.0" type="line"/>
      <point x="328.0" y="601.0" type="line"/>
      <point x="328.0" y="705.0" type="line"/>
      <point x="-7.6000000000000005" y="705.0" type="line"/>
    </contour>
    <component base="h"/>
  </outline>
</glyph>
<glyph name="Idotaccent" format="2">
  <advance width="269.20000000000005"/>
  <unicode hex="0130"/>
  <outline>
    <contour>
      <point x="135.8" y="719.2" type="curve" smooth="yes"/>
      <point x="213.0" y="719.2"/>
      <point x="250.20000000000002" y="756.4"/>
      <point x="250.20000000000002" y="829.2" type="curve" smooth="yes"/>
      <point x="250.20000000000002" y="903.6"/>
      <point x="211.39999999999998" y="940.0"/>
      <point x="135.8" y="940.0" type="curve" smooth="yes"/>
      <point x="59.400000000000006" y="940.0"/>
      <point x="20.6" y="903.6"/>
      <point x="20.6" y="829.2" type="curve" smooth="yes"/>
      <point x="20.6" y="755.6"/>
      <point x="59.400000000000006" y="719.2"/>
    </contour>
    <component base="I"/>
  </outline>
</glyph>
<glyph name="dotlessi" format="2">
  <advance width="254.4"/>
  <unicode hex="0131"/>
  <anchor x="219.20000000000002" y="10.0" name="ogonek"/>
  <anchor x="128.8" y="0.0" name="bottom"/>
  <anchor x="127.2" y="550.0" name="top"/>
  <outline>
    <contour>
      <point x="26.0" y="0.0" type="line"/>
      <point x="228.4" y="0.0" type="line"/>
      <point x="228.4" y="550.0" type="line"/>
      <point x="26.0" y="550.0" type="line"/>
    </contour>
  </outline>
</glyph>
<glyph name="kgreenlandic" format="2">
  <advance width="512.5"/>
  <unicode hex="0138"/>
  <anchor x="260.0" y="550.0" name="top"/>
  <anchor x="260.0" y="0.0" name="bottom"/>
  <outline>
    <contour>
      <point x="451.0" y="-11.0" type="curve" smooth="yes"/>
      <point x="465.5" y="-11.0"/>
      <point x="479.5" y="-10.0"/>
      <point x="496.0" y="-6.5" type="curve"/>
      <point x="495.5" y="182.0" type="line"/>
      <point x="492.0" y="182.0"/>
      <point x="490.0" y="182.0"/>
      <point x="487.5" y="182.0" type="curve" smooth="yes"/>
      <point x="454.0" y="182.0"/>
      <point x="419.5" y="205.0"/>
      <point x="338.5" y="293.5" type="curve" smooth="yes"/>
      <point x="199.0" y="446.5" type="line"/>
      <point x="199.0" y="550.0" type="line"/>
      <point x="35.0" y="550.0" type="line"/>
      <point x="35.0" y="0.0" type="line"/>
      <point x="199.0" y="0.0" type="line"/>
      <point x="199.0" y="170.5" type="line"/>
      <point x="294.0" y="75.0" type="line" smooth="yes"/>
      <point x="359.5" y="9.0"/>
      <point x="397.5" y="-11.0"/>
    </contour>
    <contour>
      <point x="312.0" y="217.5" type="line"/>
      <point x="406.0" y="325.0"/>
      <point x="484.5" y="445.5"/>
      <point x="503.5" y="541.0" type="curve"/>
      <point x="336.0" y="552.0" type="line"/>
      <point x="323.5" y="461.0"/>
      <point x="277.0" y="406.0"/>
      <point x="204.0" y="328.5" type="curve"/>
    </contour>
  </outline>
</glyph>
<glyph name="Ldot" format="2">
  <advance width="469.20000000000005"/>
  <unicode hex="013F"/>
  <outline>
    <contour>
      <point x="288.40000000000003" y="408.2" type="curve" smooth="yes"/>
      <point x="288.40000000000003" y="353.2"/>
      <point x="311.8" y="325.4"/>
      <point x="368.2" y="325.4" type="curve" smooth="yes"/>
      <point x="425.40000000000003" y="325.4"/>
      <point x="448.8" y="353.2"/>
      <point x="448.8" y="408.2" type="curve" smooth="yes"/>
      <point x="448.8" y="464.2"/>
      <point x="425.40000000000003" y="492.0"/>
      <point x="368.2" y="492.0" type="curve" smooth="yes"/>
      <point x="311.8" y="492.0"/>
      <point x="288.40000000000003" y="464.2"/>
    </contour>
    <component base="L"/>
  </outline>
</glyph>
<glyph name="ldot" format="2">
  <advance width="401.2"/>
  <unicode hex="0140"/>
  <outline>
    <contour>
      <point x="330.6" y="308.6" type="curve" smooth="yes"/>
      <point x="372.0" y="308.6"/>
      <point x="395.59999999999997" y="332.40000000000003"/>
      <point x="395.59999999999997" y="386.2" type="curve" smooth="yes"/>
      <point x="395.59999999999997" y="440.8"/>
      <point x="372.0" y="464.6"/>
      <point x="330.6" y="464.6" type="curve" smooth="yes"/>
      <point x="290.0" y="464.6"/>
      <point x="266.4" y="440.8"/>
      <point x="266.4" y="386.2" type="curve" smooth="yes"/>
      <point x="266.4" y="332.40000000000003"/>
      <point x="290.0" y="308.6"/>
    </contour>
    <component base="l"/>
  </outline>
</glyph>
<glyph name="Lslash" format="2">
  <advance width="482.79999999999995"/>
  <unicode hex="0141"/>
  <outline>
    <contour>
      <point x="4.4" y="196.6" type="line"/>
      <point x="46.2" y="218.2" type="line"/>
      <point x="46.2" y="0.0" type="line"/>
      <point x="467.79999999999995" y="0.0" type="line"/>
      <point x="467.79999999999995" y="190.39999999999998" type="line"/>
      <point x="251.0" y="190.39999999999998" type="line"/>
      <point x="251.0" y="318.2" type="line"/>
      <point x="381.0" y="380.6" type="line"/>
      <point x="381.0" y="565.4000000000001" type="line"/>
      <point x="251.0" y="503.0" type="line"/>
      <point x="251.0" y="700.0" type="line"/>
      <point x="46.2" y="700.0" type="line"/>
      <point x="46.2" y="403.0" type="line"/>
      <point x="4.4" y="381.4" type="line"/>
    </contour>
  </outline>
</glyph>
<glyph name="lslash" format="2">
  <advance width="322.8"/>
  <unicode hex="0142"/>
  <outline>
    <contour>
      <point x="194.20000000000002" y="-10.0" type="curve" smooth="yes"/>
      <point x="241.0" y="-10.0"/>
      <point x="285.0" y="4.0"/>
      <point x="313.6" y="17.8" type="curve"/>
      <point x="298.8" y="196.60000000000002" type="line"/>
      <point x="284.8" y="194.0"/>
      <point x="272.8" y="192.2"/>
      <point x="264.0" y="192.2" type="curve" smooth="yes"/>
      <point x="248.4" y="192.2"/>
      <point x="238.4" y="199.79999999999998"/>
      <point x="238.4" y="230.39999999999998" type="curve" smooth="yes"/>
      <point x="238.4" y="355.4" type="line"/>
      <point x="301.0" y="397.8" type="line"/>
      <point x="301.0" y="558.0" type="line"/>
      <point x="238.4" y="515.5999999999999" type="line"/>
      <point x="238.4" y="740.0" type="line"/>
      <point x="38.4" y="740.0" type="line"/>
      <point x="38.4" y="367.8" type="line"/>
      <point x="1.200000000000001" y="341.8" type="line"/>
      <point x="1.200000000000001" y="181.6" type="line"/>
      <point x="38.8" y="207.79999999999998" type="line"/>
      <point x="39.2" y="175.79999999999998" type="line" smooth="yes"/>
      <point x="42.6" y="43.6"/>
      <point x="90.0" y="-10.0"/>
    </contour>
  </outline>
</glyph>
<glyph name="Eng" format="2">
  <advance width="574.5"/>
  <unicode hex="014A"/>
  <outline>
    <contour>
      <point x="32.5" y="0.0" type="line"/>
      <point x="213.0" y="0.0" type="line"/>
      <point x="213.0" y="302.0" type="line"/>
      <point x="347.0" y="-2.0" type="line"/>
      <point x="347.0" y="-5.0" type="line" smooth="yes"/>
      <point x="347.0" y="-18.0"/>
      <point x="333.5" y="-28.0"/>
      <point x="309.5" y="-28.0" type="curve" smooth="yes"/>
      <point x="293.5" y="-28.0"/>
      <point x="275.5" y="-27.0"/>
      <point x="250.0" y="-18.0" type="curve"/>
      <point x="215.0" y="-189.0" type="line"/>
      <point x="251.5" y="-206.5"/>
      <point x="292.0" y="-220.0"/>
      <point x="352.0" y="-220.0" type="curve" smooth="yes"/>
      <point x="468.5" y="-220.0"/>
      <point x="542.0" y="-152.0"/>
      <point x="542.0" y="-15.0" type="curve" smooth="yes"/>
      <point x="542.0" y="700.0" type="line"/>
      <point x="362.5" y="700.0" type="line"/>
      <point x="362.5" y="376.0" type="line"/>
      <point x="236.5" y="700.0" type="line"/>
      <point x="32.5" y="700.0" type="line"/>
    </contour>
  </outline>
</glyph>
<glyph name="eng" format="2">
  <advance width="512.0"/>
  <unicode hex="014B"/>
  <outline>
    <contour>
      <point x="487.59999999999997" y="27.0" type="curve"/>
      <point x="487.59999999999997" y="415.2" type="line" smooth="yes"/>
      <point x="487.59999999999997" y="500.2"/>
      <point x="444.8" y="560.0"/>
      <point x="350.8" y="560.0" type="curve" smooth="yes"/>
      <point x="297.40000000000003" y="560.0"/>
      <point x="253.2" y="542.4"/>
      <point x="207.0" y="508.4" type="curve"/>
      <point x="207.0" y="550.0" type="line"/>
      <point x="26.0" y="550.0" type="line"/>
      <point x="26.0" y="0.0" type="line"/>
      <point x="226.8" y="0.0" type="line"/>
      <point x="226.8" y="369.4" type="line"/>
      <point x="238.20000000000002" y="374.4"/>
      <point x="249.20000000000002" y="379.40000000000003"/>
      <point x="261.40000000000003" y="379.40000000000003" type="curve" smooth="yes"/>
      <point x="276.6" y="379.40000000000003"/>
      <point x="286.79999999999995" y="370.2"/>
      <point x="286.79999999999995" y="345.59999999999997" type="curve" smooth="yes"/>
      <point x="286.79999999999995" y="23.0" type="line" smooth="yes"/>
      <point x="286.79999999999995" y="-5.6"/>
      <point x="280.40000000000003" y="-14.4"/>
      <point x="266.8" y="-14.4" type="curve" smooth="yes"/>
      <point x="261.8" y="-14.4"/>
      <point x="253.6" y="-13.2"/>
      <point x="248.6" y="-12.0" type="curve"/>
      <point x="238.39999999999998" y="-212.6" type="line"/>
      <point x="260.2" y="-217.79999999999998"/>
      <point x="283.2" y="-220.0"/>
      <point x="309.8" y="-220.0" type="curve" smooth="yes"/>
      <point x="419.59999999999997" y="-220.0"/>
      <point x="487.59999999999997" y="-127.6"/>
    </contour>
  </outline>
</glyph>
<glyph name="OE" format="2">
  <advance width="801.4000000000001"/>
  <unicode hex="0152"/>
  <outline>
    <contour>
      <point x="783.2" y="0.0" type="line"/>
      <point x="783.2" y="183.4" type="line"/>
      <point x="542.2" y="183.4" type="line"/>
      <point x="542.2" y="263.4" type="line"/>
      <point x="743.8" y="263.4" type="line"/>
      <point x="743.8" y="433.8" type="line"/>
      <point x="542.2" y="433.8" type="line"/>
      <point x="542.2" y="512.6" type="line"/>
      <point x="768.6" y="512.6" type="line"/>
      <point x="768.6" y="700.0" type="line"/>
      <point x="501.40000000000003" y="700.0" type="line"/>
      <point x="436.79999999999995" y="707.2"/>
      <point x="375.6" y="710.0"/>
      <point x="304.59999999999997" y="710.0" type="curve" smooth="yes"/>
      <point x="88.60000000000001" y="710.0"/>
      <point x="14.4" y="580.8"/>
      <point x="14.4" y="354.4" type="curve" smooth="yes"/>
      <point x="14.4" y="78.8"/>
      <point x="105.60000000000002" y="-10.0"/>
      <point x="304.4" y="-10.0" type="curve" smooth="yes"/>
      <point x="378.59999999999997" y="-10.0"/>
      <point x="457.8" y="-8.4"/>
      <point x="541.4000000000001" y="0.0" type="curve"/>
    </contour>
    <contour>
      <point x="339.20000000000005" y="168.8" type="line"/>
      <point x="327.20000000000005" y="166.8"/>
      <point x="309.2" y="164.8"/>
      <point x="285.2" y="164.8" type="curve" smooth="yes"/>
      <point x="244.40000000000003" y="164.8"/>
      <point x="225.0" y="213.8"/>
      <point x="225.0" y="350.6" type="curve" smooth="yes"/>
      <point x="225.0" y="489.2"/>
      <point x="241.6" y="533.4"/>
      <point x="284.6" y="533.4" type="curve" smooth="yes"/>
      <point x="309.0" y="533.4"/>
      <point x="316.6" y="531.2"/>
      <point x="339.20000000000005" y="529.1999999999999" type="curve"/>
    </contour>
  </outline>
</glyph>
<glyph name="oe" format="2">
  <advance width="775.6"/>
  <unicode hex="0153"/>
  <outline>
    <contour>
      <point x="13.8" y="276.3" type="curve" smooth="yes"/>
      <point x="13.8" y="112.8"/>
      <point x="64.2" y="-10.0"/>
      <point x="256.1" y="-10.0" type="curve" smooth="yes"/>
      <point x="313.6" y="-10.0"/>
      <point x="358.8" y="6.699999999999999"/>
      <point x="393.5" y="26.2" type="curve"/>
      <point x="437.3" y="7.699999999999999"/>
      <point x="484.0" y="-10.0"/>
      <point x="556.8" y="-10.0" type="curve" smooth="yes"/>
      <point x="633.1" y="-10.0"/>
      <point x="693.6" y="2.0"/>
      <point x="756.5" y="26.6" type="curve"/>
      <point x="731.4" y="191.9" type="line"/>
      <point x="665.0" y="176.0"/>
      <point x="605.8" y="169.6"/>
      <point x="582.9" y="169.6" type="curve" smooth="yes"/>
      <point x="529.9" y="169.6"/>
      <point x="496.9" y="175.6"/>
      <point x="496.9" y="200.4" type="curve" smooth="yes"/>
      <point x="496.9" y="202.0"/>
      <point x="496.7" y="204.6"/>
      <point x="497.0" y="207.2" type="curve"/>
      <point x="587.8" y="212.2"/>
      <point x="706.6" y="224.4"/>
      <point x="756.2" y="229.0" type="curve"/>
      <point x="757.2" y="248.4"/>
      <point x="758.2" y="279.2"/>
      <point x="758.2" y="296.4" type="curve" smooth="yes"/>
      <point x="758.2" y="469.4"/>
      <point x="702.2" y="560.0"/>
      <point x="531.4" y="560.0" type="curve" smooth="yes"/>
      <point x="480.2" y="560.0"/>
      <point x="437.3" y="538.4"/>
      <point x="400.7" y="517.5" type="curve"/>
      <point x="359.7" y="543.7"/>
      <point x="311.9" y="560.0"/>
      <point x="256.1" y="560.0" type="curve" smooth="yes"/>
      <point x="60.5" y="560.0"/>
      <point x="13.8" y="436.8"/>
    </contour>
    <contour>
      <point x="220.4" y="276.1" type="curve" smooth="yes"/>
      <point x="220.4" y="377.6"/>
      <point x="226.9" y="393.3"/>
      <point x="255.9" y="393.3" type="curve" smooth="yes"/>
      <point x="283.8" y="393.3"/>
      <point x="290.9" y="377.6"/>
      <point x="290.9" y="276.1" type="curve" smooth="yes"/>
      <point x="290.9" y="173.1"/>
      <point x="283.0" y="157.5"/>
      <point x="255.9" y="157.5" type="curve" smooth="yes"/>
      <point x="228.0" y="157.5"/>
      <point x="220.4" y="173.1"/>
    </contour>
    <contour>
      <point x="496.9" y="321.4" type="curve"/>
      <point x="500.1" y="403.2"/>
      <point x="509.2" y="409.3"/>
      <point x="526.8" y="409.3" type="curve" smooth="yes"/>
      <point x="542.3" y="409.3"/>
      <point x="554.6" y="393.9"/>
      <point x="557.6" y="324.1" type="curve"/>
      <point x="536.9" y="322.8"/>
      <point x="514.5" y="321.6"/>
    </contour>
  </outline>
</glyph>
<glyph name="uni0162" format="2">
  <advance width="529.6"/>
  <unicode hex="0162"/>
  <outline>
    <contour>
      <point x="141.4" y="-85.6" type="curve"/>
      <point x="141.0" y="-209.6" type="line"/>
      <point x="169.0" y="-217.6"/>
      <point x="193.4" y="-220.0"/>
      <point x="217.8" y="-220.0" type="curve" smooth="yes"/>
      <point x="318.0" y="-220.0"/>
      <point x="351.0" y="-166.8"/>
      <point x="351.0" y="-99.2" type="curve" smooth="yes"/>
      <point x="351.0" y="-66.2"/>
      <point x="336.59999999999997" y="-15.600000000000001"/>
      <point x="324.8" y="6.8" type="curve"/>
      <point x="196.2" y="6.8" type="line"/>
      <point x="208.39999999999998" y="-9.0"/>
      <point x="217.6" y="-38.4"/>
      <point x="217.6" y="-52.8" type="curve" smooth="yes"/>
      <point x="217.6" y="-76.80000000000001"/>
      <point x="199.60000000000002" y="-89.2"/>
      <point x="176.2" y="-89.2" type="curve" smooth="yes"/>
      <point x="166.6" y="-89.2"/>
      <point x="156.6" y="-88.19999999999999"/>
    </contour>
    <component base="T"/>
  </outline>
</glyph>
<glyph name="Tbar" format="2">
  <advance width="533.6"/>
  <unicode hex="0166"/>
  <outline>
    <contour>
      <point x="74.8" y="230.0" type="line"/>
      <point x="165.2" y="230.0" type="line"/>
      <point x="165.2" y="0.0" type="line"/>
      <point x="369.2" y="0.0" type="line"/>
      <point x="369.2" y="230.0" type="line"/>
      <point x="457.2" y="230.0" type="line"/>
      <point x="457.2" y="403.2" type="line"/>
      <point x="369.2" y="403.2" type="line"/>
      <point x="369.2" y="506.40000000000003" type="line"/>
      <point x="518.6" y="506.40000000000003" type="line"/>
      <point x="518.6" y="700.0" type="line"/>
      <point x="15.0" y="700.0" type="line"/>
      <point x="15.0" y="506.40000000000003" type="line"/>
      <point x="165.2" y="506.40000000000003" type="line"/>
      <point x="165.2" y="403.2" type="line"/>
      <point x="74.8" y="403.2" type="line"/>
    </contour>
  </outline>
</glyph>
<glyph name="tbar" format="2">
  <advance width="359.6"/>
  <unicode hex="0167"/>
  <outline>
    <contour>
      <point x="256.0" y="240.8" type="line"/>
      <point x="327.40000000000003" y="240.8" type="line"/>
      <point x="327.40000000000003" y="364.0" type="line"/>
      <point x="256.0" y="364.0" type="line"/>
      <point x="256.0" y="400.6" type="line"/>
      <point x="335.40000000000003" y="400.6" type="line"/>
      <point x="335.40000000000003" y="550.0" type="line"/>
      <point x="256.0" y="550.0" type="line"/>
      <point x="256.0" y="656.2" type="line"/>
      <point x="80.39999999999999" y="656.2" type="line"/>
      <point x="56.0" y="550.0" type="line"/>
      <point x="4.8" y="541.2" type="line"/>
      <point x="4.8" y="401.40000000000003" type="line"/>
      <point x="56.0" y="401.40000000000003" type="line"/>
      <point x="56.0" y="364.0" type="line"/>
      <point x="7.199999999999999" y="364.0" type="line"/>
      <point x="7.199999999999999" y="240.8" type="line"/>
      <point x="56.0" y="240.8" type="line"/>
      <point x="56.0" y="195.0" type="line" smooth="yes"/>
      <point x="56.0" y="54.6"/>
      <point x="111.6" y="-10.0"/>
      <point x="212.0" y="-10.0" type="curve" smooth="yes"/>
      <point x="255.40000000000003" y="-10.0"/>
      <point x="306.6" y="-5.0"/>
      <point x="358.20000000000005" y="16.4" type="curve"/>
      <point x="330.59999999999997" y="175.0" type="line"/>
      <point x="307.59999999999997" y="170.0"/>
      <point x="293.59999999999997" y="169.2"/>
      <point x="287.4" y="169.2" type="curve" smooth="yes"/>
      <point x="268.0" y="169.2"/>
      <point x="256.0" y="177.2"/>
      <point x="256.0" y="212.6" type="curve" smooth="yes"/>
    </contour>
  </outline>
</glyph>
<glyph name="uogonek" format="2">
  <advance width="529.6"/>
  <unicode hex="0173"/>
  <outline>
    <contour>
      <point x="452.0" y="-200.6" type="curve" smooth="yes"/>
      <point x="487.8" y="-200.6"/>
      <point x="511.6" y="-196.6"/>
      <point x="531.4" y="-188.6" type="curve"/>
      <point x="523.8" y="-51.2" type="line"/>
      <point x="520.1999999999999" y="-52.199999999999996"/>
      <point x="514.8000000000001" y="-53.2"/>
      <point x="507.4" y="-53.2" type="curve" smooth="yes"/>
      <point x="491.2" y="-53.2"/>
      <point x="480.4" y="-44.400000000000006"/>
      <point x="480.4" y="-29.2" type="curve" smooth="yes"/>
      <point x="480.4" y="-10.2"/>
      <point x="491.8" y="1.1999999999999997"/>
      <point x="528.0" y="19.4" type="curve"/>
      <point x="514.4" y="180.20000000000002" type="line"/>
      <point x="510.2" y="178.60000000000002"/>
      <point x="504.0" y="177.6"/>
      <point x="499.0" y="177.6" type="curve" smooth="yes"/>
      <point x="490.2" y="177.6"/>
      <point x="485.2" y="182.8"/>
      <point x="485.2" y="203.8" type="curve" smooth="yes"/>
      <point x="485.2" y="550.0" type="line"/>
      <point x="285.2" y="550.0" type="line"/>
      <point x="285.2" y="179.4" type="line"/>
      <point x="272.0" y="172.2"/>
      <point x="262.4" y="169.8"/>
      <point x="251.2" y="169.8" type="curve" smooth="yes"/>
      <point x="238.0" y="169.8"/>
      <point x="225.2" y="176.60000000000002"/>
      <point x="225.2" y="201.6" type="curve" smooth="yes"/>
      <point x="225.2" y="550.0" type="line"/>
      <point x="24.4" y="550.0" type="line"/>
      <point x="24.4" y="158.79999999999998" type="line" smooth="yes"/>
      <point x="24.4" y="36.6"/>
      <point x="85.2" y="-10.0"/>
      <point x="168.4" y="-10.0" type="curve" smooth="yes"/>
      <point x="221.8" y="-10.0"/>
      <point x="266.0" y="7.599999999999999"/>
      <point x="308.20000000000005" y="38.4" type="curve"/>
      <point x="331.8" y="9.8"/>
      <point x="362.2" y="-10.0"/>
      <point x="412.8" y="-10.0" type="curve" smooth="yes"/>
      <point x="429.59999999999997" y="-10.0"/>
      <point x="444.79999999999995" y="-8.799999999999999"/>
      <point x="459.0" y="-5.8" type="curve"/>
      <point x="420.0" y="10.2" type="line"/>
      <point x="366.0" y="-4.3999999999999995"/>
      <point x="324.0" y="-45.4"/>
      <point x="324.0" y="-97.2" type="curve" smooth="yes"/>
      <point x="324.0" y="-163.0"/>
      <point x="372.0" y="-200.6"/>
    </contour>
  </outline>
</glyph>
<glyph name="longs" format="2">
  <advance width="325.6"/>
  <unicode hex="017F"/>
  <outline>
    <contour>
      <point x="260.40000000000003" y="521.8000000000001" type="line"/>
      <point x="260.40000000000003" y="564.6"/>
      <point x="283.0" y="575.0"/>
      <point x="303.79999999999995" y="575.0" type="curve" smooth="yes"/>
      <point x="318.8" y="575.0"/>
      <point x="350.6" y="569.8000000000001"/>
      <point x="363.0" y="565.1999999999999" type="curve"/>
      <point x="391.0" y="720.2" type="line"/>
      <point x="350.8" y="737.0"/>
      <point x="304.79999999999995" y="750.0"/>
      <point x="244.79999999999998" y="750.0" type="curve" smooth="yes"/>
      <point x="133.20000000000002" y="750.0"/>
      <point x="60.4" y="677.2"/>
      <point x="60.4" y="535.2" type="curve" smooth="yes"/>
      <point x="60.4" y="520.0" type="line"/>
      <point x="6.800000000000001" y="510.40000000000003" type="line"/>
      <point x="6.800000000000001" y="364.2" type="line"/>
      <point x="60.4" y="364.2" type="line"/>
      <point x="60.4" y="0.0" type="line"/>
      <point x="260.40000000000003" y="0.0" type="line"/>
    </contour>
  </outline>
</glyph>
<glyph name="uni018F" format="2">
  <advance width="526.6"/>
  <unicode hex="018F"/>
  <outline>
    <contour>
      <point x="57.8" y="496.2" type="line"/>
      <point x="118.8" y="514.8000000000001"/>
      <point x="165.4" y="522.4"/>
      <point x="205.8" y="522.4" type="curve" smooth="yes"/>
      <point x="263.2" y="522.4"/>
      <point x="291.8" y="495.6"/>
      <point x="295.0" y="451.0" type="curve" smooth="yes"/>
      <point x="295.8" y="445.0"/>
      <point x="295.80000000000007" y="440.0"/>
      <point x="295.8" y="433.2" type="curve"/>
      <point x="192.6" y="423.8"/>
      <point x="102.79999999999998" y="414.79999999999995"/>
      <point x="16.799999999999997" y="405.2" type="curve"/>
      <point x="15.6" y="378.40000000000003"/>
      <point x="14.600000000000001" y="343.6"/>
      <point x="14.600000000000001" y="322.4" type="curve" smooth="yes"/>
      <point x="14.600000000000001" y="93.39999999999999"/>
      <point x="89.8" y="-10.0"/>
      <point x="255.4" y="-10.0" type="curve" smooth="yes"/>
      <point x="418.2" y="-10.0"/>
      <point x="512.2" y="109.60000000000001"/>
      <point x="512.2" y="362.40000000000003" type="curve" smooth="yes"/>
      <point x="512.2" y="590.1999999999999"/>
      <point x="423.4" y="709.2"/>
      <point x="252.0" y="709.2" type="curve" smooth="yes"/>
      <point x="172.2" y="709.2"/>
      <point x="107.6" y="694.8"/>
      <point x="29.200000000000003" y="661.1999999999999" type="curve"/>
    </contour>
    <contour>
      <point x="300.40000000000003" y="290.2" type="curve"/>
      <point x="300.6" y="200.6"/>
      <point x="281.40000000000003" y="159.60000000000002"/>
      <point x="253.8" y="159.60000000000002" type="curve" smooth="yes"/>
      <point x="224.0" y="159.60000000000002"/>
      <point x="216.8" y="180.4"/>
      <point x="214.0" y="284.8" type="curve"/>
      <point x="237.39999999999998" y="286.8"/>
      <point x="276.2" y="289.0"/>
    </contour>
  </outline>
</glyph>
<glyph name="florin" format="2">
  <advance width="546.0"/>
  <unicode hex="0192"/>
  <outline>
    <contour>
      <point x="100.60000000000001" y="400.2" type="line"/>
      <point x="76.4" y="254.0" type="line"/>
      <point x="130.2" y="254.0" type="line"/>
      <point x="56.0" y="-210.0" type="line"/>
      <point x="246.60000000000002" y="-210.0" type="line"/>
      <point x="320.6" y="254.0" type="line"/>
      <point x="409.20000000000005" y="254.0" type="line"/>
      <point x="434.0" y="409.79999999999995" type="line"/>
      <point x="345.6" y="409.79999999999995" type="line"/>
      <point x="354.8" y="467.59999999999997" type="line" smooth="yes"/>
      <point x="362.0" y="507.0"/>
      <point x="375.2" y="521.2"/>
      <point x="403.0" y="521.2" type="curve" smooth="yes"/>
      <point x="422.8" y="521.2"/>
      <point x="440.4" y="518.0"/>
      <point x="467.20000000000005" y="508.59999999999997" type="curve"/>
      <point x="524.4" y="677.2" type="line"/>
      <point x="482.0" y="699.4"/>
      <point x="436.2" y="710.0"/>
      <point x="381.20000000000005" y="710.0" type="curve" smooth="yes"/>
      <point x="270.0" y="710.0"/>
      <point x="191.39999999999998" y="630.8"/>
      <point x="168.8" y="495.2" type="curve" smooth="yes"/>
      <point x="155.2" y="409.79999999999995" type="line"/>
    </contour>
  </outline>
</glyph>
<glyph name="uni0237" format="2">
  <advance width="257.6"/>
  <unicode hex="0237"/>
  <anchor x="131.2" y="550.0" name="top"/>
  <outline>
    <contour>
      <point x="231.60000000000002" y="19.6" type="curve" smooth="yes"/>
      <point x="231.60000000000002" y="550.0" type="line"/>
      <point x="31.599999999999998" y="550.0" type="line"/>
      <point x="31.599999999999998" y="33.8" type="line"/>
      <point x="31.599999999999998" y="-14.2"/>
      <point x="20.200000000000003" y="-28.2"/>
      <point x="-11.0" y="-28.2" type="curve" smooth="yes"/>
      <point x="-21.6" y="-28.200000000000003"/>
      <point x="-30.6" y="-25.8"/>
      <point x="-43.6" y="-21.8" type="curve"/>
      <point x="-67.2" y="-204.6" type="line"/>
      <point x="-32.4" y="-214.6"/>
      <point x="4.6000000000000005" y="-220.0"/>
      <point x="34.4" y="-220.0" type="curve" smooth="yes"/>
      <point x="177.4" y="-220.0"/>
      <point x="231.60000000000002" y="-139.6"/>
    </contour>
  </outline>
</glyph>
<glyph name="uni0259" format="2">
  <advance width="499.40000000000003"/>
  <unicode hex="0259"/>
  <outline>
    <contour>
      <point x="21.2" y="320.8" type="curve"/>
      <point x="20.0" y="301.0"/>
      <point x="19.2" y="269.8"/>
      <point x="19.2" y="253.6" type="curve" smooth="yes"/>
      <point x="19.2" y="80.39999999999999"/>
      <point x="75.2" y="-10.0"/>
      <point x="246.2" y="-10.0" type="curve" smooth="yes"/>
      <point x="399.2" y="-10.0"/>
      <point x="485.6" y="91.4"/>
      <point x="485.6" y="285.59999999999997" type="curve" smooth="yes"/>
      <point x="485.6" y="468.4"/>
      <point x="410.4" y="560.0"/>
      <point x="243.6" y="560.0" type="curve" smooth="yes"/>
      <point x="153.79999999999998" y="560.0"/>
      <point x="87.19999999999999" y="547.0"/>
      <point x="20.800000000000004" y="523.1999999999999" type="curve"/>
      <point x="46.2" y="358.0" type="line"/>
      <point x="112.6" y="374.2"/>
      <point x="171.0" y="379.8"/>
      <point x="194.4" y="379.8" type="curve" smooth="yes"/>
      <point x="243.39999999999998" y="379.8"/>
      <point x="276.59999999999997" y="376.2"/>
      <point x="276.59999999999997" y="349.8" type="curve" smooth="yes"/>
      <point x="276.59999999999997" y="347.2"/>
      <point x="276.6" y="345.59999999999997"/>
      <point x="276.6" y="343.0" type="curve"/>
      <point x="184.6" y="338.0"/>
      <point x="70.6" y="325.8"/>
    </contour>
    <contour>
      <point x="278.0" y="226.8" type="curve"/>
      <point x="274.79999999999995" y="148.4"/>
      <point x="266.40000000000003" y="142.20000000000002"/>
      <point x="250.8" y="142.20000000000002" type="curve" smooth="yes"/>
      <point x="235.79999999999998" y="142.20000000000002"/>
      <point x="225.4" y="157.79999999999998"/>
      <point x="222.4" y="224.20000000000002" type="curve"/>
      <point x="239.6" y="225.4"/>
      <point x="261.59999999999997" y="226.4"/>
    </contour>
  </outline>
</glyph>
<glyph name="gravecomb" format="2">
  <unicode hex="0300"/>
  <anchor x="-331.6" y="789.2" name="top"/>
  <anchor x="-260.4" y="550.0" name="_top"/>
  <outline>
    <contour>
      <point x="-340.0" y="595.2" type="line"/>
      <point x="-181.4" y="595.2" type="line"/>
      <point x="-242.40000000000003" y="789.2" type="line"/>
      <point x="-447.6" y="789.2" type="line"/>
    </contour>
  </outline>
</glyph>
<glyph name="acutecomb" format="2">
  <unicode hex="0301"/>
  <anchor x="-205.6" y="789.2" name="top"/>
  <anchor x="-260.4" y="550.0" name="_top"/>
  <outline>
    <contour>
      <point x="-335.4" y="595.2" type="line"/>
      <point x="-185.2" y="595.2" type="line"/>
      <point x="-76.8" y="789.2" type="line"/>
      <point x="-274.40000000000003" y="789.2" type="line"/>
    </contour>
  </outline>
</glyph>
<glyph name="uni0302" format="2">
  <unicode hex="0302"/>
  <anchor x="-260.2" y="782.6" name="top"/>
  <anchor x="-260.2" y="550.0" name="_top"/>
  <anchor x="-23.9" y="652.9" name="top_viet"/>
  <outline>
    <contour>
      <point x="-442.2" y="595.2" type="line"/>
      <point x="-282.9" y="595.2" type="line"/>
      <point x="-260.4" y="700.7" type="line"/>
      <point x="-238.2" y="595.2" type="line"/>
      <point x="-78.4" y="595.2" type="line"/>
      <point x="-149.2" y="789.2" type="line"/>
      <point x="-369.4" y="789.2" type="line"/>
    </contour>
  </outline>
</glyph>
<glyph name="tildecomb" format="2">
  <unicode hex="0303"/>
  <anchor x="-260.4" y="772.8000000000001" name="top"/>
  <anchor x="-260.4" y="550.0" name="_top"/>
  <outline>
    <contour>
      <point x="-437.79999999999995" y="595.2" type="curve"/>
      <point x="-333.8" y="595.2" type="line"/>
      <point x="-333.8" y="597.2"/>
      <point x="-333.0" y="602.1999999999999"/>
      <point x="-333.0" y="604.2" type="curve" smooth="yes"/>
      <point x="-333.0" y="617.2"/>
      <point x="-325.8" y="626.8"/>
      <point x="-312.2" y="626.8" type="curve" smooth="yes"/>
      <point x="-293.20000000000005" y="626.8"/>
      <point x="-225.79999999999998" y="601.6"/>
      <point x="-190.0" y="601.6" type="curve" smooth="yes"/>
      <point x="-120.0" y="601.6"/>
      <point x="-80.8" y="637.2"/>
      <point x="-80.8" y="732.8" type="curve" smooth="yes"/>
      <point x="-80.8" y="748.5999999999999"/>
      <point x="-81.8" y="765.6"/>
      <point x="-84.0" y="782.8" type="curve"/>
      <point x="-188.0" y="782.8" type="line"/>
      <point x="-188.0" y="781.6"/>
      <point x="-188.0" y="776.6"/>
      <point x="-188.0" y="774.6" type="curve" smooth="yes"/>
      <point x="-188.0" y="760.8"/>
      <point x="-196.79999999999998" y="752.0"/>
      <point x="-208.8" y="752.0" type="curve" smooth="yes"/>
      <point x="-229.0" y="752.0"/>
      <point x="-277.2" y="777.1999999999999"/>
      <point x="-330.4" y="777.1999999999999" type="curve" smooth="yes"/>
      <point x="-402.8" y="777.1999999999999"/>
      <point x="-441.0" y="736.8"/>
      <point x="-441.0" y="645.2" type="curve" smooth="yes"/>
      <point x="-441.0" y="630.1999999999999"/>
      <point x="-440.8" y="613.1999999999999"/>
    </contour>
  </outline>
</glyph>
<glyph name="uni0304" format="2">
  <unicode hex="0304"/>
  <anchor x="-260.4" y="767.2" name="top"/>
  <anchor x="-260.4" y="550.0" name="_top"/>
  <outline>
    <contour>
      <point x="-404.40000000000003" y="601.2" type="line"/>
      <point x="-116.4" y="601.2" type="line"/>
      <point x="-116.4" y="751.2" type="line"/>
      <point x="-404.40000000000003" y="751.2" type="line"/>
    </contour>
  </outline>
</glyph>
<glyph name="uni0306" format="2">
  <unicode hex="0306"/>
  <anchor x="-260.4" y="764.0" name="top"/>
  <anchor x="-260.4" y="550.0" name="_top"/>
  <outline>
    <contour>
      <point x="-259.59999999999997" y="599.2" type="curve" smooth="yes"/>
      <point x="-131.6" y="599.2"/>
      <point x="-84.60000000000001" y="634.6"/>
      <point x="-84.60000000000001" y="748.2" type="curve" smooth="yes"/>
      <point x="-84.6" y="757.2"/>
      <point x="-84.6" y="767.1999999999999"/>
      <point x="-85.60000000000001" y="777.1999999999999" type="curve"/>
      <point x="-192.4" y="777.1999999999999" type="line"/>
      <point x="-192.4" y="775.2"/>
      <point x="-192.4" y="774.2"/>
      <point x="-192.4" y="772.2" type="curve" smooth="yes"/>
      <point x="-192.39999999999998" y="753.1999999999999"/>
      <point x="-196.2" y="729.2"/>
      <point x="-259.59999999999997" y="729.2" type="curve" smooth="yes"/>
      <point x="-323.8" y="729.2"/>
      <point x="-327.6" y="753.1999999999999"/>
      <point x="-327.6" y="772.1999999999999" type="curve" smooth="yes"/>
      <point x="-327.59999999999997" y="774.2"/>
      <point x="-327.59999999999997" y="775.2"/>
      <point x="-327.6" y="777.1999999999999" type="curve"/>
      <point x="-435.2" y="777.1999999999999" type="line"/>
      <point x="-436.2" y="767.1999999999999"/>
      <point x="-436.2" y="757.1999999999999"/>
      <point x="-436.2" y="748.1999999999999" type="curve" smooth="yes"/>
      <point x="-436.2" y="620.1999999999999"/>
      <point x="-370.0" y="599.2"/>
    </contour>
  </outline>
</glyph>
<glyph name="uni0307" format="2">
  <unicode hex="0307"/>
  <anchor x="-260.4" y="753.2" name="top"/>
  <anchor x="-260.4" y="550.0" name="_top"/>
  <outline>
    <contour>
      <point x="-260.4" y="588.6" type="curve" smooth="yes"/>
      <point x="-209.8" y="588.6"/>
      <point x="-179.4" y="609.4"/>
      <point x="-179.4" y="679.4" type="curve" smooth="yes"/>
      <point x="-179.4" y="749.6"/>
      <point x="-209.8" y="770.6"/>
      <point x="-260.4" y="770.6" type="curve" smooth="yes"/>
      <point x="-311.0" y="770.6"/>
      <point x="-341.40000000000003" y="749.6"/>
      <point x="-341.40000000000003" y="679.4" type="curve" smooth="yes"/>
      <point x="-341.40000000000003" y="609.4"/>
      <point x="-311.0" y="588.6"/>
    </contour>
  </outline>
</glyph>
<glyph name="uni0308" format="2">
  <unicode hex="0308"/>
  <anchor x="-260.4" y="753.2" name="top"/>
  <anchor x="-260.4" y="550.0" name="_top"/>
  <outline>
    <contour>
      <point x="-165.79999999999998" y="591.2" type="curve" smooth="yes"/>
      <point x="-115.20000000000002" y="591.2"/>
      <point x="-85.6" y="611.2"/>
      <point x="-85.6" y="681.2" type="curve" smooth="yes"/>
      <point x="-85.6" y="752.2"/>
      <point x="-115.20000000000002" y="773.2"/>
      <point x="-165.79999999999998" y="773.2" type="curve" smooth="yes"/>
      <point x="-216.4" y="773.2"/>
      <point x="-246.8" y="752.2"/>
      <point x="-246.8" y="681.2" type="curve" smooth="yes"/>
      <point x="-246.8" y="611.2"/>
      <point x="-216.4" y="591.2"/>
    </contour>
    <contour>
      <point x="-355.0" y="591.2" type="curve" smooth="yes"/>
      <point x="-304.40000000000003" y="591.2"/>
      <point x="-274.0" y="611.2"/>
      <point x="-274.0" y="681.2" type="curve" smooth="yes"/>
      <point x="-274.0" y="752.2"/>
      <point x="-304.40000000000003" y="773.2"/>
      <point x="-355.0" y="773.2" type="curve" smooth="yes"/>
      <point x="-405.59999999999997" y="773.2"/>
      <point x="-435.20000000000005" y="752.2"/>
      <point x="-435.20000000000005" y="681.2" type="curve" smooth="yes"/>
      <point x="-435.20000000000005" y="611.2"/>
      <point x="-405.59999999999997" y="591.2"/>
    </contour>
  </outline>
</glyph>
<glyph name="hookabovecomb" format="2">
  <unicode hex="0309"/>
  <anchor x="-275.0" y="807.0" name="top"/>
  <anchor x="-260.5" y="550.0" name="_top"/>
  <outline>
    <contour>
      <point x="-308.0" y="587.0" type="line"/>
      <point x="-194.0" y="602.0"/>
      <point x="-152.5" y="650.0"/>
      <point x="-152.5" y="708.5" type="curve" smooth="yes"/>
      <point x="-152.5" y="783.0"/>
      <point x="-202.5" y="808.0"/>
      <point x="-275.5" y="808.0" type="curve" smooth="yes"/>
      <point x="-308.5" y="808.0"/>
      <point x="-347.0" y="801.5"/>
      <point x="-367.0" y="796.5" type="curve"/>
      <point x="-367.0" y="699.5" type="line"/>
      <point x="-350.0" y="702.5"/>
      <point x="-338.5" y="704.5"/>
      <point x="-321.0" y="704.5" type="curve" smooth="yes"/>
      <point x="-294.00000000000006" y="704.5"/>
      <point x="-280.0" y="695.9999999999999"/>
      <point x="-280.0" y="682.5" type="curve" smooth="yes"/>
      <point x="-280.0" y="670.5"/>
      <point x="-288.5" y="661.5"/>
      <point x="-319.5" y="656.0" type="curve"/>
    </contour>
  </outline>
</glyph>
